<mxfile modified="2021-05-31T07:22:38.993Z" host="app.diagrams.net" agent="5.0 (Windows NT 10.0; Win64; x64) AppleWebKit/537.36 (KHTML, like Gecko) Chrome/90.0.4430.212 Safari/537.36" etag="RDz4C2c-HbajESpyxSY6" version="13.10.4" type="github">
  <diagram id="l8hXMBHkgcEJcSW0mbfh" name="Page-1">
    <mxGraphModel dx="1951" dy="468" grid="1" gridSize="10" guides="1" tooltips="1" connect="1" arrows="1" fold="1" page="1" pageScale="1" pageWidth="1169" pageHeight="827" math="0" shadow="0">
      <root>
        <mxCell id="0" />
        <mxCell id="1" parent="0" />
        <mxCell id="Buyr_fSm4l3yDwF7n2vT-1" value="" style="whiteSpace=wrap;html=1;aspect=fixed;" parent="1" vertex="1">
          <mxGeometry x="-300" y="130" width="1520" height="1520" as="geometry" />
        </mxCell>
        <mxCell id="Buyr_fSm4l3yDwF7n2vT-11" value="" style="strokeWidth=2;html=1;shape=mxgraph.flowchart.direct_data;whiteSpace=wrap;" parent="1" vertex="1">
          <mxGeometry x="760" y="740" width="150" height="60" as="geometry" />
        </mxCell>
        <mxCell id="Buyr_fSm4l3yDwF7n2vT-15" value="" style="shape=singleArrow;direction=east;whiteSpace=wrap;html=1;" parent="1" vertex="1">
          <mxGeometry x="630" y="780" width="60" height="20" as="geometry" />
        </mxCell>
        <mxCell id="Buyr_fSm4l3yDwF7n2vT-19" value="" style="strokeWidth=2;html=1;shape=mxgraph.flowchart.database;whiteSpace=wrap;rotation=90;" parent="1" vertex="1">
          <mxGeometry x="690" y="740" width="60" height="60" as="geometry" />
        </mxCell>
        <mxCell id="Buyr_fSm4l3yDwF7n2vT-25" value="Worker Ⅰ" style="text;html=1;resizable=0;autosize=1;align=center;verticalAlign=middle;points=[];fillColor=none;strokeColor=none;rounded=0;fontSize=17;" parent="1" vertex="1">
          <mxGeometry x="500" y="755" width="90" height="30" as="geometry" />
        </mxCell>
        <mxCell id="Buyr_fSm4l3yDwF7n2vT-29" value="Worker Ⅲ" style="text;html=1;resizable=0;autosize=1;align=center;verticalAlign=middle;points=[];fillColor=none;strokeColor=none;rounded=0;fontSize=17;" parent="1" vertex="1">
          <mxGeometry x="500" y="975" width="90" height="30" as="geometry" />
        </mxCell>
        <mxCell id="Buyr_fSm4l3yDwF7n2vT-30" value="Worker Ⅱ" style="text;html=1;resizable=0;autosize=1;align=center;verticalAlign=middle;points=[];fillColor=none;strokeColor=none;rounded=0;fontSize=17;" parent="1" vertex="1">
          <mxGeometry x="500" y="865" width="90" height="30" as="geometry" />
        </mxCell>
        <mxCell id="Buyr_fSm4l3yDwF7n2vT-33" value="" style="strokeWidth=2;html=1;shape=mxgraph.flowchart.database;whiteSpace=wrap;rotation=90;" parent="1" vertex="1">
          <mxGeometry x="685" y="965" width="60" height="50" as="geometry" />
        </mxCell>
        <mxCell id="Buyr_fSm4l3yDwF7n2vT-34" value="" style="strokeWidth=2;html=1;shape=mxgraph.flowchart.database;whiteSpace=wrap;rotation=90;" parent="1" vertex="1">
          <mxGeometry x="695" y="845" width="60" height="70" as="geometry" />
        </mxCell>
        <mxCell id="Buyr_fSm4l3yDwF7n2vT-36" value="" style="shape=singleArrow;direction=east;whiteSpace=wrap;html=1;" parent="1" vertex="1">
          <mxGeometry x="630" y="1000" width="60" height="20" as="geometry" />
        </mxCell>
        <mxCell id="Buyr_fSm4l3yDwF7n2vT-37" value="" style="shape=singleArrow;direction=east;whiteSpace=wrap;html=1;" parent="1" vertex="1">
          <mxGeometry x="630" y="890" width="60" height="20" as="geometry" />
        </mxCell>
        <mxCell id="Buyr_fSm4l3yDwF7n2vT-40" value="" style="shape=image;verticalLabelPosition=bottom;labelBackgroundColor=#ffffff;verticalAlign=top;aspect=fixed;imageAspect=0;image=data:image/png,iVBORw0KGgoAAAANSUhEUgAAAIQAAABlCAYAAACMXEuAAAAJSklEQVR4Ae1d+atOTxj3P0mWKFuyb8kS915L1Pcia3TtS5bk2v3gB4QsKZEtpXuFcK/8QEJ2kiIRQvw03z7Dc3rONu/M+87hnPc8T93mzHuemTPzeT7nmfXM7aJEBAGGQBd2LZeCgBJCCAlCCAghQnBIRAghHAghIIQIwSERIYRwIISAECIEh0SEEMKBEAJCiBAcEhFCCAdCCAghQnBIRAghHAghIIQIwSERIYRwIISAECIEh0SEEMKBEAJCiBAcEhFCCAdCCAghQnBIJPeEuHXrltqxY4dasGCB2rVrl+rs7DRa7cyZM+ry5ctGHbmZjkCuCbFmzRrVtWvX2F9jY6M6cOCAevnyZahmIA7p79u3L3RPInYI5JYQs2bNCoxLRk4KR44cqZqamlS/fv0C/dbWVrvai1YMgVwSAgZNMr7NbxMmTIhVUn6wRyB3hEAfgAy/YcMGdffuXfX9+3f19u1b1dbWptCM9O/fP9AhXYTjx4+3r7loJiKQO0KglCdPnlRXrlxJLDB+/Pbtm7p586ZCP2Hp0qVq2bJl+jo1gdywRiCXhLAuvSh6R0AI4R3SYmcohCi2/byXvtCEuHPnjsKfiD8ECkuIESNGBCMNf3BIToUkBIajfLj58eNHsaQnBApHiIcPH4bIAGI8e/bMExySTeEIsW7duhghKi14iZntESgUIdrb2mNkgIe4dOmSfY1F04hAYQjx69cv1djQmEiIY8eOGSspN+0RKAwhME3NO5L8eu/evfY1Fk0jAoUgxIMHD1TPnj01IbCAxcmA6/Xr1xsrKTftESgEIZYsWaJJMHToUJXUqcRuKhE/COSeEOfOnQs8wtWrV9WRI0eCOHkKbJAR8YNArgnx+fNnNW7cOE2AhQsX6hpjREFEoBCzliJ+EMg1Ifbs2aON36NHD3X//n1dY6xdEBEo7N27tx80JJf8nlP5+PFj1atXL218vmH20aNHMUKAGD9+/BBzekAgtx5i9erV2vAYVWCHFMmbN28SCYEtdiK1I5BLQty4cSMwOvZYcvn06VNwj5oMhNSkcF25dkcgl4Robm7WRp8zZ06sRpix5ESga4xARGpHIHeE4Luu0xatqG9BZEB4+vTp2tGQHPLVqURzMGbMGO0Btm7dmmqeQYMGxbzE/v37U/Xlhj0CufIQ27dv14YeNWqUev/+fWotxo4dGyOEfK2VCpfTjdwQgs8vVHL/Sauey5cvd6q4KCcjkBtCzJ07V7/1NCOZXNzfv86ePTvmIdARFakdgVwQAl9qoWPYrVs3q13UK1eujBFi0qRJtaNRwBxoW4Cv3ef/nBDoKwwbNkwbeOfOnVYm4Z/900hjyJAhVmnrQenevXv600Us6lH964YQZNyJEycaO5LckCdOnAiAIEC6d+/OVerqGsaGJ0Czyo89oLojrAtCYF0CC1eoEM6DcPnjYNA1VkfrUWBs1BFecNq0aQodaGwbpHojrAtCrFq1KlQpXsFqrp8+fVqPfEisE5GEcCo8Ifh6hYtnIF10QAkMCnEeVVmk7gjR/N/v9Ypqt78ltaVnz54tCx90E0EvAsJCewhq//r06RM7OMzWosOHD495CBxEVhapGw/x+vVrRWsRx48fr9p+OEuKvyG43rZtm3V+GO7i+MJTp04lHnX48+dP9eTJE32MEXr4+MOpNWny4sULBQ+FOZXr16+nqXn7vW4IsXbtWm3IKVOm1ATO9OnTY4TA+VM2QmDyLf0NDQ1B0vPnzyv6unzgwIEKZSXyrVixItDDBeZOSBf9G9JDGl9uPPTAPxGqAz3P17P+6sQU3kiqAN7MWoSmuik/hDb9EXwpjhVVmurmcxooz8aNG3UZN2/eHHrTaUYQzyHw58+fr+cGsBP83bt3ujrYqEP9GxAkKyk8Ib5+/aowvQxAa/UOALmlpSUgF5Fi6tSpFfGn/kt7e7vW5cBinI+84Paj8vz58+B58AjwdJgpRNMSFXgRKhORJ6pTa5yXG8/y9Zy/4iG+fPmi314Caffu3bXioTZt2hSATvmib1JJ0DRgcocEp91ReoRp0+fRrXsgT9oxBPz8CniWLKSwhHj16pWKtvc+hof4npMbkq5N4KOTCL2jR48Gavz4ZNMSetQA165dC/KIXvA+h0kvms4lHi1Pbj0ECoa3DhtWZs6cqTC0JGNRCJeL+9C12S0NPfxduHBBp6M9l5QfDxcvXqwOHz6sdSkdAQ23jzcWIQl1CJEHFo3SBDuy6Dk4G9MkpIfww4cPJtWq76Fu/DmI+xDvTQYvpM21jUs9dOhQqPI2+XKdNKAw9CS9Squl8+bNC3S5h4nmzWdgcQ53VlK3hLh48WJFzHgPnwxoG2K0kCZ81FPpraeRA55r8iRbtmwJiIO+RFZSGEJkBUAW+fJD1k1vPSadiICVPMno0aMD3Sz/b4cQIgNG8A0mpreefxpg8iT4NoSIA4+C0VVWIoTwjCyNOGBAdCxNwkciJk9Cs7DIMzqjiUkqfIboS4QQvpD8kw/vqFaa8uYjERyLmCYDBgwIPATvG2FWFiThoxvKA14k+rki3TOFQggTOlXc4+sOpnkRTEVTM4CzKtIEw2fS69u3b9Bc0KeHM2bMiCXFMJrSYF0FIxRbEULYImWpx996NB9pcvDgwcBoGEGkCXZrkXEXLVoUqFF67jHo5uDBg4M0SOsypS+EIBQ9hWQ8hEnrEfQYLJiRrumfukCf1mroKzL0N5A2ba6F8uUhPTcaIg/6g3fjK7VIjzh+xz+TwRdwac+M5huNe5+Yij4gj3H+dplGDSg7b1qQziQwAhmXPBA6mmmCYWl01TZNl/K1DVHuaqSUhABQMAba8EpC0922+zXxxTo6kWkbb9Keh/4Dhqr/WkpLiH8NfPT5+D7F1GmN6mcVF0JkhaxjvpMnT9bNk2My7+pCCO+Qumd4u/O27nskjUTcc6sthRCiNvy8pMbpvOiEZjnVbVtQIYQtUhnpdXR0aO9gmhzL6NGJ2QohEmH5Oz/S8LfaOYMsSimEyAJVhzzzRAYUWwjhYLwyqAohymBlhzoKIRzAKoOqEKIMVnaooxDCAawyqAohymBlhzoKIRzAKoOqEKIMVnaooxDCAawyqAohymBlhzoKIRzAKoOqEKIMVnaooxDCAawyqAohymBlhzoKIRzAKoOqEKIMVnaooxDCAawyqP4PhxKPuMKughsAAAAASUVORK5CYII=;" parent="1" vertex="1">
          <mxGeometry x="632.89" y="740" width="52.28" height="40" as="geometry" />
        </mxCell>
        <mxCell id="Buyr_fSm4l3yDwF7n2vT-41" value="" style="shape=image;verticalLabelPosition=bottom;labelBackgroundColor=#ffffff;verticalAlign=top;aspect=fixed;imageAspect=0;image=data:image/png,iVBORw0KGgoAAAANSUhEUgAAAJAAAABgCAYAAADy1PuhAAAKEElEQVR4Ae1dZ4sVPRT2P4kVBRtib9h114bCuypWFNvasCD28sEPKvYCothFdsXuLvpiQcWuiKCIomL9lJcnL2c4d9qd3SRzZ3bOgUvm3knOJE+enJSTyW2lRAQBAwRaGaSVpIKAEgIJCYwQEAIZwSeJhUDCASMEhEBG8EliIZBwwAgBIZARfJJYCCQcMEJACGQEnyQWAgkHjBAQAhnBJ4mFQMIBIwSEQEbwSWIhkHDACAEhkBF8klgIJBwwQkAIZASfJBYCCQeMEMgNgW7duqU2b96sZs2apbZu3aoaGhpiC37y5El16dKl2Dhy0xyBXBBo2bJlqnXr1oFPdXW12r17t3r9+nUJEiAaxd+5c2fJPfliF4HME2jKlCkeGYgUYeGAAQPUuHHjVNeuXb34GzZssIuWaAsgkGkCgQBhZEny24gRIwKFlR/sI5BZAmEMQ0RZtWqVunfvnvr586d6//69qqurU+jWunXr5sWhuAiHDx9uHynRGIpAZgmE3B47dkxdvnw5NOP48cePH+rmzZsK45z58+erhQsX6uvIBHLDOgKZJpD10opC6wgIgaxDWiyFQqBi1bf10rYIAt25c0fhI5I+ArknUP/+/b2ZWPrwyRNzTSBM7/n0/fPnz1KjKSOQWwI9fvy4hDwg0osXL1KGTx6XWwKtWLEiQKByDlapbvsI5JJA9XX1AfLAAl24cME+QqIxFoHcEejv37+quqo6lECHDh2KLazctI9A7ggEtwUfOPPrHTt22EdINMYikCsCPXr0SHXo0EETCA5TTh5cr1y5MrawctM+Arki0Lx58zRp+vTpo8IG0ditKJIuArkh0OnTpz2Lc+XKFbV//37vO1kibCgTSReBXBDo69evaujQoZows2fP1ghhxkXEoRCr0iLpIpALAm3fvl2TpX379urhw4caIfi+iDgUdurUKV305GnZP+b36dOnqmPHjposfIP8kydPAgQCkX79+iXVmiICmbdAS5cu1UTBrAs7EEnevXsXSiBseRVJD4FME+jGjRseSbBHmsuXL1+8e9SFIaQujseVa3cIZJpANTU1miTTpk0LIIAVaU4cusYMTSQ9BDJLIP5WRpSTlMZGRB6EJ06cSA89eVI2B9HongYPHqwtzPr16yOrqWfPngErtGvXrsj4csM+Apm0QJs2bdLEGDhwoPr48WNkqYcMGRIgkLyNGgmXkxuZIxBf3ynXHYV55RctWuQEKFEajkDmCDR9+nRtVWjFOTzb//86derUgAXCwFskPQQyRSC8iYqBcJs2bRK9ZbFkyZIAgUaNGpUeehV80tmzZxXKP3LkSI0BunM4k7ds2RLb7dvOcmYIhLFO3759NRgAIYnwY1xoJta7d+8kSXMdZ926dV7DwSESPXr08L4TDmmdjZQZAhEZ0KLiBs685o8cORIArl27djxKi7um42vg1oGbh+TBgwfK36XjvADXkgkCwa8FRylaD84DasqHWhwP4b1vibJ48WKNEfcJ+svp37F59OhRfxSr3zNBoNra2oAl4YRo6vXz58+tgpQFZfDxAYdhw4apc+fOqW/fvoVmC1aJ44XNdzgWx5VUnEDc39UUy0NxMeDmgOEa5ym2NLl+/XpJOWv+iZ5t+ruyxsZGZ3BUnEAAApXe3O2oNCbgJDp16pQzwCql2N81obxv374NzQ7tnyJMXK7OV5RAeA0HhezcuXPgoMxQZEJ+7NevX0nLhD4cvNnSBBMLIgTCuN2XfDEWcWGtXUnFCITWQ76sw4cPN7t8mMZyYHG9cePGxPpQMZjyHj9+PPTo4D9//qhnz57pY/VgBfDBqWhR8urVKwULiDWta9euRUVr1u/QC+LAWl+9ejVSx549e0owQZ5dScUItHz5cl3IsWPHGpVt4sSJJWCBQDg/MYlQS+WvCFVVVXlJz5w5oysMOrHWgrwSWTEj4oK1KzopBC2e4iENnpOmwJ1Dz0eI8ZMrqQiB0OKpgGj5JkKuD9KHMMl4Cid5wONPrg++poT8rF69Wudx7dq1JZaEj0WIGDNnzlTIB94U+fDhgy4ONrbR+MxlF+LHDlt6iciEyadPn/zRrH1PnUDfv39XcDegcKbWBygsWLDAIyMBNn78+LIA0firvr5exyVrBB1YzUaIbsgvL1++9J6HioIlxetE6Or8Qus20EVk88ex/R0NknBAmHRVv7n5SJVAWLuAdaACbtu2rbn59tKtWbPG00d6MbYqJ+iqJkyY4EXDabCUPg54/1ZakC3qWBl+fpHLcQgV4vfv32r06NFeOeAfcy2pEejNmzfKP16xMd3G+/C84uk6DjgMihHv4MGDXjT+dwpxW0K4pYKOuMEsHzPFxfMyYXjBu1cb1j1JdpwRCECjVWOD1+TJk/VUnSqXQnQBuI+4Sd6mQDx84IlGOtozTfp4OHfuXLVv3z4dl9IRIOiGADZCEj5uuH//Pv0cCLGmQs8p52uieAhdjkOQSU6ecvkKFMrgB2cE4uAluU5i4vfu3etVXhKd/jhROPE1lnLe/BkzZnh54BbMr5uvsON/PFwKGgiVNU3yoEyZIRD8O+WEtzICLGmI2VSU8FlhuQqgmRWeG2ep+JYLjIVcCi0bJGmEtvPhjEC2M+pSH7pDImKcVcEiIcUrZ6kGDRrkxXW5N6eS5EGdCIGU0tNwIkacVeGvGsVZKrybRvpgsaI856aNgsiDNawowX+qwRq6ksITiGZkqHAMpOOEz9TiLBWtskOnf8UalY7Xsk2FyHP+/PlIVRi4Y58VFjhdSeEJxAfm5VwgfKaGY4ajpHv37p4F4mM7WuTjsz/SASvlf32b7vlDkKdt27bq7t1//bdKvtNA3uXho4UnELVkWIu4dSm4JqhbwllFUUIbvxC3S5cuXvdFr2JPmjQpkBTLEqQbfjlUfJTAxYJZ3YEDB9TFixe1Yxe+LuiAVcRAmj60LwizNFdSeAJxq4LuLEq4hztuTIHdkESGOXPmeOooPbdIdLNXr15eGqSNWgQk9wvpTxq26B2JBGKlQl4JYf4syhd3wcT9CR7ik68PszsILAOeEzXN5nmga3ouhdQd0f2kIRzGLqXQFqgpC3C8qyvXJYAoVMFk4TCwjhJM8/27CvxxuU7SnSREvl1KoQkEYFF5GD+UE3J/JN1vjRNFMGjGJ+p0kbBnwtJg6p8XKTyBslZReD8ubpCetfwKgTJWI2PGjHG6h9l2cYVAthE10NfY0KjHTmEzNQO1TpMKgZzC2zTlOH0fg25Xro+m5SZZbCFQMpycx7p9+7a2PnGLmc4z0YwHCIGaAZrtJLScELVOZPt5NvUJgWyiaaArj+RBcYVABpUuSYVAwgFDBMQCGQJY9ORCoKIzwLD8QiBDAIueXAhUdAYYll8IZAhg0ZMLgYrOAMPyC4EMASx6ciFQ0RlgWH4hkCGARU8uBCo6AwzLLwQyBLDoyf8D/1rOAzN+T4QAAAAASUVORK5CYII=;" parent="1" vertex="1">
          <mxGeometry x="630" y="850" width="60" height="40" as="geometry" />
        </mxCell>
        <mxCell id="Buyr_fSm4l3yDwF7n2vT-43" value="" style="shape=image;verticalLabelPosition=bottom;labelBackgroundColor=#ffffff;verticalAlign=top;aspect=fixed;imageAspect=0;image=data:image/png,iVBORw0KGgoAAAANSUhEUgAAAH8AAABhCAYAAAD/YX74AAAKH0lEQVR4Ae1d54vWThD2fxKxoGJD7A2xoHc2FH6nYkWxN6zYywc/qKhYEMUuityJ3ROxICr2hqCIoqKin/bHE5kwSTbZlM37vpfMwMvmktnNzvPsbmYnm71WSqS0CLQqreViuBLyS9wIhHwhv8QIlNh06flCfokRKLHp0vOF/BIjUGLTpecL+SVGoMSmS88X8kuMQIlNl54v5JcYgRKbLj1fyC8xAiU2veo9/+bNm2rz5s1qxowZauvWraq5uTmSjhMnTqiLFy9G6sjFeAhUlfylS5eq1q1bB3719fVq9+7d6vXr1x4r0EhIf+fOnZ5r8kdyBKpG/qRJk1wiiVBdOmDAADVmzBjVtWtXV3/Dhg3JLZUcAQSqQj7I0xEd59zw4cMDRsiJdAhUnHw8s4nklStXqvv376tfv36pDx8+qMbGRoVHQbdu3Vwd0kU6bNiwdFZKLi0CFScftThy5Ii6dOmStkI4+fPnT3Xjxg2F5/rcuXPV/PnznePQDHIhFQJVIT9VTSWTdQSEfOuQtpwChfyWw5X1mtY0+Xfu3FH4ieSDQM2S379/f9fjz8d0KbUmyccUkE/xvnz5IkzlgEDNkf/48WMP8WgEL168yMF0KbLmyF++fHmAfNPLHqExHQI1RX5TY1OAePT88+fPp7NOckUiUDPk//37V9XX1WvJP3jwYKQRcjEdAjVDPkK53Mnjxzt27EhnneSKRKAmyH/06JFq3769Qz5e3nDicbxixYpII+RiOgRqgvw5c+Y4hPfp00fpHD6s8hGxj0DVyT99+rTb0y9fvqz279/v/k0jABZziNhHoKrkf/v2TQ0dOtQhe+bMmY518OyJdEoR7ROxj0BVyd++fbtDdLt27dTDhw8d6xDLJ9Ip7dixo33LpcTqbcj09OlT1aFDB4dovhjzyZMnAfLRCH7//i10WUagaj1/yZIlDsnw7rFyh+T9+/da8rHMS8QuAlUh//r16y7BWNPH5evXr+41GvaR0mOB68pxNgSqQn5DQ4ND8JQpUwK1R6SPk07HmAmI2EWg4uTz1bthL2zIFyDikR4/ftyu5VJaZR0+DOmDBw92evb69etD4e/Zs2eg9+/atStUXy6kQ6CiPX/Tpk0OqQMHDlSfPn0KrfGQIUMC5MtXOqFwpb5QMfL5/N00hOve7i1YsCC1kZJRj0DFyJ86darTmymSp6/Ov7OTJ08O9Hw4iSJ2EagI+fhCB05bmzZtYq3GXbRoUYD8kSNH2rW8Rkt79+6dwiNu3LhxLgb4SHXhwoXq3LlzVmudO/l4tvft29cxZMuWLbEqzz/FJo+/d+/esfK2ZKXDhw8rOLudOnVS+IoZPtKsWbNUly5d3IaARmBrQWvu5BORI0aMiHTyOGkAgUintG3btlylcMe0mAW93u8MIxTOG4AuPpIGkFzJR5weL21AIFpykh+RzlO8BSyi4OtkshMNXycHDhxwdaDrj4zq8pjO5Ur+4sWLPRUmA9Omz58/N9nTIq/jccgx4S+6yKCXL196dPD1clbJjXwev0/S40kXziEHBMfYv6eI4t+eBhj4RRf29usk/Ts38hv++xe/T7sEi2/DQo3g1KlTSe1rEfr37t3zNPSjR48G6u1/22ljo4pcyMdSaxAGr9W/qVLAqpAT/fr18wCC8rBJU1EFQTD0+LAXWHfv3vXggU/asop18t++fetMV0DWoUOHUtcPe+9Qj6d048aNscuDx4wt244dO6bd3u3Pnz/q2bNnzlYweMbih91AwuTVq1cKIw9iFlevXg1Ty+28P/aBz9qyinXyly1b5pA2evToTHUbP358gHw8G+MIhZL5MvC6ujo365kzZxR9BdyjRw+FulIDwzyaC5wx0kXPJD3kwX0qIWjEdF+kOocwTT2sks8riR6XRSgczI2O4z8gAII3hxQO5jED1GfVqlUOkGvWrPH0YABK9yJSp0+frlAPrCj++PGjYw4WlZA/onPMstisywscqV42ice9rJH/48cPhRAsKpi116Ni8+bN8xiNcseOHavDx3OO/I2mpibnPI0CyI8oIVIM3X7hUyn0dIxgWDKOx4NfMDqgHPyoofh1svw9YcIENypK90G499q1a1mKDeS1Qv7379+d7VOpotu2bQvcKOmJ1atXuwBTuQh9mgTDO4Aiwa5flB9pWIjZv3wMDSXs03C+f4CtIZjqixQjCv2oQ/Xq1csZ7j9//sxVMx1nJv/NmzfK/3y2MSXD93mcNDqOshYOHPQQDSPhc+io18J8hEAZV65coSICKfcRovQCGVOe2Lt3r4sFGoGtvYcTkw+Q0JsQg544caIznSNiKMWwievQjbPqFnr4nT171slHa/yoPJ7Onj1b7du3z9GlfIQphm70RKQk5KyhjAcPHtDpQIqVQnQfU/SM9JDa7ImBSrETcFL5fW00gMTk8wrEOY4zLPKWHadMvw7DyHOI6R7pmt4KTps2zdXlI4enQKUUj1xiX+BKyqBBg9w6wq6sEc/cyY/zDpp72kRW3BRee5jw2YepN5MHj/tGjRDr1q1zCbARaAmru+68fwaUdV1jYvJ1larVc3j0UCOK6s0I4JCeaYTgvc/G0EvY8UcVnfOn9Hqc6ooVT1mk0ORjqkZARfVmvpw8aoRA6JXKw0iBWU5WgU+EBRsot3PnzpEBHN0ImeX+hSWfPH+ACqcvSviMIGqEoOglyvRHAjE1w8uXpIKZETUopFGBI//eBVnjKYUlnzuRprAwnxFExcy7d+/uEsV9GYrC6YZujA5RCy+o1/MGENaAsIKH66ExZpHCko8eREBFxR0QriU97BUQJhieSQ9LqmjIp/fsiMr5BVNXyoP3DJgp+AXTVtJBGvbYwf8koK1rSP/kyZP+4hL9XVjyeW/GIyBM9uzZ44IPTz5MsIqIQEdvJaH8fCSgawjIUB6kumEa0zXSiZoW85EM+nHec1A9wtLCkk+AItXF5wkQgEi6Uf8AAvoUasUsAgL/AHnDSKNyeUr35SmfkuqG8gsXLrh1pLJ4/rTHhSQfkT8CKWwYJcD44wH5ooR72zSy6MiiMkCqf25O1/wpwsTUELEIBp+04R0FX7ULm7KskfDfs5Dkw0gAj2euSSgkHDdahi+L4eDhF/aVse6eeN5jemgSNAK8dgbxaATYoQzh7rVr1zr/j8iUP8n1wpKfBIRK6CJAE+VQVqIO/nsI+X5Ecvp71KhRkXP4nG4bWayQHwmPnYu3m287PohuRmDnDulKEfLT4ZYoFyJzcBApNpAoc47KQn6O4KLoW7duOb0+KtCUcxVCixfyQ6HJfoGmnGFxgOx3yFaCkJ8NP2PuWiUeFRfyjfQVV0HILy63RsuEfCNExVUQ8ovLrdEyId8IUXEVhPzicmu0TMg3QlRcBSG/uNwaLRPyjRAVV0HILy63RsuEfCNExVUQ8ovLrdEyId8IUXEVhPzicmu0TMg3QlRcBSG/uNwaLfsf6UJQqu1Wi5kAAAAASUVORK5CYII=;" parent="1" vertex="1">
          <mxGeometry x="630" y="960" width="52.37" height="40" as="geometry" />
        </mxCell>
        <mxCell id="Buyr_fSm4l3yDwF7n2vT-44" value="" style="strokeWidth=2;html=1;shape=mxgraph.flowchart.direct_data;whiteSpace=wrap;fontSize=16;" parent="1" vertex="1">
          <mxGeometry x="770" y="850" width="160" height="60" as="geometry" />
        </mxCell>
        <mxCell id="Buyr_fSm4l3yDwF7n2vT-45" value="" style="strokeWidth=2;html=1;shape=mxgraph.flowchart.direct_data;whiteSpace=wrap;fontSize=16;" parent="1" vertex="1">
          <mxGeometry x="750" y="960" width="120" height="60" as="geometry" />
        </mxCell>
        <mxCell id="Buyr_fSm4l3yDwF7n2vT-47" value="" style="shape=cylinder3;whiteSpace=wrap;html=1;boundedLbl=1;backgroundOutline=1;size=15;fontSize=16;direction=south;fillColor=#dae8fc;strokeColor=#6c8ebf;" parent="1" vertex="1">
          <mxGeometry x="920" y="740" width="80" height="60" as="geometry" />
        </mxCell>
        <mxCell id="Buyr_fSm4l3yDwF7n2vT-48" value="" style="strokeWidth=2;html=1;shape=mxgraph.flowchart.database;whiteSpace=wrap;fontSize=16;direction=south;fillColor=#fad9d5;strokeColor=#ae4132;" parent="1" vertex="1">
          <mxGeometry x="879.82" y="960" width="40.18" height="60" as="geometry" />
        </mxCell>
        <mxCell id="Buyr_fSm4l3yDwF7n2vT-49" value="" style="strokeWidth=2;html=1;shape=mxgraph.flowchart.direct_data;whiteSpace=wrap;fontSize=16;fillColor=#dae8fc;strokeColor=#6c8ebf;" parent="1" vertex="1">
          <mxGeometry x="940" y="850" width="100" height="60" as="geometry" />
        </mxCell>
        <mxCell id="Buyr_fSm4l3yDwF7n2vT-50" value="" style="shape=image;verticalLabelPosition=bottom;labelBackgroundColor=#ffffff;verticalAlign=top;aspect=fixed;imageAspect=0;image=data:image/png,iVBORw0KGgoAAAANSUhEUgAAAJkAAABOCAYAAAAzZ7QtAAAMVUlEQVR4Ae1dhasVTRT//iexG2yxW/TZYovdYmKAXSi22Ird3d3YhYrYio2i7Mdv+c5ydu7cu7sT+/Z9zIHH3Ht359T8dnbmzJl5/3iOnAcse+Afy/wde+cBz4HMgcC6BxzIrLvYCXAgcxiw7gEHMusudgIcyBwGrHvAgcy6i50ABzKHAesecCCz7mInwIHMYcC6BxzIrLvYCXAgcxiw7gEHMusudgIcyBwGrHvAgcy6i+MLWLx4sVeqVClv4sSJ8Stp3AlZ+INcm+RAZtO7CXiPHj3ab3A0+vPnzxPUVL+VQA2Z69evV2cUUTPTIPv165d3//5978CBA/7TBqfgb+PGjd6bN28iTCs5l3ljv3v3LlXFR44cGYD7zp07VmRnDmR379715syZ47Vp08YrX7584ADq2nnZvXt3b82aNd6zZ8+sOCcNpuvWrQtsPHnyZBoiQzI+fPjgtWvXLtDBBsgzAzL0VoMHDw6MJTBVrlzZa9KkiQdA1a5dO+c63bdt27aQ80rClxMnTgT2LFmypNhUvnbtmgc/w5fdunUzrkexg+zy5cs+gAgsKFu2bOm/Fh8/fpxjMF6TaJyePXsGDUR1ly1blnN/Vn94+PChV69ePd+GBg0aeB8/fixWVbdv3x74c/LkyUZ1KVaQ8bEIAWXhwoWxDdy5c6fXrFmzwDngMW3atNj1i/PGQYMGBXqvWrXKmCp4aFUBO378+EAntI0pKhaQyXovjAvOnDmT2K5bt24FXT0BNa0QQGJl/6uwefPmoDHRa//48UOVVage2Y8SD2BSOnfuXKAXellVsIpyUwcZH4eQU/BUf/36VdQt9nfeaMTzwoULseuneePnz5+9pk2bBo25adMmI+LFtwJ8qkIYk5EPV65cqcIip06qIDt//rxXqVKlwAgYg7GV7pMMgNavXz/Ed8CAATnGZuEHDPCpEZs3b25MJfSIxBel6isYoCc+mHB9//5dW8fUQHb9+nWvZs2agQEwpKioyDM1ZcZglZxD5f79+7UdZJLB79+/Q73YggULjLBHLJFspvLIkSNKvNHT1qlTJ+CHEIsupQKye/fueZhBkQNQoud5+vSprv5B/UOHDoX4Q0aHDh2C61n4sHv37pCO8IsJEl+VsP3ly5fKrGfOnBno2apVK+/Pnz/KvFDROsjQ3SKwygGGz1u3btVSXFZZlKHrbJkMnd/69u0b+KF37946rEJ1hw0bFvCFzXigdejGjRshfrptZR1k8+bNCykMJwwcOFDHB3nriq9jyLp06VLe+9O8cPXq1ZAf5s+fb0y8OB4dN26cNu+6desG+g4dOlSLn1WQIVSBhuZ/5cqV8xB2sEGtW7cOyYLcHTt22BCVmCeWyrgfjh07lpiHrAKW1DhffMbari7x3hErLTpkFWS9evXKcYDJIJ9oeOfOnXPkmewxRHlJvvfr1y+k25cvX5JUz3svXmUiyG7fvp33/rgX1q5dG+KLV6gqWQMZFq5F4/EdC+C2CCEBUeaQIUNsiUvEl098MEY1RVjh4Db36NHDCOtHjx6F+OrEzKyADCk63KnkBFMOyOdF2ZgM3X5xEyLn5AOUY8eOTawS7ECSgOyP85Zdx28PHjxILJOPy/r375+4PlWwAjLEp7jh9BldsE0qW7Zsjlybr+e4tohj0+XLl8et6t8n1id/JilPnTqVSCZuHjNmTODP6tWrJ65PFayADNF20QFlypTRWjoihfOVsgEwdEAKUXETj6JDp6NHjyZSCTEvWQ8l+hjpOrL78JsKrVixItSOCPqqkHGQ5Wts22OjfL2nzTFgXIfz4CaAYSoIPWHChBAITOeCbdmyJcQf684qZBxk4lSdnrbTp0+r6Be7zqxZs0IOIbnfvn2LzcPWjSNGjAjpZkpOo0aNQnxnzJhhirXPB28B8iPKXbt2KfE3DrL27duHFINySKO2TXglcIfgs8kFaB39eWgFrzQThORN0d49e/aYYB3wQOoVl6E6pjYOMsr25MrhibNJ4uyNZCMJT4XQWNhgYYr4TBszYBN0/PjxEAAQ5H779q0J1gGPmzdvhmQsWrQouJbkg3GQwVhqZCpVB55xDREH1iQXSXhJCLM4Ps5JUrfQvXzWa+qBmz17dsjPHTt2LKSC0jWMHcmXKFWzjo2CDGkiXCn6jKmwTcKkgmRRGTUIBqDwOtiwYYPvPNnqhAmdsRuIdEKJpS8TBFBxvphcmKb379+HZIwaNUpJhFGQPXnyJKQUOQGL5LYI+WjVqlXLkRuVcSqmx9SoUcOf/pPOKE0QZrecZ6dOnbTZIvWG88TnpL12HCUQVOdykEWiQkZBli9oGNXgKopTHREscAqS7tCrFiLUQxwI4y/oDRJ5Faof9xo2zPKGMgEymZ/j6pPkvhIFMtX4SpRD0IvxLE5qTNVXhw2Qia8cE69LZNSSrShtjXlF3TPxupQ9YXCCyi6kKIDhuggKyEJaiso6nYxfHB3i3FO6dOkAFCYG/sj45SCDH2xQJgf+2BDCjafPe/fuNe4DLLXIejGdZSQRtKaU5mEd3RAGMo3Jr1TS696UvsQnsyEMMW8KjsAMzjQh+5OcTKVqHId0swUy3vPoBmOx7kn2Ukn6my4zG4xdvXp1jhOiuvOzZ8/6rz4srGPXEbbMFyJsXCUHU6mbIgx5tkAmnvFRyLaoa1OnTg3ZHjUegz8RU1OhzC4ribMpgKBx48Z5bRQblkCDoKiM8Jqke6hs0aKF7NbEv4m6JGaQp4KYWKhzChH2QpLdKAG6fERZs6p7UDO7QA6DZXsgZYN/5CjBUdiYinEbxhb4o42qYg8oAxjqmyJbIOPHQ0Ff1SOiXr16FQIYeBUKD9GRUKryxFQf1bRuo3EyamxZbyaeT0EnC8q6e5zmU7Vq1dDUHEdDwan8r2vXriTSSGkLZDjBh+uN1HQVks3e8w36adii2otBP34AC/RX3elvBWRQUIzlQEk6n+LTp0++0ytWrOi9fv1a6m9KfMRFZJLyRsJn02ktkGMLZOCNFQWyAT29CslAJjsUhR+cIjt+K65snkqks5fTGshgiOy1iS6XttW3bds2r7206C2bRSY5XiqvAMkFmyDjOWWy3luiTs5PMpCJxzzwSVHUBCpHAPtBHJroJJ1aBRl0Hj58ePAE05M8ZcoU/zdM52GMSHg6CWRUByV6t3yvB5GHynebIMNeSLJFJ7+O592DH8UgsYzG9deJF8J3WG4jfVHqANY6yKDwvn37PFkyI5THE44FdMzA8LTQoJ8biB7PdEKeDIS8kSDfJKEH5zap7mPEzBQ9IefFvzds2NDD8Zy6RB0BydF57aYCMhj89+9f/xBhvs2KDChUxn214MAV3e1vNkEGH/DIv2qWKfhg4Rr1ObgQ8IX+2C9pgvjDjuO9dCg1kJGSP3/+9MdkBw8e9JYuXepvu+rTp4+fLAgnoVum4CyBj+oWKrt06eLpngFhG2SYYZNNug8E+QJjMtPHzaPXIj1R6h76nDrIyDlRJW/wqDgPRaZlsbgoOfw6lwnnmia8xqjxMB7NN7M2LTcpP+wWJz0xq1QNXZDcEgGyQjlYFN5AT6ZLtkEG/bD8RQ1o4oA5XZtl9flRXyYO6isRIEOjIByCwTKyENADIEeNj0lwbqwupQEy9MoEsqgUcV17VOofPnw40A96mhjjZRZkOPOUGiOqxPlcOgcbU2OkATLI4v+DIGooQLqlVfKeVjVoLOqaWZDxJz4KZKrLNNwZiNeJIDN1hhiXg888BqWz7CPy1f1OQXLyt6n/tZRZkIkzHDJcLFWn17Louchb/B43nBKnsXncEHsos0Bz584N3h544ExRZkGGWBACi2JD8++I5agGCQEygIb+sCUOOexYE8Vgd9KkSR7OwqfrVJpyPORXqFDBtw8xLpyMXZx05coVD2vJ8C8ST01SZkEGI3FMOAcV/4weTBVgJh2ow4tnlpjsOZLqhA0jNKPE0Q6ypb6kPPn9mQYZFIXzEaytUqWKV6tWLa+ofZG/csCNKMmfcdwoPTxJj5QyZTct3mNN9eLFi6bYBnwyD7JA0//xB5y8CKAhtebFixepWop9EQRy1f9iEqWwA1mUh1K6TmEN7AdIi5DBYRtgsMWBLK0WjSGHQijTp0+Pcbf+LQQwZNHaJAcym951vH0POJA5IFj3gAOZdRc7AQ5kDgPWPeBAZt3FToADmcOAdQ84kFl3sRPgQOYwYN0DDmTWXewE/Askb5HsYB136gAAAABJRU5ErkJggg==;" parent="1" vertex="1">
          <mxGeometry x="811.15" y="710" width="58.85" height="30" as="geometry" />
        </mxCell>
        <mxCell id="Buyr_fSm4l3yDwF7n2vT-51" value="" style="shape=image;verticalLabelPosition=bottom;labelBackgroundColor=#ffffff;verticalAlign=top;aspect=fixed;imageAspect=0;image=data:image/png,iVBORw0KGgoAAAANSUhEUgAAAJ8AAABQCAYAAAAHpaeBAAANGElEQVR4Ae1dhesVSxR+/5PYDbbYLXZhi91iYIJdKHYndnd3YxcqYis2irKP7/LOMjt3ZmNi997HHPgxe3d3zjlz5tuJM2fm94/nyFkgIwv8k5FcJ9ZZwHPgcyDIzAIOfJmZ3gl24HMYyMwCDnyZmd4JduBzGMjMAg58mZneCXbgcxjIzAIOfJmZ3gl24HMYyMwCDnyZmd4JduBzGMjMAg58mZneCXbgcxjIzAIOfJmZPp7gRYsWeSVKlPAmTJgQL4PmW5CFP8i1TQ58ti2swX/UqFE5IAAMz58/1+AUPyuBHTLXr18fP6PCm0UHvl+/fnn379/3Dhw4kPs6YSz8bdy40Xvz5o2CCQozCwuCd+/eparkiBEjfNDfuXPHmuyiAN/du3e92bNne61atfLKli3rG4a6CDbt1q2bt3r1au/Zs2fWjGab8bp16/wynjx50ra4PP4fPnzw2rRp4+tgC/wFDT60boMGDfKNQCCrWLGi16hRIw9Aq1mzZt5zem/btm15hi30GydOnPDLs3jx4szUvXbtmgc7w5Zdu3a1okdBgu/y5cs5YBGIkDZv3jzXvT5+/DjPEOhuUWk9evTwK47yLl26NO/9Qr3x8OFDr06dOrky1KtXz/v48WOmqm7fvt2358SJE43rUnDgY8c6BKAFCxbELvjOnTu9Jk2a+EYDj6lTp8bOn+WLAwcO9PVeuXKlMVXwMasCedy4cb5OqBuTVDDgE7V2GHecOXMmcXlv3brldxkE4LRcFYmV/S/D5s2b/UpGK//jxw9VVoF8VH6k+DCT0rlz53y90CqrglgktyDAx45zyFhoBb5+/SrSOdY9tjKJ54ULF2LlTfulz58/e40bN/YredOmTUZU4HsR2FSFMOYjG65YsUKFhTBP5uA7f/68V6FCBb9wKCTGbrpfPoBbt27dAN/+/fsLjZD1TUwsqHKbNm1qTB20oMQXqWpXjo+B+GCi9/37dyM6Zgq+69eve9WrV/cLhgK2a9fOMzW1xyCZjEbp/v37jRjOFJPfv38HWr358+cbYQ1fKJWZ0iNHjijxRstcq1Ytnx9cQSYoM/Ddu3fPw4yODIMULdXTp09NlCvH49ChQwH+kNG+fXtj/E0w2r17d0BH2MUE8V0uyv7y5Utl1jNmzPD1bNGihffnzx9lXpQxE/Ch2YbDmAUerrdu3Up6GUt5GbqVYEyx/xj16dPHt0OvXr2MsR86dKjPF2XGh65DN27cCPAzUVeZgG/u3LmBgsA4AwYM0LGNNC/frUPWpUuXpO+n+eDq1asBO8ybN8+YeH68O3bsWG3etWvX9vUdMmSINr/UwQeXCgDA/pUpU8aDe8QGtWzZMiALcnfs2GFDVGKeWDJk7XDs2LHEPEQZsLTI8sU11r51iW1NsbKkS6mDr2fPnnmGMe28ZI3SqVOnPHkmWxhWVtLrvn37BnT78uVLUhbC99El8uC7ffu28N0kN9euXRvgi65Yh1IFHxb8eaPgNwIHbBFcF7zMwYMH2xKXiC874cIY2BRhRYctc/fu3Y2wfvToUYCvrs8vNfAhFIo1NhnHlGFk1hWN+dB9ZE1YKSAbIB0zZkxilVAOBFeI/ljeoue49+DBg8Qy2XFfv379EudnM6QGPvjXWIPQNZpym1S6dOk8uTa7+bhl4ce+y5Yti5s19x6fn+yZJD116lQimXh59OjRvj2rVq2aOD+bITXwYXWBN0ypUqW0ltDYgoiuRQNv6IBQrayJXTWATkePHk2kEnx2ohaNtzHCokTv4Z4KLV++PFCPcGarUirgk4HA9thL1traHGPGrQjWaQvAmHKujx8/PgAO07F4W7ZsCfDHurwqpQI+3qVAX+fp06dV9Y6Vb+bMmQFDkdxv377Fym/zpeHDhwd0MyWrQYMGAb7Tp083xTrHB70G2RHprl27lPmnAr62bdsGFIbSCIe3TehaWEPh2uTCvY7+rAsIXaMJQlAtX949e/aYYO3zQIgbK0NnzJ4K+Cg6l1UaX6hN4meTJBvBkXEI0TZwzCI4Af44tN7wn5kKy2Jn/piRm6Djx48HgAHn/du3b02w9nncvHkzIGPhwoX+s6QXqYAPRqDKp1R1wBu3gPyAnuQiODKK2N1blI9Np0yZol2p7Czc1Ic4a9asgJ07dOgQVdTEzzE2ZW2hEyVuHXwIx2GVpWtM2W0SJjMki9I4g296F343moHCrcFHiQAwqjvLsDuM5CDFEqAJAthYvpjUmKb3798HZIwcOVJZhHXwPXnyJKAsGQfBBbYI8YBVqlTJkxsVIYzNRtBP5gfEeKdhw4Y+X8S4qWzmxmyb7IC0Y8eO2qZAiBPLE9dxWvmkgrFYwMpBVI4qWQefzBkaBQTVAiEf30rBWAAKWmEZ0V6FqOEAv26qYnxsxGYr0AT4RHaWlVXn/v8CfDr+oTDjodVjo26pkqO6IKww0LuVK1f2EIgqI3ZDNfIkbf34rstEt4sIaNIfadRHJCtb1H1e94LudkVfJIyjsistyjB4Lmr1EP4TtY7J+93CWiM2tEi1LCVLlvTBYmLCgQhtFnyyoUMcG4a9U1QTDmwEYo1C13v37g0ro9IzLDmJWr04y2m8Qxqtm4zguKVyIN2wYYPsVel91v2k62pBZDirD67x0dugonO18HFrqhUWZUxE6/KVENcPhRko+d6wYL5v3z6puEmTJgXkqDhy2ZZK18mMWTlfbqnymg+Kzsm8atWqPONEdQtnz57NdaEISICjF0c3hBE2RPMVoBLqHafFQJfMynrx4kWYasJn/Bk0wpdi3oTfkdUnarwHe8InqEJFt7zGz+5gKLgsZCQatyEPFs1FhO6WNT6umzVrJnpV+x4mNHSADuRgb6wK8QGfOqdqYS8tW36AUUY0W1fdw1x0gQUwhGgPrWjSgS6PKhXjQrRE+KMN0HyLKQIe8tsi/sNYs2aNkij2GDToq+qwfvXqVQB44BXmxqKZuqo8PqRKJzzfup+PakbU+vHnp9BJnKJuA6dTwQXCPsMRaDA2+9elSxcSaSWljwAydbY64kQqVm9sMVAhfJgsH1zLhg40/FFt9aAfe3AQZOmcLJEa+KA474uC8rRQ/+nTp5wRy5cv771+/VpYDxSQioesX46Mbzp8iFcCx02QLKRXrlzhX0n0u1q1aj4/9AwqJAKf6DAfcqJDb9Exc3Flwy1ENsAETYdSBR8UFXW/aLrpeIfWrVtLy0PBAqJZbZJj1KQCQh7wpx/IWpcQFnmPWN8i26LnvRhyQwQ+/rgRdjIWNXELEZU78YCAh1Q3GDh18KFww4YN878eKszkyZNz9zCYxziOJ3zNBD7KgxStoQkg8PLY3/gw2LVi9pnONUK2qCw68Y3svgrwIx8qlhPZMWocf2dYeeBSIn2R6gAZcjIBHwTDjyYKMkWh0CIg8AAzQnxd7DiLCo8WUsW/FmZc2TM6tBHdpElCi0/lQaq6DxYzZbScLC/2d/369T0cc6tL1ECQHJ3uG7pkBj4I//v3b+7wbnY7HhUsLI3bRaGr1N0mSV28Lh9ZxbMrHTpRwVjwR34WdHBko+XDflsTxDYCOMZOlzIFHyn/8+fP3Jjv4MGD3pIlS3Lb83r37p3z68F4aN7J6UygpLxhaefOnT2dM0qwbAZ5MuBhkgT9dA7uxoyfyiSTE1ZG0TOM+Uz/Wwi0cqQnUhOHrRcE+EQGFN1jxy9RfiryxIt8iSLe/D3yw4WBF+cLoiJ0xpzoDqlSMd6VzfR5/dL+jdMJSE/McnVcLKR70YIvLOqE3DBo+VSIQB51kicOHEKF6KxOQD8sA1LFmjp4UaXcYXnYI+1MHWBZtOBDZcFtg0E6ojrQYiBGkB3z4FzmpEQtZpxTnWiWqXtMLFpxAl+cUP+kZdJ9//Dhw75+0NPUGLKowMc7eanCRCnOp0t6oDhi/hCSBQBH/dHgWzcihYDB/g+RqCEF5UkrZVtmVWe4SNeiAh/bQogAx95LulyFATUBiuUTdW0iEBQVw/rQdJa/RJWsc4+c/2QHk/+LrajAx8+4yCB8quIGYLtrnl/Y77CxZ9JKZ/2e2INbCDRnzhy/y8VY2CQVFfjgy4LDNAwMaL1UnJ9R3azsuckKway5XLlyufLBR4eT6rMkrF1jrR32RkCwaSoq8KHwOM5fBj60eCrAM21UHX5spI5JYCfVCRuFaIaLI0ZES55JefLvFx34UABUCpzQlSpV8mrUqOG1a9sut1LCF65Yf+PYXvrAaON62mWhoAesOV+8eNGK+KIEnxVLFBhTnJgAAGJCoxKmr1Mc7Hsh8Ef5OnXkOPDpWM9yXnK/YL9HWoSImDSAh/I48KVVq4pyMMQAGKZNm6bIIVk2Ah6inm2TA59tCzv+Ugs48ElN4x7YtoADn20LO/5SCzjwSU3jHti2gAOfbQs7/lILOPBJTeMe2LaAA59tCzv+Ugs48ElN4x7YtoADn20LO/5SCzjwSU3jHti2gAOfbQs7/lIL/AvEMGJAWXdK3QAAAABJRU5ErkJggg==;" parent="1" vertex="1">
          <mxGeometry x="820.19" y="820" width="59.63" height="30" as="geometry" />
        </mxCell>
        <mxCell id="Buyr_fSm4l3yDwF7n2vT-52" value="" style="shape=image;verticalLabelPosition=bottom;labelBackgroundColor=#ffffff;verticalAlign=top;aspect=fixed;imageAspect=0;image=data:image/png,iVBORw0KGgoAAAANSUhEUgAAAJkAAABWCAYAAADc4jTbAAANcElEQVR4Ae1dBa8UOxTmPxHcE5zgbhcnOMGdIEET3IJbcAjucHF3CG4BQnAIHghkXr557zRneju7M512d+5Lm9x0dnd6zunXbyqnZ3pLeC45BCwjUMKyfCfeIeA5kjkSWEfAkcw6xE6BI5njgHUEHMmsQ+wUOJI5DlhHwJHMOsROgSOZ44B1BBzJrEPsFDiSOQ5YR8CRzDrEToEjmeOAdQQcyaxD7BQ4kjkOWEfAkcw6xE6BI1nKOLB48WKvZMmS3sSJE3NiGXThD3ptJUcyW8hqyB09erTf4Gj058+fa0iIX4RIDZ0bNmyILyBCidST7NevX979+/e9gwcP+k8bQMHfpk2bvDdv3kSoYvG4hTf2u3fvcmr0yJEjBbnv3LljXHcqSXb37l1vzpw5XuvWrb1y5coJAKhr53n37t29tWvXes+ePTMOTq4Erl+/XtTx5MmTuVIr9Hz48MFr166dsME0yVNFMvRWgwcPFpUlMlWqVMlr3LixB0LVqlWryO903/bt2wVwxeXixIkToj5LlizJm9nXrl3zgDOw7Natm1E7UkGyy5cv+wQisiBv0aKFPyw+fvy4SIUxTKJxevbsKRqIyi5fvrzI/Wn94uHDh17dunX9OtSvX9/7+PFjXk3dsWOHwHPSpEnGbMk7yfhchIiycOHCyBXctWuX17RpUwEOZEybNi1y+XzeOGjQIGH36tWrjZmCh1aXsOPHjxc2oW1MpLyRTNV7YV5w5syZ2PW6deuW6OqJqLlyAcQ29r8CW7ZsEY2JXvvHjx+6ogLlqP7I8QDGTefOnRN2oZfVJSvXmxeS8XkIgYKn+uvXr9y2WNe80UjmhQsXYsnI1c2fP3/2mjRpIhpz8+bNRlTLowIw1UmYkxGGq1at0hERKJNzkp0/f96rWLGiqAQqg7lV0icZBK1Xr15A7oABAwKVTcsHTPCpEZs1a2bMLPSIJBe57hAM0pMcLLi+f/+eyMackuz69etejRo1RAVQkYKCAs/UkhmTVQKH8gMHDiQCyHTh379/B3qxBQsWGFEBXyLVmfKjR49qyUZPW7t2bSEPLpYkKWcku3fvnocVFAGAHD3P06dPk9gfKHv48OGAfOjo0KFD4J58f9izZ0/ARuBiIslDJer+8uVLbdEzZ84UdrZs2dL78+ePtqyckAzdLRyrnGC43rZtm7bhYQVlHUnBDtOj+33fvn0FDr1799YVU6TcsGHDhFzUGQ90knTjxo2AvCRtlROSzZs3L2AwQBg4cGASDELLysMxdF26dCn0/lz+cPXq1QAO8+fPN6Zeno+OGzcusew6deoIe4cOHaotzzrJ4KpAQ/O/smXLenA72EitWrUK6ILenTt32lAVWya2yjgOx44diy1DVQBbalwurrG3mzTx3hE7LbrJOsl69epVBABTTj5VpTt37lxEn8keQ6Uz6nf9+vUL2Pbly5eoRTPeh6FMJtnt27czlony47p16wJyMYTqJKskw8a1XHl8xga4rQSXgKxzyJAhttTFkssXPpijmkrY4eB17tGjhxHRjx49CsjV9ZlZIxlCdDioBIIpAMJQVM3J0O3nO8FzThggHzt2bGyTUA8ECaj+uGzV7/juwYMHsXXyeVn//v1jl0cBaySDf4pXnK7RBdtMZcqUKaLX5vActS7y3HTFihVRi/r3yeUJzzj5qVOnYunEzWPGjBF4VqtWLXZ5FLBGMnjbZQBKly6daOsoWw1VE2DYgBCifCfuRYdNhYWFsUyCz0vVQ8kYI1xHdR++00krV64MtCOcvnGTFZKFNbbtuVFY72lzDhgVcO7cBDFMOaEnTJgQIIHpWLCtW7cG5GPfOW6yQjJ5qU5P2+nTp+PaF+v+WbNmBQAhvd++fYslx8bNI0aMCNhmSkfDhg0DcmfMmGFKtC8HowDhiHz37t2x5VshWfv27QOGwTiEUdtOGBI4ILg2uQGdxH7uWsGQZiIheFOu7969e02IFjIQesV16MyprZCMoj25cXjibCZ59Ua6EYQXJWFTGJGh2GSnOQ2GIjzJ+C1p4ittrIBNpOPHjwcIACf327dvTYgWMm7evBnQsWjRIvFb1AsrJENlqZEp1514Rq2IPLEmvQjCy5b27dvnh3ujDE2cqTxyPCBxJ+qyTr7qNfXAzZ49O4Bzx44dZbWJP2PuyLHQiTo2TjI89dwousZS2GbCooJ0UR5lErxmzRq/HOZM3KONesh7rrrBhXgbiGxCjq0vEwmk4nKxuDCd3r9/H9AxatSo2CqMk+zJkycBowgENJithHi0qlWrFtGbjRT79+/3y2BnImxI7NOnj5CLHkgnHBmrW8IBeadOnRJDgdAbLhPXUXrtuIrhVOd6EEUSNxknWZjTMFuDxzWc36+KpULQXRhxqCx/qRVAqt6MkmVj3hY34YVZ3lAmSKbCOa5dUe4vViTT8a9EAQG9GI/ipMaMMnTAg033I1ftDMiNqbNFJQ85JoZLRNRy223NeWXbUzFcyo1CQOi8hRSFZHJPA30IS4myTyfvSsB2OcnRtjivQieVKlVKkMLExB8Rv4QtctUDomOnXCaVE3+8EMIrT9dYwZlO2GpR9WJRt5Hw1jR6AGwCh/l/+BECqItu2BB36yR1YSDSmHClXPWAmMA7tS4MOW4KQGzcuNFEnQMyEP1JIFOu48cJCJU+yNs2ugeS8J4nqTMW7hSqL+WS2cY+ptYZS24BAgB5tu787Nmz/j0YwuAQzTbBxourXD6uk4QIq1oFNnEdSV7dl8/4UOmL+t3UqVMDdmWbj8Fu+NR0Umq3leTVFBqqUaNGoXVUzatQBr2IKmGY5I2P6+bNm6tu1f4OK03+HqPOhJ8rlwMLk5xChHchef1BurBEUbO676CmdoMcFcbTw4HAtWryTys8NCjmbZhb4I8aWO4BVQSDbBOp8GihHxuPRqtevbpvP+Z8sg06uuS5ne4RUa9evSqCayb3EB0JpatPDvXRCes27iejBlD1ZvL5FHSyoKq7R09SpUoVf2JOMnE0lEzcrl270s+JcnkVSXqSvArGDcIJPiQTORzAOgkPIJeD67BJP01bdHsx2McPYIEunTf9rZEMBsq+HBhJ51N8+vTJB6tChQre69evlXiTiwE/IpJUBtd0WAu8+dSTglywDTrRG5ggG/WOkKk7v1ORTLULwQ9OUTmZlYArvoS7hXDXfZfTKslgs2rYRJdLr9W3adNGUbV/v8IwgAqqVpFxjpcKVZDlBzwQ3PWQdNjkMWWq3juLOf7PKpLJxzzwRVG2BVQmnfLURDfo1DrJUInhw4eLp4GeiilTpvjfYTmPysgJTyeRjMogR+8WNjzIMkx8xvkdXH8SouFdSJKVJL6Ox91DHvkgsY0G+0hHVH9hGE6ITSNZyHUJmxOSoRLYjFYFM8J4POHYQMcKDE8LTfp5BdHjmQ7ICwOXf4+G43bgWjd0Gj04l8WjPrjObNdYmaIn5LL45wYNGnhwNCdN1BGQHt1hN2ckQ4X//v3rT3j5a1ZUgUx51KEFk/ekrgZVw/CAQ9iZhOx8+A3bZVDZIH+HjWuU5+SCwxc9Gd6XNJH4w47jvXRTTklGRv78+dOfkx06dMhbtmyZ/9oVQmrgFwNI6JbJOUvko7KZ8i5duvjzt0z30G80HKORsm3e84aEPWH+O5KdKccKm+pk6oHAnMz0cfPotchO5EkOfc4LyTI1Av+Nzy+y+XnIM63yxXGZdI1egIOYab7Rtm3bwL0IEdJNGMZIL+ajYStrXfmmyuFtcbITPbmO64JsKTYkyxSDRe4N9GRRk+w1z9SrcNcDgNc9wZBsw/YXNWDSA+ZIpumcH/WV9KC+YkMyNArcIZgsIwoBPQCGOT6U4dzYqImDCNmQo0qqqJJsw6tKDv8OvTKRLEqIOC+bi+sjR44I+2Bn0jleqkmGHoMaI1uO87niHGw8efJkIRsT3DC3iLwixClFJhL/HwTZpgIm9MWRwXtaXacx15dqkvEnPhvJ4m7TYNuLYtGWLl3KMQlcYxjluk29KMx9UEm2fQLGGvhATnKqs25oEzcl1SSTVzhUcTnXXV7zUB7sgWLriEDFAoITDD0l9h9NJu43xDuUaUhz584VDxUWXiZSqkkGXxAcizKp+GcMdbpOQgAIUqm2vrgO3XO5sjUQhujy5cv79YOPCydj5zNduXJF7Nci8NRUSjXJUEkcE84bnF+jB0tCMA4iyAZnLray8ARjqwZHjmZ744nL0LnmkSWmeg4dO/DCCC2GcLSDaqtPRy7KpJ5kMBLgw1lbuXJlr2bNml5B+wLtUBldoGyWw3sD9PAkfVNd107avMee6sWLF3XFKMsVC5IpLf+ffYmTF0E0hNa8ePEip7XDexFE8qQ+QJXhjmQqVPL0Hbk18D5ArhKmBTYJhno4kuWqNSPqwdQAjT59+vSIJZLdRgRDFK2t5EhmC1knVyDgSCagcBe2EHAks4WskysQcCQTULgLWwg4ktlC1skVCDiSCSjchS0EHMlsIevkCgQcyQQU7sIWAo5ktpB1cgUCjmQCCndhCwFHMlvIOrkCAUcyAYW7sIWAI5ktZJ1cgYAjmYDCXdhCwJHMFrJOrkDAkUxA4S5sIfAPHQIv4JMk2ewAAAAASUVORK5CYII=;" parent="1" vertex="1">
          <mxGeometry x="781.6600000000001" y="928.14" width="56.68" height="31.86" as="geometry" />
        </mxCell>
        <mxCell id="Buyr_fSm4l3yDwF7n2vT-56" value="" style="strokeWidth=2;html=1;shape=mxgraph.flowchart.database;whiteSpace=wrap;fontSize=17;direction=south;fillColor=#dae8fc;strokeColor=#6c8ebf;" parent="1" vertex="1">
          <mxGeometry x="905" y="960" width="50" height="60" as="geometry" />
        </mxCell>
        <mxCell id="Buyr_fSm4l3yDwF7n2vT-58" value="" style="shape=image;verticalLabelPosition=bottom;labelBackgroundColor=#ffffff;verticalAlign=top;aspect=fixed;imageAspect=0;image=data:image/png,iVBORw0KGgoAAAANSUhEUgAAATQAAABcCAYAAADgUUkcAAARvklEQVR4Ae1dh+8cNRPlf0ICAoQeikJHdBKIqKG30EEEgWgBAggQVaKKHhJRhRJETxAgaoAgEhRAdAEBEQig/fTu+81qdm53b+2193fnfSOddm/L2H6239pje7xZRiECRIAIJILAZomkg8kgAkSACGQkNBYCIkAEkkGAhJZMVjIhRIAIkNBYBogAEUgGARJaMlnJhBABIkBCYxkgAkQgGQRIaMlkJRNCBIgACY1lgAgQgWQQIKElk5VMCBEgAiQ0lgEiQASSQYCElkxWMiFEgAiQ0FgGiAARSAYBEloyWcmEEAEiQEJjGSACRCAZBEhoyWQlE0IEiAAJjWWACBCBZBAgoSWTlUwIESACJDSWASJABJJBgISWTFZWJ+Tcc8/NNt988+z222+vfijQnR9//HEQ1nHHHRdII9UQgeYIkNCaYzWRT4LIuiIzAWjx4sWDMBEuhQh0iQAJrUu0Ow5LyOzss8/uOOQsO+mkkwakNnfu3M7DZoD9RSAaoaF74/t75JFHshdeeCFbuXJl9vbbb2erV6/ONm7c2N9c8kj5zJkzB4Syzz77ZF999ZWHhnavrFmzJps1a9YgDldffXU7ZXy7MQJPPPFEhhbyxRdfPPiooOuP3x577DHIiy7MDo0jG+HBKIR2zTXXDMCTFkKo42GHHZbdcsst2dq1ayNAkY5KFGDBfMWKFdOWsGeeeSaPx7333jtt8ehLwNddd12Ot+S/Pb700ktJwxGF0MQIbcEM9X+rrbbKrr/++uzvv/9OOnN8EnfDDTfkhfqCCy7wURH0HW1PW7JkSVDdVFZEQH/Iqurahg0bii8l9i8KoQlGmzZtyr755pvs/fffH3Q/LcggvmXLlmXr16+XVwpHdJUef/zxbOHChdns2bPziip6jj766OyLL74ovNPnP+iaCzY4fvjhh0Hg+OyzzwZdf19lhxxySB6vV155xVcN33NAAKYaXRZwfuihhzpomMxHoxKahuSss84aAtilP//7779njz322JCOgw46iKQ2BTSIXwrxokWLNPze5y+++GK2ww47DPTutddegw+UqzJ0NyVeZ5xxhuvrfN4TAcFcjuiSpi6dEZpUCgEXxzfeeMMZ35NPPjmvHKLr2muvddaT2gsgHsEDxni0jEPIEUcckeuF/kcffdRZ7ffff5/tuOOOuR620pwhdH7h448/zvGWcpG6/QwgdUJo6LIIqPr4xx9/OGcUuqBaB85RWb777jtnXSm9MGfOnBwX2NFCCEwFFmuMXvqIHihiK80HQbd37r777qG8S91+BoQ6IbQHH3xwCNyDDz7YLYemni6zDaDSPfzww176UngJX15NPCCiEHLjjTcW9CKMv/76y0s17Hk6jmylecHY+CU7QNAH+xnA6YTQ8EXWhRnnV155ZePM0Q8uXbp0SBf0wUbXVznvvPNyTE444YRgMOhWHzDGIEwbWbBgQR5PttLaIDn63S222CLHGnnXB/sZUOmE0LbZZpsCuAD4ueeeG50rJU9gHhret7/LLrus5On0L9nu/P333x8s0dtuu20B5/vuu6+Vbkz61PnmY0NtFYGevPzBBx8UcAbmfbCfIXujE1qZHQYAf/vtt17F6/zzzx/KLOjD6oI+yk033VTAA13yELJu3bqCXmAMQ3MbsYbq2267rY06vluBAD48yC/987FXV6gf68vRCe2uu+4qAAuQfbsuv/zyS76EQ2cWlvl8+umnYw10rMjpOV7AIZQ8/fTThXw74IADgqjeZZddcr3z588PopNKigiceeaZOcaoJzAd9EWiE5o1TgLgm2++2Qvfsi8P9N1zzz1e+ib9pR9++KFQcIF1KMH6S/3RuOKKK4KolkXr0D1jxgzvQYYgkUlUiZ0ihcGdvkh0Qttyyy0LFQMF+dVXX3XG999//80wiVZXMpz32bgMHDUeLhOVR2UAvGRo3RiMCSHWBvrmm2+GUEsdUwhYmyrysE+2yqiE9tFHHxUqBcDFnDHM+ncVVFZdweT8559/dlWVzPN33nlnARN4KHERLDsTHH2PLuHh2ddee60QJgiOEg6BsilS//zzT7gAxlxTVEIrAxdD965SRma77757sLWKrvEZl+dPOeWUAjng6+wiZbi6EJtP6xgfMx3Gscce6xJlPjsCAbvE8JhjjhnxRlq3oxKannckhRjrMZtK2aJ2EFnIrlXTuIzjc9ttt12BHFy9j2BEFFja32mnnVbQC+Kyz8h/H1zEV5uUCR8dfKccAWs/Qz71SaIS2m677VaoGCjAqERVP/T1n3rqqeyOO+4YspcJkcFnPSXLMAwvhIDj3nvvHQSW3377Ldt+++0LukNXCnE2KPFHmDFFyHccjjHTWWY/e/fdd2MGOXa6oxHa119/XagUUnhdj1iTBkeBJLJi2cHic41lqCkQy5cvL+hFGKGXKdnBnZgedUFiGqfpPsfk4lhiTTwYkOubRCO0siVKmFZQ9YNrmrLCdtVVV/UtTxql95NPPing5WPPKgsIS9J0PqBl/Ouvv5Y96n0N8xB1GG0n7NZFpKpbPV2ttbq4tr1n7WfwTNM3iUZoZTP6R43CoRWm3eBIoYdf/JAiX20U9q4EjijRMgk1V2zVqlUFUrjwwguDJMW2nkIRpY7c6aefXog7p25odPzPrf2srdtzKbOoL12K1E+fMKMR2s4771wotHCb3dRHVxmpwbutr8BDBNzewJcXCEWIMjahwQ8YwkArU2bIhyI0fBwkHThefvnlvvDk76Hrp3XiHCs9Qgs28NDhjPrQhQ4/RX1l9jOfli9MRTA7XHrppdlOO+00yKfYhIaRb0zxwgT5efPm5WXDJ5+iEBqWIekCi3NXLxBYbG51wJbWVEAkIA9rgNY6YxAawsRypK233noo/gg7FKFZ770hvCnoTU0EpxgY2VUIPk4jm5aDvjxn7WcYAW8qKJNomZdNgkc5iEFoUj/LBg6l7DWNv34uCqFpl8sSOdeFyNYzA/S4bIcGwPAOCA2sjy7ZQw89VCCZGJUVhQOFCQUE88RANLgmOIQiNOvAzxVfXQjkHC1JiSeOsJ9hhUZoufXWWwvhIC2UdghY+5mLO61RZTYWoY2qnz6IRCG0E088sVBgEXHX5Rd2Rjl0tN0wV0gOuvCLQWhlmRCD0OBdRNKBY4j1etgmUOts080vw0Gu6Z2pEN4DDzwgt3j0RMDaz9BiayO6zMYgtLK42fpZ9syoa1EITVcKOXeda1TWymvburGATTKhYb9NwRbHtqPBf/75Z0EfdLatFFWFz5oTsASL4o9Amf3MddWIDZ2ENoVImf8zfPldBXtK6gqL87bD0CkRmnVpfckll7hCXHgeI40Wb0wNiSF2BcnLL78cI5je6LT2M7TW2goJbQpBCy4qiY832f3222+ogvno0RmbEqFhUxhNQD5rZDU2sMFpfbA9xhIMEOmw3nvvvVhBDfQi38flFyOhbexnVfEhoU0hU7ZrOozxLoKJnLrAy3nbvnxKhPbff/8VMIKfsTZiSQZTK2KJtdWtXbs2VlCl8xqlPHV9hKeZGBLafoY4ktCmcqpsmsRbq95yyscqtzauxGgDTYnQkLZdd901JzXfXbQEI8wT1BW8zv8ZPix41nfQwK4KiekCav369YV06TR2fY6R79DSxH4mWwi6NAhIaFk2mDhbVkhcC6y1sYjOZUvbGY9TIzS9CTAIyVesr3/g/eWXX5aqw3XZNNh3jadtUfTJX1cpqC0uWhNPmf1MzDcuAwUktCzLlixZMvQ1xFwsV9FgCpnhuGL5ilJVmOGOrw+WatRJaoRmZ9w3XYlhMbKVAqs8qkTWerZZEqXzFK01ij8C1n526qmnFpRJmXddPqjroEvLrhC44x+Jq5QPx9cHjwedtlE2MumzAbAGUxKHY1XXFfPTcH/Uzk8WMPzvQnR6cB5K7ORj3zWR0oUUrKvISjscWLlypVcybGvQVkAvpT1+SZct5J+djyguz7GUyUW03q68Ctv6uWnTJpcoD54NRmirV68eap0BYB+3P3aeklS0MgLSlQxxqBMLWJm+uvd97+nCEZLQ7BKzUYReFX9LaFVfZPGT1maZFZY5SX6WVcCqOPJ6OQLYcEjjqfNuw4YNGXZMx31MVHcRXWYXL17s8qr3s7Z+Ym6kq3gRGgLGD4vIUUCxdMUuRheQATB+zz77bD50PiqSdha86LIEhG3t9t9//0GGNdmVyAJm9Y2Kl+99XThCEhriIyQDjFy/wpIerOIQjHG0cUSXXkYm27aoFi5cWAjLdQWJxJnH/yOADbt13gFfEdQJ3PPZxk6X2UWLFonKqEdbP10n4yNyXoSmjdEazKbnoxz6YRh/7pzirkPQDZC1nUimiGD0aJT9DIm1gKVAaCAYwR3GX1+xrWJ8hGATBUnKzve+LUAdJ+SVxBcDGX3ZAFdjEPIcbtc1+cAmiVkCyDfgDI8Z2EndVbRO2E27EFs/XQcTEUdnQrOBSuFseqyyz1jAwM7nLDgnL/xaPwhVRtqakhn027inQGhiIxF8NOFbTEf9R/dFt/hE57777jvwGjzq/VH3YX4QnThi7wJKewTg8geraDS2OEevyXckWhNa2wntTVNo6yfcb7mKM6G5BtD2eRiRYeg8/PDDMz1XCv7F0Lxu0jKTOFjAUiA06zL7+eefl+R6HeGbCm6EMHUGuIfECJVLVzqYISjhEMB+HKgTICPYOaum3jQJURNa22V1TcLDM7Z+gqhdZewJTScI85XQHfWtZBYwXz06Tk3OdeHAeUjBigEx/IIsurJ3+KQB3VghtAMPPDBD3CnjiYAus/A+3YXY+rlu3TrnYCeK0JxTZ16wgKVAaEgipsYIUcSYjW5g9PoLr8Houko8sUkyZXwR0ITWdp1w01Ta+vn55583fTV/joSWQzH6BCNyLrOtRaMuHKFbaAhj48aN+WgvCCP2Ym9Jl8tRT7qeMWNGhiVJlPFFQJfZpnZvSQ3s3z4uoSyhjZqGJeHpIwlNo1FzftRRR+WtC9c1jLpwxCA0RFv7j0PXbtxEY4C1hZTxRkDnl4vbLu3GHSOuLvPfLKHBFZmrkNAaIIa+vHSV5OjiB18XjliEBg8le+655yCemGaBSbfjIq+//nqOH7qdP/3007hEjfGoQECX2eOPP77iqeHLcNsudQRHl7mRltDeeeed4QBGXEma0JAp+qfnQAFs/Nf3cV4mFmi8W7W/AXZ9tzp1BuPc3g/VooJdSsLqypBbhpe9dtFFF+XxirnRrg2X/5sh4FNmUSfKRMqfHLFhUJXYemDrp72P/6MkaUITUF2OVYChm6SN2lWL7vVIXtNwQxEa1r7hayrhjsO0CN06w/xByvgh4FNmqwgNq4dQN1AGQUDY/axKpJw2Pfae0KqAbHsd0yTa+vBvG4eq9zGxdvbs2YMChS+ez/KRKt2u1zGPSFzXoNCC3Cj9QQCrGLBSoUtJuoUWC0jsX/jkk0/GUt9ar97XoatZ3mWRxuiYfH3Z1SxDKO1rcBzR1vGoK0IkNEfEMDcGlRSblIyz6BUE07Hvpd6qLlSXepzxZtyGEZg/f37WtS2XhDacD7VXsN7xyCOPrH1mXG5qryXwytCVoPUqLTOSWVeoj1c4sKWhDODD2qWQ0BzQxrZumBQ6SZVUnEDOmjUrW7NmjUNq/R7FxGNxsQ1PuJR+IjBv3rwM89C6tuGS0BzKmwwjO7wyFo/iawkS7qJwwVkApgFUjYKNBSCMRFQEZFMWn9UCbSNGQmuIIFYHzJw502vpU8Mg+BgRmHgE8CFDV3O6ejEktIZFCL684CGXQgSIQD0C00VmiBUJrT5veJcIEIEJQoCENkGZxagSASJQjwAJrR4f3iUCRGCCECChTVBmMapEgAjUI0BCq8eHd4kAEZggBEhoE5RZjCoRIAL1CJDQ6vHhXSJABCYIARLaBGUWo0oEiEA9AiS0enx4lwgQgQlCgIQ2QZnFqBIBIlCPAAmtHh/eJQJEYIIQIKFNUGYxqkSACNQjQEKrx4d3iQARmCAESGgTlFmMKhEgAvUIkNDq8eFdIkAEJggBEtoEZRajSgSIQD0CJLR6fHiXCBCBCULgf8D2eU5o0OR/AAAAAElFTkSuQmCC;" parent="1" vertex="1">
          <mxGeometry x="1010" y="754" width="120" height="35.84" as="geometry" />
        </mxCell>
        <mxCell id="Buyr_fSm4l3yDwF7n2vT-59" value="" style="shape=image;verticalLabelPosition=bottom;labelBackgroundColor=#ffffff;verticalAlign=top;aspect=fixed;imageAspect=0;image=data:image/png,iVBORw0KGgoAAAANSUhEUgAAAUEAAABWCAYAAABRqiSmAAATLklEQVR4Ae2dh+/cNBTH+Z8Qo5QNZZWNgBZo2aPsVTaIKVbZSxSoBGVTRiugVKhFbAoIMcsSLRQQW+xVQEGfK+948SW52HFy+V3ek07J3SXP9tf2N86z3/M6iYkhYAgYAh1GYJ0Ol92KbggYAoZAYiRojcAQMAQ6jYCRYKer3wpvCBgCRoLWBgwBQ6DTCBgJdrr6rfCGgCFgJGhtwBAwBDqNgJFgp6vfCm8IGAJGgtYGDAFDoNMIGAl2uvqt8IaAIWAkaG3AEDAEOo2AkWCnq98KbwgYAkaC1gYMAUOg0wgYCXa6+q3whoAhYCRobcAQMAQ6jYCRYKer3wpvCBgCRoLWBgwBQ6DTCBgJdrr6rfCGgCFgJNjRNnDqqacm6667bnLzzTfXjsA333zTS+uwww6rPS1LwBDwRcBI0BexMbge8muKAAWuq6++upcm6ZoYAm1CwEiwTbXRQF6EAE8++eQGUksncdRRR/WIcObMmek/7JshMEIEGiVBXr1CP/fdd1+yZMmS5KWXXkpeffXVZMWKFcnvv/8+QugmXtKbbLJJj4R22WWX5NNPP228AB988EEyZcqUXh4uvfTSxtPvaoIPPvhgwkj87LPPTngQYZbgs/322/fqogmTSJuxb4wEL7vssh7gMhKJddxnn32SG264IVm5cmWbcR553mj0gvmyZctGlp/HHnusn4/bb799ZPnoSsJXXHFFH2+pf/f41FNPdQWOzHI2RoJiiHcrINb3DTfcMLnyyiuTP//8M7OgXf7xqquu6neEM844Y+RQaPvgww8/PPL8jHMG9MMvr6/99NNP4wzB0LI1RoKSkzVr1iSff/558sYbb/Rejd2KgSwXLVqUrF69Wm5JHXmNW7BgQXLeeeclU6dO7Xdu0XPwwQcnH330UeqeLn/BbCDYcHzrrbeiwPH+++/3zBKhyqZNm9bP1zPPPBOqxu7zQAAzkm4LnE+fPt1Dw3he2jgJahhPOumkgUrxsU/8/PPPyQMPPDCgY6+99jIi/A9oHhbS8OfMmaPhDz5/8sknk80337ynd6edduo91HyV8Sos+TrhhBN8b7frAxEQzOXI63LXZaQkKB1JKoTjCy+84F0nRx99dL9Dia7LL7/cW8+43QBZCR5MSDACjyH77bdfXy/677//fm+1X331VbLFFlv09dho0BtC7xveeeedPt7SLrpuDwTEkZEgr1NSEfr4yy+/eFcur8daB+d0sC+//NJb1zjdMGPGjD4u2AVjCGYMF2tmfUNET5bZaDAEQb97brvttoG667o9EARHRoJ33XXXQIXsvffefrX639VZtg466r333hukbxxu4gmvyQryiiHXXHNNSi9p/PHHH0GqsU/qPNpoMAjG0je5kyRmD1wL3chIkCe/7gCcX3zxxaUrVF+4cOHCAV3ow+bYVTnttNP6mBxxxBHRYNCjSzBmIqqKzJ49u59PGw1WQXL4veuvv34fa+rO7IFrMRsZCU6ePDlVIVTK4sWLh9dkxhWsE+R+93P++ednXD3+P7mmhvnz50cr9MYbb5zC+Y477qikm4W8ut5CbMKVMtCRm998880UzmBu9sC1lT8SEsyyK1EpX3zxRVCTPP300wcqGH14mXRRrr322hQemAtiyKpVq1J6wRhjexVxjfU33XRTFXV2bw4CPKyoL/0Jsb/nqJ/QP4+EBG+99dZUZVAxoa9V33//fd/9R1cwLmLvvffehK6c0MzrNXjgEEseffTRVL3tscceUVRvvfXWfb2zZs2KotOUpBE48cQT+xjTTzBrmKxFYCQk6BpoqZTrrrsuqE6ynnDomzdvXpC+iX7T119/nWrsYB1L8PfVD5qLLrooimoJrIDuSZMmBU+0RMnMmCpxl6MxwWWyFoGRkOAGG2yQ6kw0/meffda7Tv7++++EhdG6Y3LeZQM7OGo8fBafD6sAor9o3UxIxRDXpvviiy/GUGs6/kPAtRFTh2Z7/b95NE6Cb7/9dqojUSGs6cP7w1fo4LpTyvl3333nq2psrr/llltSmBB5x0dwWRQcQ48+6XHtc889l0oTUjSJh0DWcrS//vorXgITXFPjJJhVISyT8JUsAtxuu+2i+cb65qct1x9zzDEpQmEU4CNZuPqQYcgonAegTuPQQw/1ybJdOwQB1z31kEMOGXJHt/5unAT1ujBp+Pj/lpWswAuQX8zXvrJ5aeN1m266aYpQfKPqMJMMlu7nuOOOS+mF7Nxr5HsILhLrUNpEiA67JxsB1x5IPZn8j0DjJLjtttumOhONno6X98F28cgjjyRz584dsP8J+bGHhUmSsORBSITjzjvvHAWWH3/8Mdlss81SumN3JAnwKfknzTpFCLsNxzrLmWUPfO211+pMcsLpbpQEP/vss1RHkgbve8QHkuCcRn7p9kaABI1lrOUmS5cuTekljdgubu4EV52RryE+jdOoz1kwXpe45icmJU3SCDRKglnubSzhyPsQpimrgV5yySXpUti3HgLvvvtuCq8Q+1wWlLgz6npgBP7DDz9kXRr8G+tEdRpVF2EXZSTvlX9Uo8KivFb9z7UHEnHJJI1AoySY5dkxbPaS0Z4OCSUdhX0yYoqMDuggdQrpgMNuu+2WYAc78MADkwsuuCCJEWF5+fLlKSI588wzoxTFHaXFIledueOPPz6Vd1smo9EJP3ftgVW3NCBgMe2Bdlyn0B+IhSlh20iTgMt4Q3344YdRk26UBLfaaqtUQyckftkYd1lECCihQuQTQkARC08v3q6LBNEr6TCSksoVUufI/7x6hgoPFK3vwgsvDFXVv4/XUq2Tczx+YgubAOl0hj0cY6c/jvqy7IEhI2zMWLTLc889N9lyyy179VQnCWLGkbZAP9EeRfJ7qHNFVj03RoK4sEkB5Ogb3YSACHKvHLENlhUhItcIL7o41kGC7JCHbkhbh/5nIoPGJQ1L8vH444+XLVLqOjfKdowoIXpjJMlfHRi53ighgVpTYNiXxLUHsnKgrPBAZvSV5dhAO6iLBHfYYYdeX2HQo32bCQDBW5O0QY4x2jd4NEaCOpy6FMTXWd6NOIIen60b6bzcAwkCKK+Ld999dwrY2B0c8ic9XMPyRK4RXFg8/sknn+Rdnvu7GzTTF98sxdhfJV8cGcXiqRNbbrzxxlQ6lMWkGgKuPdAntBwkCGlChKw9hXDkTYZ2UAcJygZcEGCWsMUuphjdHp9//vmsS71+a4wEjzzyyFTmKYiv647rWYCOqpuICzEKsLFJEP9adB900EGFo0z3qR1SLqLmSDk4xvAPZUtTrbOKCaKoZeod8UjvzjvvLLrc/iuBgGsPpI1VkTpJUJtdisKzuf111113DfI20zg0RoK6I8m571qwrNEkFVNFXFBjk6Br+ysKRa8XDDN69BX2ExZsOVadRf/tt99S+tBZtSPllck1deC+ZxKOQJY90Nd7yE29ThJ0227RA5wBgm7nDI6qSCMkmBU/kBGGr7Bnri4851Wn/OsmQTe/RaTNU01f77sO0g1Xf8455/hCnLqeGVqdH85ZhlOHuJ5ETz/9dB3JdEan+2bBqLCq1EmCvF67bS0vv+61VX3NGyFBt0IobEjUZ5aVuECF6NHg1k2C119/fSrPRdF8dSOjnL6jUjaW0viE+GRrbLApan0ho1Otr+icSTKd1uuvv150eeX/wLYtn8qFyVBQxR6Yoa73k26fsW2C7D6o67/I7OL22aKBRV5Z9O+NkCAF0gXknAkJH2FxrquD71UrwwWU7zGFJUAsLdhmm216MROLdvfSW1BSNl+/33/++SeFUdFkTJkyusTEMpa6xLU9rly5sq6kMtedZrWtJn6jzuuQ2PZA8lgnCaIfEwgOEvBF0cZg99xzT6qdV+WARkiQEYTboF5e/rJX3eeFePIlUzfRuknQTS/vOwtANUahTzfIVvSE7t4neWQdp+jiWBQ/UF5Rip7gojfr6HoH1RkObfXq1aly6TI2fc7sa2wpYw+U7U59CKRuEiyLA4MKXU+ttwm6/qySed9G7tqMRM+ihdUM6G0hQXfSJ3SfYD0RA4mFirv3B3h//PHHmer4XUaxoT7F7sjF4t1lQl3qR9f8lGUPFNOSz2RJG0iQyTr3gelrO3dBrH0kiPuLEJYcWXfkK7oCRA/HZUuXZapiyp2nnF6cnHVhW0hQkxcNFBtJiLieF2U9cty03I6Et0+eiG9xFXc6Xac0cpNwBFx74LHHHptSJm3e1/VU90GfEWQq8Ypf3LXCMdaT1k6CWTO6IZui6wrQHSbvtVqm0YftOCcNQnTyvWlx1/flLRYtky+3kYT64MrrreCSR3A6KAaeMSHijjrdThuis8v3uH3FXW4i2xnwWukjWm/VGVmfdOVaFktr23HIWlrRpY+1kuCKFSsGRoF0qpDhq7uOTDpnFmnpjkkeimTUJMhIVVyFKJPbYIvynvWf65447CGQpYPfXBLMe/JLnMEqLky4yEl9xsAgr0xd+R2/Wo2nrjsm5qZPn97739eWpkkQ746mRbdJ8hJLopEgZMKHUQyNmmGqGzBBKobC8MFHVu4bViB3tCS6uF8LW3DuvvvuvUousxsa94sujq4+rTv2Oa+qGMYlfd1Yq6QlxIRe36e9pIs3j+SLo9voMDfIU7nqyI1oITotX08iybMd1yKwePHiFJ7gKyIeTCFbbmoSnDNnjqhs5KgJEO+zmBKNBLVNSzfosud0qiJhycTMGendzqRzaruXLMeBXIbZA0lvlCSoZ7li+EAKfpCS4I59MVTc0TcNERsv+Z48eXIvjdCRps6TfhAwmaMd5/V1dl4OAZZWacLCxsrqCmlvBOwgIIGvaJ3YgZsS3Ud9YgWUzV8UEtSZlM7nc8yzN7mFwM3ulNmn9Du4TgMSlhnKsgSIfjfvfG9C5MlGQILYC4PF5iP46IeEb9l4tdIjS9GJd4tPBJ+8dDGNiE6O7GViUh0Bwl/hTaWx5Zy3s9AZfE2CVZ0UfEooD8lYb0pu2lFI0FVa93cM6djO9t1330SvZSPuGEP/MiNAyeMoSFDSxDbjs0RB8jzs6IbDf+KJJ4bdUvg/u8FBeCxTAveYDwo6pO6ooWHECgvQ4T/Zn4c+AYFht81b5lQGIk2CVV0yy6THNRI+qy4CJI0JSYIaQNaT8aoc2jGFkKQjhurReSo6Fz9qGlTeCI2GS358yFynieeIGL/R07T9Rudl2LmMiMnnnnvumZB3k3YioEmQ6Oh1iwQUwcaZJ7Sb0AX6onPCk6AUJPTYJAn++uuvPXIbFteNJzYNoIqwDIkGwofXiTYK0b110Ag2jjdpLwKaBKv6pQ8rpcQNfOWVV3IvlZUQ8+fPz72mzB9GghVnh5nJLPNKyxonovSWma1l9qvKhAYVT3oySw4RxrY7lmlcw67RC+knTZqU4M5m0l4ENAmWteNLabDnlw2PxshuvfXWS4ZtBSBvEVXNPUaCFUjwgAMO6I+2iobkuAgyAUKlESyUzs8IFNsdi5tZTsR/8oG0aHBVRbviobttojsVvqwm7UZA15dPCDu9RQMz1UXrE88666zeAGDevHkJKw/oI1yPDryYpI9wFM+YqiYsI8FAEly1alWfAOW1M2tfDJb+TJs2beBauSfviKdNVSHyzo477thLmyUtvD60RVgSJGXnlfjbb79tS9YsHzkIaBI8/PDDc64a/JkBgNQ1x7y3oQULFqSu0/cUnWNmqiKdI0EqUn9k+l1A5rv+n/MscW2J3J+1hil0/WRoAAU3r9jZpGxNGLPd9PO+88SXfDEaNmkXAnPnzh3oB1JfcnT7Sd6ITK6XI4MCV/KiRMk9eceqZiPy0TkSzAOz6He3wuQ7r3DasJ8VGKJIb9F/sZaKrFmzJuGpLWnF0isYhBz1KJCHhEn7EOB1U9pM2WMeCeJFRt9AD8S50UYbDRQ4JD30xTCjdI4EB9CP9ANLUqru6REpKwNqWIozderUXiNkpOu7t8uAwgo/sIiXp7d0rJieMhWyZbc2hADeLHistEmMBCPVBjO/Dz30UCRt8dXI+kTIp8nV/m5JZOkD+bDXYBed8f9OcJOqwX5jo2QkGAFRiQrNRkdtFu1JEiMOm29Z9baavP6YdA+BWbNmJW2yTVMDRoIR2iH+tfvvv38ETfWr0NF4ilbix84Jo2R5BTYCjI3uxNCHbZA2wMO4TWIkWLE22IKShb4TqWNL4NUpU6YkRfsgV4SmfzuLySV8Pmu9TLqJAH7ArBMcpU06C3kjwSxUPH6TZQIet7TiUp7KEHcTDRIfaJZc5M0etgIQy0StCMjGTmW9RmrNjKPcSNABxOcrXiL4+JZxm/PRa9caAuOEAA8/XoPb+rZkJFihtRELj0jWJoaAIVCMQFsJkFwbCRbXnf1rCBgCY46AkeCYV7AVzxAwBIoRMBIsxsf+NQQMgTFHwEhwzCvYimcIGALFCBgJFuNj/xoChsCYI2AkOOYVbMUzBAyBYgSMBIvxsX8NAUNgzBEwEhzzCrbiGQKGQDECRoLF+Ni/hoAhMOYIGAmOeQVb8QwBQ6AYASPBYnzsX0PAEBhzBIwEx7yCrXiGgCFQjMC/YSZIKOQ13CAAAAAASUVORK5CYII=;" parent="1" vertex="1">
          <mxGeometry x="1050" y="855" width="120" height="32.15" as="geometry" />
        </mxCell>
        <mxCell id="Buyr_fSm4l3yDwF7n2vT-60" value="" style="shape=image;verticalLabelPosition=bottom;labelBackgroundColor=#ffffff;verticalAlign=top;aspect=fixed;imageAspect=0;image=data:image/png,iVBORw0KGgoAAAANSUhEUgAAARwAAABRCAYAAAAARRnmAAARSklEQVR4Ae2dh68cNRDG+Z8iFBC9g0JHdBKaKAldEDqIIHrviFAkquiQiCqUIEoaAglEB0HovYoSCKBFv4PZzPp579Zer9+9tzPSaffu1uPxZ/tbl7G9XmFiCBgChkAmBNbLFI9FYwgYAoZAYYRjhcAQMASyIWCEkw1qi8gQMASMcKwMGAKGQDYEjHCyQW0RGQKGgBGOlQFDwBDIhoARTjaoLSJDwBAwwrEyYAgYAtkQMMLJBrVFZAgYAkY4VgYMAUMgGwJGONmgtogMAUPACMfKgCFgCGRDwAgnG9QWkSFgCBjhWBkwBAyBbAgY4WSD2iIyBAwBI5welYEvv/yyOO6444oZM2YUN910U+cp//bbbwdxHX744Z3HZRFMDQSMcKZGPrW28vXXXx9U/lxkIwZfddVVZbzym137i4ARTg/y/o8//ih22WWXQcU/6aSTsqf4qKOOGsQ9Z86c7HFbhOOFQBbCofke+7nvvvuKp59+uli5cmXx8ssvF2+99VaxZs2a8UJxzK3ZZJNNBhUe0vn000+zW/vee+8V22yzzcCGiy++OHv8FuH4INA54VxyySWDgkZTPuVnv/32K66//vriww8/HB80x9ASxk8E96VLl06ahY8//nhpx+233z5pdvQ54p9//nnwwn7mmWcGDYBHHnmkeO6554qvv/46GyydE84pp5xSFjQp+CmvG2ywQXHFFVcUf/75ZzbQpkpEV155ZYn96aefPulm6/EcCrtJHgQ++eSTYtiLf8sttywuv/zy4t133+3coM4JR1Kwdu3a4vPPPy9ee+21Abu6pAMx0WXiGZ/QFXjwwQeLBQsWFLNmzSorkug59NBDiw8++MAXtJe/0fUUbLgyaJxCKJTkU6zss88+pV3PP/98rBoL1xCBhQsXFltssUWJ+aabblocffTRgzrIle+6nNxxxx0NNcc9lo1wtHknnnhiJZEkOGSa9pdffikeeOCBCTr22msvI53/gYaYpSBddtllGv7oe5rim2+++UDvTjvtVPtyGBYB3Smx64QTThj2qP3XEgHqlGDNle71xx9/XNHKi5yJBP0cZacrmRTCkUKrE7l8+fLgNMLQWgf3l156abCe6RYAYhBcGKytazWGpvuAAw4o9aL//vvvD1UxGC/Qb1xr5QRD2CiASzajXugrVqyo5O2dd97ZKJ7Qh7ITDk1yqQz6+uuvv4baPuhiaR3cU5i/+uqrYF3TKcDs2bNLjBnHSSF0hV2smX2KET2eYK2cGASHh3n//feL9ddfv8yvc845Z3iA//89//zzyzDbbbddsheVjjw74dx9991loqQA77333tqmxveMJYgOfb333nsb65huDz777LMVTCCKFHL11VdX9II3/j0xop0Q0WOtnBgU68MwiaLrAzOETYQZKx2uCxeG7ITDG00nivsLL7ywCR4Tnlm0aNEEXehjjKivcuqpp5aYHHnkkclg0K0mMGaQvo3Mnz+/tNNaOW2QrIb94osvKoPE5FVIl1r8pQjHPZM9KSU74Wy00UZlQSNRfJ588smoNOGHIzr09dxzz43SN9UDud3VlP3wjTfeuIJ129mMhx56qKIvZgxvqudXF/a7YzfMQoWI2yB44YUXQoKPfDYr4fjGASAKFhXGyGmnnVYptEI6eCf3Ua655poKHm2mrzV+q1evrugF5zfffFM/EnxPeMkvrjfeeGOwDgswEQGXMJi5DZGLLrqoki+pZjjFhqyEc8stt1QSQ0GLbZr/+OOPxQ477DBBH27877zzjqSvV1ft4wIOqeSxxx6r4LzHHnskUb311luXeufOnZtEZ9+VbL/99iWm1K9QXN0WUihhjcI/K+FoN3t5u1177bWjbPT+T5NedOjrbbfd5n1+uv/4zTffVPBIuSUEg4caY2YzUogs6kT3hhtuGD0IncKW6aADHxudT9zTCwgRl3DQkXLWNyvhzJw5cwIgMX3Ev//+u4B5XXD7PPgIjhqPUX4XIYWQVd5aN4P1KcQdg8MXxCQegaeeeqqST+RZ6ISMj3CWLVsWb5QTMhvhvPHGGxPAwGcGr+FQ8YECuN9//32oqmnz/M0331zBlxX2IbJ48eJKeE0wTe9D4uPZF198sRInBGQSjwDjYG5ehWLqq1tPPPFEvFFOyGyE4/O/YWo0VHyA0G9NtVYo1J5xef6YY46pFLbQhXg+XN3CO+x7TOuSl43Wedhhh40LnFPSDtf/BmzJ1xDxlYOUfm3ZCEf7XUghYz1UU/Et+oRoQgFtGt9Ue85dhBe6ep4ZLbB0P7IlqeQZxOI+I99jMJO9ekR/jA4L8x8C2lNY8CRvQoTnJaxcQ3UMiy8b4eAqLQmQK4W87oNfxqOPPlqw2tUdrxGiYc9ck6JgWYhgynXnnXdOAgv7p2y22WYV3SkLH0a6M43E2aVg/7h8UqfzzDPPrOQVZSE0v3helyXuWYqSSrIQzmeffTYhEW6imny/9dZbC9y0jWiq2Y8nqcYvdCq0qm3dtyVLllT0EkfqZQjuy6TLHQl9lUnjlvse58eU0nYXBmzxYQSRpZIshONbgsC0bd3H9SWQgoBTkslEBN5+++0KMcSMp0zUWgxmOAR7ruTLTz/95Hs0+jf8sHQcbR0KhxlS122kkk3GZ5itMf/NmzevgiW4kq4Q8REO44OpJAvh+DyCR82i0IrR2yxIoWRf3pQiAFMYuxTeZmwyprsQBx544KBAsLq3jaxatapS0M4444w26sqwbusjFZGVERRFcfzxx1dst6lxjU7YvfZrkvqSgnDQm0qyEM5WW21VKVRsC9p0QZmPdKi4scIKZ7ZVYC8X7YjYFeGwj7DsI3Py/JMLnOjYznHfffctMWHgtE1Fg7ylgHE977zzYuEpw9G10Tq5x1M8tZx11lmVeEa9iFLHP530+SZmUhBOzGxyHa6dEw7LDNyCG7qKmcWYro6mS+5JOGQCuejWhauvC8JhZk0GXX36IR5tR+waMHf3Q/S2Fb3pudjoS0PbeFwv5phNvdraMF3Cs++N5JVcUxBO0/10muDYOeHoLSUFhNCFeu7KYvSE7NVBRSEMhHPwwQcXdDnuueeeSuZ0UZmIa/fddx+QXd1+y5oEce9nPCZUGEwXbLmG4uuLz13Ex/gNHt6p5YYbbqjYTlpM4hBwyZuykIJwQuraKMs7JxzfQFboVgSuRypAtj3QTUhIKmpqwmFwVXRzZTzERzruqRYxW3XQMtJxsVlWW+EYHq2zTTd2mC36ZAniu+uuu4Y9bv8NQeC6666r5Bl4hnoauzsOoAO9qaRzwtGFVu5DfS18rSS6SG2ka8LxLaTzkRqLVwUXrqFvJDBgnEjraDub9/vvv1f0oRtP8S7E7S6zxMIkDgFONdHlgPvQsuBzHkRvKumUcHz73/DmDBXOVHKBZAP1NtI14WDbvLnrpikZOPbJ2WefXUlbTAvH3bITnW3E3VAb7GO6ek1scAc62ebSJA6BV199tVKWyLfQ88jcFjc60JtKOiUc3/qpmN34dttttwlAxujRoOUgHFpyLHzDY9rXncIedw0U50mFCtsHaEJuO6vgLgJknKkrYQJB256ycPtsJt/H5eOzr81v7BGlseQ+1IcGp1FXB3pTSaeE42NLBmtDxB0LETBiuh463hyEo+Pz3bs2xO4z888//1QKSVu/CZcEmLruStyxoi6Pbva5WEh5yn1lp4QuhEkKnZa6lnVd3NpVBD3oSymdEo6egREQXlr1UpD9ddsmhBKXG6lb2fmeW3CkE1zqBpWb2rTtttuWumJPwZC48JMSu7gO2/8G4ueZ2EFlDtTTcXW5xQhH3uq4JvOe/O5CXL8mZhdDxCWc1C+bzgjHXd8jmRtaoNw+vuhZvKjd4OJkEg7dJt36wwmwrsvVtLCIcyH4QBix4u41jL6PPvrIq47f5VC72DVW7qGIf/31lzcu+7EZAr5WXLOQ/z2lt6kl79GXUjojHA6rF3KQa2h/koS6jCu6li5Z6sUBD1neuqMqcG7CIeNoeYgjoKTjggsuKH744QdvWkJ+dN9sTT253TjccTe8xOuE3eRIR5slD4IDV1o7Ju0QYFuSHXfcsVL3mMVsIm4LED2h25yMiqczwvHNLMVs5FNHOHVdMzkneZTXbm7CgQRJi3zkzc6mUyneIq5zZOxSCekiCRHUkYlekLty5cpR5cz7v9uaOvbYY73P2Y9hCLgOgE1nLamfku9cUzr8SQo6IRy6DNpwuY/ZVsL10xBdvjEXXQlGzfbkJhwBXK50Rw455JASp9gxENHnLiEZRbgSzr26hMN3n0hLrc0yCpYxSH5yTeGw6LO1b7/RUtFjemA7qj6AkT4Ej/DoSS2tCYeKy4e3NAUI13R3saYUKgovH6aKJdyoBLletKKL8FqYupMR+iazPYQXXVxdfVp3V/e//fbbwGNa7GhLOkIC6Itd/4IXuNjDlRaZFrqsMrPUtkWyYMGCSlyhHujaLruvIuC2VkbVCT2mSL7H9EaqFvi/tSYcPVipC2rT+1EbLjFNOmd29dQAqQh6nEIAazrbMw6EQ5a4Y11tSAcCENzxXYoVt1XJSwI7ITE5OTW2BaVtIq/EXga62bnQJB0C7qJeXh4M7suZ8Fw57YPfJR+4hmz9G2ptK8JxK602usl93fiAmwgc6NjawacTwpOZkqZkg37X9slo4WCH643NVhVSIFwcRn13j13RhDwqrPs/Sy50i0mw33XXXQe7LrrPh36ney06ubJ3skl6BPDcdgkFcuc31/2B37r29G5FOOnhGa6RQUb6+fvvv38FLE5wpHk+amZKa89FOKNsolulKx73r7zyija18b27JSjnFLURTlVgmwpcE8A9JSnzptXpTnkUSZs0T9ewTCrU9Ub4nf9zyJQiHA0I/hp0t2IrQdeEQzdEnNrYa3ZYa0NXPO4JGyN4HOuNvVKfCx1jU10Y0ijp3nPPPQtsN+keAVwweAlS/rmmcMkIsXrKEk5IIn3Pdk047ttk2CpoqXhybdOs1YOFXXmz+vAM+Y0uI10zSS+H+Jn0AwEjnBkzBgU/tKUEgdR1lziETiqTXIfNGskzcq3z7G1SJNesWVPO1qGv68WQTWxyn9ED5Ww61sX0qxunfR8PBIxwIgjnoIMOKgmlbtW6OPYJidS5/rtjGfjmtBW9f1Bs96ytDcPC60HMlGceDYvT/hsPBIxwAgln9erVJdkImfgG3GSanso1bBBYnhNdzFq1FVbYi3s709g4BY6LLFu2rMSPbtV33303LqaZHRkQ6A3hUPH1R/uAUNn5rv/n3ifu2A9h61zAhUyoWFQ0LXQj5H8hm5S76jEuIno5pmdcRJ8O6SPqcbHT7OgGgd4QjlS+kGsd5HQD9KDnsEWpdGnkYD9cx1mNq2eSsIfD4OrGg+psGPX72rVriyOOOKIknXGYdtatGwbVTfqHQG8Ip6ushTxG7RuLkxvEw8JSDvKjm8PyAFoeXY6xMBU/a9asAenQggvdSzolZhz3rHdudFt8KeMyXeOLgBFOy7yZOXNm8fDDD7fU0l1w7clcN8DdXezrNOvNxqwrtQ6Xvt0Z4bTIcY7opUvEJubjLNoDeTLOfdJHwXTZohvnPDDb/kPACKdFSWC9EeeDTwXRq+5jToaITSOtPxk3M7KJRXH6hDPCicxLjk3BaW0qVSK6MlR+Bq85X71rwQFS/JFSzsB1bbfp7w4BI5xIbGUKPTL4pAVj3yJIMscAMjNvCxcujF7vNmkgWcSdIWCEEwEtZMOsT+qp7AhTLIghMKUQMMKJyC6IxsgmAjgL0nsEjHB6XwQMAEMgHwJGOPmwtpgMgd4jYITT+yJgABgC+RAwwsmHtcVkCPQeASOc3hcBA8AQyIeAEU4+rC0mQ6D3CBjh9L4IGACGQD4EjHDyYW0xGQK9R8AIp/dFwAAwBPIh8C87CvVBCqdsoQAAAABJRU5ErkJggg==;" parent="1" vertex="1">
          <mxGeometry x="960" y="972.89" width="110" height="31.37" as="geometry" />
        </mxCell>
        <mxCell id="Buyr_fSm4l3yDwF7n2vT-61" value="" style="shape=image;verticalLabelPosition=bottom;labelBackgroundColor=#ffffff;verticalAlign=top;aspect=fixed;imageAspect=0;image=data:image/png,iVBORw0KGgoAAAANSUhEUgAAAHkAAABZCAYAAAAaVot/AAAICklEQVR4Ae2c60sWTxTH+5+iIqlQSolCFIwiKDKN6Kf1QtSisruXSo1ub5RCzaIQlBKxRCwIu0FFEd1eiKkZhQQpFQXGxHd/zDJ7s+fZnbP76JwDD7PP7lzOnM/O7OzMmV0kWBa8BRYt+BpyBQVDNuAmYMgM2QALGFBFbskM2QALGFBFbskM2QALGFBFbskM2QALGFBFbskM2QALGFBFbskM2QALGFBFbskM2QALGFBFbskM2QALGFBFbskM2QALGFBFbskM2QALGFDFjG/Jf/78EePj4+Lx48eiu7tbdHR0iOHhYTE5OZkynpaWFnH//v2U4y+0iBkJ+fnz5+L48eNi48aNIisrSyxevNj3t3btWlFRUSGePn0ayAWAkf7kyZOBcRb6hYyCfO/ePVFZWekLVILOz88XW7Zs8cQBxImJCQcvwJfp7ty547hm0p+MgHzz5k2xY8cOG4gEg3Dr1q3i0qVL4vXr1+Lnz582m1+/folnz56Jq1eviuXLl1tp16xZIwYHB604sgXLvMbGxuy0ph0kDvnUqVMeuDk5OQKQ3r59mxKPhw8firy8PCufwsJCK62EixD5mSyJQf769avYs2ePB3BDQ4P48OFD2kzevHkjNmzY4MkPkPft25d2fgspQSKQ37175wvj2rVrkWzb3t7umy9G5SZL7JBv3LjhC2Jqaioyh+npabF06VJP/h8/foyc93zOIFbIvb29HgDoTt2j4igGxauX+jzGaNx0iQ3yq1evHMaXIO7evauVQWdnp6Oco0ePas1/PmYWC+Tv37+L3Nxch/EBGSNo3XLr1i1HOaY/j2HfWCCXl5c7DA/AVVVVuvla+aFnkL0EQoy6TRdyyGfPnnUYHYbHO63O57AKUZ3l4ufx/5Yhhfz+/XuxZMkSD+QLFy6oXLQeq5BPnDihNe/5mhkp5MbGRg9gTEGOjo6S2UuFbPJ8tWpgMsiYK16xYoUHcn19vVq+9mMVMt6bWQgHXufPn/cAxvP4wYMHbPeYLUDSkj9//ixWr17tgYzFA5b4LUACubW11QMYrfj06dPx15BLpHlPdk8tAjB31cndbSQtuayszLclY3mRJX4LkEDGs1e2XhkWFRXFX7sUSxwZGbH8yXbu3JliinDRMPvW3Nwstm/fbtsHDg01NTWiv78/XKYppNIOGd6VfhMg+/fvT0Gd+KJgcAivz9raWnuQSAm5rq7OAlv2X5nAosnFixctf7bs7GwbOGBT9HbaIX/69MlWWrZihJcvX46PYEBJGBBu27bNcgdSdZPHVJDh7YIy/FbEMCuogt69e3eA9uFPa4esTkZI4yHs6ekJr2UKKeFXDUhzrWzhGmbc8OiA6xG6TqSRelJAHhoasvKfSzd4xEgdEMKxUadohwwvDFVheQx3W0qR3eHhw4fTKoYa8rlz5xz28LsJMSaQdkKo2ydNO+TZ2VmHwlJ5ypkuDGhkOTBYOkIN+cCBA7Zu0NGvt/j9+7cjDuLpFO2QoRx2NkijyxC+XVQiW3F1dXXaRVBDhr+4tAFCPycGLLuqcbBzRKeQQC4uLnYojQqcOXNGp952Xmorhv91ukINGfrA9QndNPSDl4xbsC1IhYybVqeQQMamNFVpHO+t3qtTbzuvI0eOWGXt2rXLPpfOQRyQ/6XPoUOHHPbS7c1CAhm7EN2Q4eOVzk7EfxkG1zFil+XAtyuMJA0Z23pkHRD6DczC1EtNQwIZBfjtjtDZZasj0iieJklCxvOZGjBYkEH287FetmxZyvub1DvR7xjTgTAQvE+iSNyQS0tLxfr16x1wMc2J2TcqIYMMhTHDo96pOMbIMd3XHLXy3759E5s3b7by1eHDFTdklCd/sh54G0E3rWMXiWoreUwKGYXAY1IX6KamJjuvgwcPyjpECuOG7FZWHaQCttx6644X5T85ZCjnt2kcbrmYDUqlVT958sSac5Y3i85ne9KQYZ++vj775kUddYOOBTIq0tbW5qiIBIbnND4JAXBdXV2WDxgqjVUaOOBjnlnGLSkp0e4jlgmQYR/38uyjR49wWovEBhna3r59W+B9VkJLNdy0aZP1zMIypm7JFMjutxGdq3axQpaA0EVjoIFlP3wCwg0bS28YlOA7IFjVopQ4IKfySHLvNMHWIl2SCGS38j9+/BBYV8VvZmbGfZn0PyVkTP7ID92sWrVqzokO3PTum11XxTMCsq7KhMmHErJ7rgBlBYnb+RGDVV3CkCM4DWCxYa5pSNmK1RYaBA4eIWq8Y8eOBUVN+zxDDgl5YGDAAeXly5ce41+5csURJ8gZAI8r+ZkqCTrsXLxHCcppTb/CMvFc2O7a7QzgtwaM1yAJba4Wr06IID5eKXWKUS0ZjnyAqv4kBBmq13AcBAfXZBoZfvnyxcNGXWXy64LdPQLy0i1GQfYbwUpAQWEQZDgOut9t4RzgJ4iL1okyVq5cKQoKCizfa9VLE9euX7/ulzzyOaMgR7ZWQAb4gi8g+bVkNQlgY+suVp0Ae926dQK7TfBVwhcvXqhRtR4zZA3mhEstWmemCkPWQAZLqtj9kKnCkCOSgaclpmYp9zJFVJHOMySqYvMlPebXsWaeyZ+u4JYc4W6SAy5MX2ayMOSQdOT7L/WHbkKq50jGkB3mSO9P0Dt0ernQx2bI9DZOvASGnDgCegUYMr2NEy+BISeOgF4Bhkxv48RLYMiJI6BXgCHT2zjxEhhy4gjoFWDI9DZOvASGnDgCegUYMr2NEy+BISeOgF6Bv2Fomr/zkQVZAAAAAElFTkSuQmCC;" parent="1" vertex="1">
          <mxGeometry x="870" y="1050" width="50" height="36.77" as="geometry" />
        </mxCell>
        <mxCell id="Buyr_fSm4l3yDwF7n2vT-64" value="" style="endArrow=block;endFill=1;endSize=6;html=1;fontSize=17;entryX=1;entryY=0.5;entryDx=0;entryDy=0;entryPerimeter=0;exitX=0.5;exitY=0;exitDx=0;exitDy=0;" parent="1" source="Buyr_fSm4l3yDwF7n2vT-61" target="Buyr_fSm4l3yDwF7n2vT-48" edge="1">
          <mxGeometry width="100" relative="1" as="geometry">
            <mxPoint x="800" y="940" as="sourcePoint" />
            <mxPoint x="900" y="940" as="targetPoint" />
          </mxGeometry>
        </mxCell>
        <mxCell id="Buyr_fSm4l3yDwF7n2vT-65" value="" style="shape=image;verticalLabelPosition=bottom;labelBackgroundColor=#ffffff;verticalAlign=top;aspect=fixed;imageAspect=0;image=data:image/png,iVBORw0KGgoAAAANSUhEUgAAAgsAAABGCAYAAABCBtdVAAAeT0lEQVR4Ae2dh/MUxRLH3/9kWcgzY84BFBRFMUdECYogmBOKCIYy5xxQxFQSjYgiCigqCirmgKiIkdpXn6vqfX3zm73fzuzs3u7vpquuZu9ut2fmO6mnt7vnP0mkiEBEICIQEYgIRAQiAh0Q+E+H/+JfEYGIQEQgIhARiAhEBJIoLMROEBGICEQEIgIRgYhARwSisNARnvhnRCAiEBGICEQEIgJRWIh9ICIQEYgIRAQiAhGBjghEYaEjPPHPiEBEICIQEYgIRASisBD7QEQgIhARiAhEBCICHRGIwkJHeOKfEYGIQEQgIhARiAhEYSH2gYhARCAiEBGICEQEOiIQhYWO8DT7z7PPPjvZZpttkltuuaWSipDXAQcckLz99tuV5BcziQjUDYHHH3882XvvvZPDDz88+fTTT0sv3hNPPNEa4xdeeGHpecUMehuBKCwM0PY/6aSTWpPI+PHjK6vhs88+28oToeGTTz6pLN+YUUSgDgi89NJLaf9ftGhRZUU6/fTTW/mSRooIlIVAFBbKQraLfEVQOOigg5INGzZUWpKZM2emE+amTZsqzTtmFhHoFgJaUKhKkyd1/fjjj5M99tijNe5uuukm+TmmEYGgCAQXFhgovp9HHnkkefHFF5OlS5e2VNkffPBB8scffwSt8EBnNnXq1HSxXrhwYVeqKzudQw45JNm6dWtXytBLmb722mveY+6ee+5J5syZkyxYsKA15niF9O233/YSfIXr+tVXX6VjrkpNni641uo9//zz+q94XSECjB/G1AMPPJDQDrKW8Xuez9y5cyt7bewKS1BhASEBFXToz5FHHpnceOONybp161zr11P3875UsK96d6OB1judKVOm6L/idQkISJuHTHnvPmbMmITJa8uWLSWUemCw/PXXX5N99tmnNe7222+/yjV5GkWt1UOAjFQ9Ag899FA6BxcZj1VrhPMg1QhhQUDfbrvtkhkzZiR//fVXnrr11D1oZASno48+uusY6Z3ONddc01NtUXVlpd3LSjFaveuuu6quViPyGzduXDruHn300a6XWbR62267bbJy5cqul6fXCiCvgIuMxdGjR9cStqDCgtTw77//TlDNvffeey2Vigncueee29qxrF+/3rqoIVWxS77ooosSpHXz+eOPP74SS2OpTxPSo446KsVp/vz5QYr822+/tVRnv//+uxc/2k/arpuaDq/CN/ChzZs3t8bF66+/nuIu+JOiHmUB+fHHH621k/F6xhlnWJ8/7bTTrM/16o/iiQC2Z555ZjAYRF3tw/D9999P227o0KHJDz/84MOm0DNoW8Dk6quvbq0BhZg19GE2tKxjtCWLvx6Hcs2rCv7Ha2bjxo21r2kpwoKutZa8BSSXhYMF67HHHusDdlWuSboudb1++OGHU3ymTZsWpJivvPJKcuihh7b4srNEHe1Ky5YtS8uFWrsbE5drmQfC/R999FGKu4w5UhdasWKFdZJzGbsu+TXtXgRoXo8KvsuXLw9ShSuuuCLlecwxx3jxnDhxYsqjG+31yy+/pPmDD5vDl19+2asuA+GhHXfcsQ0PMLn44osbV7XShYVddtmlD1DsfFzJttvBmK/X6Ysvvkj23HPPFsZDhgwJZtfBAJeJkNR30tHt5suj19vYtf7sWHTbce2j2tQW/prfO++841qkAXf/DTfckGJ8/fXXB6kfmh2NM9c+hNum8OmWkI5wIHFepCyo6J966qkEzXOvkDZ+FRxIn3vuucZBUKqwkLXDQV3qStp4T4Pe64Y8eidy3XXXucJqvR8vFI0x1ywcPqRtF7o1cbmU+6233moFlkJb01SyafOuvfZar+qwuzX7woQJE7x4DZSHiCEimAwePLj1yjVE3S677LKUL/zRnvqSVn13U0hHQ3X55Zcn//3vf9O6DRs2LLnjjjuS7777zrd6jXnu1VdfTestfWannXZK0L40jUoVFmw7nOHDh3thxLsdAVunV111lRe/gfAQg23XXXdNcWFnEoJwpdMYc+07sHGdPOyww1J+3Zy48mCD8El92QU1lWzavIUL/NxoaS+zL/A9y+6hqZi5lBvPLMFk8uTJLo92vJe4KMKX1FfAIxPc0IVXHYT0zz//vOXRJp4jlG333XdPZs2aFUwb2hHcLv2JnZC0g6RoW5tIpQoLphoKsNgJ+9DTTz/dB3T4hTQs8ilXN5+59957U0xOOeWUYEXBMEk6NinGk0XozjvvTPnVYeLqVBdR4TZVWFizZk2KtW7Dn376qVO1M/+zjWH49qqlPW6k2PAItsSnCEEYuAlPSV944QVv1hgZauPwugjp9MO77747IQaL1BOtA9qH1atXe9e3rg/ifiz1lJT5sIlUqrCw/fbb9wHKN2CIluYFdNImGoqE6igjR45M8b3vvvtCsU0OPvjglC8Yox4tQmvXrm3jV5eJy1YncUFtqrBg28mMOnqUraq5fkO40+NNrns1cJPWuoFNKMLtUrCVlPfdRQhjZ+FFWTEWrwshdPGqTxuJUlbisix7c1ldilm4HLxykDaQ9MMPPyzMtxsMShMWbMY6gPXNN9941XPSpEl9QIcf6rZeJHY00vlIeU0Tgmz2Cj6eEGZZ9t1337S8dXbBo67g2VRhQfzsdd8gNokP6Xfzmh87616lU089Ne3HaF1C0fnnn5/yBWt23kXpwQcfbONZV/su7JrQEOs+ds7Z5yTdikBbFHd5/s0332yrE/XbYYcd5O/GpaUJC7fffnsfoIiP4EM///xzGiVNdyiuWdx6kS699NIUX1xzQpH2HResi+5wKJtWZ6NxqmtUQKl/U4UFgvFIu0nqa69gG8PwLKppCtVXq+bz2WeftWEbUkOm1fJgHOIUyXfffbetvGhn60wYFxObRfdhxuG8efPqXOzMstnsfZpqr0AlSxMWaGSZrCSdPXt2JrCd/tDv5oUXaa9OWmCl1XchFzbTIjvEDofymgOnrrsc2Y2FxLRT3w75n80ImPfBPvYKxBEwX0fJ2OtVAR13N8GAtExtXhF7Bd2ntI//ySefrP+q7TXh4on6qsuO3RSvauq6ybCBqd3Gpd8ggDeVShMWBg0a1DawAItAP67077//tlyIBGxJDzzwwJ49BpnTHAUH0pA7HB0JEt5FLLJ1W3Ogii4zfup1JHnn30RhAXc0jTHXp53qF3VRW9NrnnXfnZbZpxgLGotQeYk2S/PG7TwEnXjiiWmZCZffpFD5xJBhnpATNcGHQHEYCNbdGwfXSJvNXigBM0TfcOVRirCAVavu+Fzj4udjYGPuSOGFb3OTQXdtJPN+ce8TjDHKcyEGoTzrm+IK5UKcHqrzOuGEE1wer+zeW2+9tVXOJgoLNstrH0GS8LP4+Ov24ppXX71MvEYVTHABdCXTy0h45U2xa3AlAkZp/rxHbxqhGWNHrr1QCESHIMFcVkdiY6xx55rXK02mUoQFW3wFDBRdySYoECRm8eLFrqwG1P233XZbW0d03YVkBbgyO3fWd18bCf3qhIFTx+Orpc81UVjYeeed2/oF7bdq1Sqnvp8lKIQK+OVUmJrdzCZFxsSoUe4eJlmeJcKzv5RXZK60ZMmStMzwv/nmm11Z1OZ+XkGwtui4LcxFCGF18zDQET6lXets2J2nkUsRFojwJgBJSpjPvCQH2sizpAw0JvJeChWahZc2FgQbV9UiCwJY2j4a87POOst6D7tvHxo7dmxbv6ijdqipwoLNcwEPlLyEjQJW6aZGgb7WxN1o3nrnvc+MXzF+/Pi8j6b32cYbv0m4dhl7tvt8x5w+WAr+TRSCUwDVxZNPPplwuq5gRopRaF2EBvN1LuUjvkSTqRRhYa+99mprRIBiYcj6cFYEwgQDwpysREiIhxD9v5vp+ArYboQi3m/rwedrkJpVngsuuKCNfx1do5oqLNjee7MwZI05fieENzs1Fj4djpc+gJDQy4f/mH3Y3KGHihxrvlLEL9/XvdwsM9/NV44jRoyw3dbY3zAEpZ/reYuomiE8uHxBYa3S5ZFrBLcmU3Bh4csvv7QCJYDlTZEaMTaLQkLf7qXf3YXaKRDOGQMo3T6hDzthgtX8XbRNfVEo55emCgumIKZxznuNXRG7M+LZR2pHQOJvCJa8CgxBM2fObBsTxx13XAi2KQ/czqXMpC7appRJAy7Mg6sYx90ifR6OYI8Q2HQKLizYwjKzoGV9TP9iAbebjV33RtVRwUIJC/gyC/aSuhox9ofbTTfd1JYHwmDdqKnCgg56Je2XNeb43XZ+BAf84OseqS8C999/f1vfRSMTgrSWkHYj7HFIwptM+gNpk4MC2XCZP39+gi2AriMui910zSZWhC4P1+ecc46t+I36LbiwYIu0iKTViYiLbjsOl8krJBFelIZDBVslcdxzqEX9n3/+aeuIofgSNlt3cIyIQpMZL6OO7pNNFBbMYEG0I4Zf/Ql7GMaaR5HzbMh3q6jBic4Xqp9m9UkWBzRX5EPd0b7hHYK/fojXKWa4ed6ZFyVsh/SY45rXSaEJPHQ+rjZOocsTgh9aT+0WSv3QRve31oTIuz8euHdqvLlG2OwGyXwWIu/gwsJuu+3WByiMr/KQTWBgMvMl3PUweKGhtNtT2cICr07IAwty0ZyEmixxI9IdMRRf01bEx3ulv3bScfWpQx2DasngCoVrf5iE+N8WE8HlYDGbwEBgHF/i3AheZeBqKfNBmXiyG5cxwXgzT2/kP2wwipA+Ch5+vmfc6DLwGk7KLSkCRGjSJz2ST91jFHSqP5jpY9M5uZJ55I033uj0WGX/ma99pF2rtFcQBwGNUwgAggoLLMwCjqSuEQDNHS58XKVFJqas6HPwK0NYwDgTdyqb+xp5hpos161b14ZxCL7YK0h7SVrGmRuoDIU/6XnnnReiD7fxoG2LfLSwUIRPGX2sraLqi+kdA7b41+cl2w6XMyZciP7P5KSPTNdtHaKf2sojdjAE6tHHqK9fv75lf6HLUORMC1NjisFjUTLnOp/YDXnKYG4EyhBI8pTD9x40IcxHRxxxRDp/MM+i7dFt7ss/5HOmISz9D+PhooSGjsMCmZ9MYq7hdzR4WePPfMbne1BhQaLf6QHqGkjEZtXtyoP8cUc69thjWwuS+a68jImcxsIPm10NEyO7Kll4KE+oydKM9x6Cr02jU2RnmdURzYNVOJQnJBE1TRt/6n7YjeuHHnooZPUyedkixdGmLmSLAeDSB6rq/7pOYmfTKSiZHoP0AV87GX2AFHxCuJOai7iPO6bGI+taa1UpO3NIE4hjtlkghw4dmgoJxGeZPn16wqu3OpIZBAu8XQVvW70keqjNpoX1jHwQNkePHp3gDSJh6/mdTwgKKiyYhiYU0vXoZNSXUkFJXbUTNmCEF2kZwoItTz1RhVjUycM8FTIEX97ranyQTssg3h3rfIqqhm1lxJofTIp8KGOR5+XZKjx5TOGRsiO0urqOmT7r8HHV6JntUUb/13kMHz681Z+YQIkTYaPNmzf3ccfGVduVTO1NUQM6otnqscC1T9ClPPUwff6JGVFnYtwQulwL/rzOYsGse9nxZjHblboUJdGq5PVQEwFCylI0f54PKixIwXTqujDbtBNYbhelImXyzbuMyZJFQNeFhakomTuciRMnFmVpfZ7FR5c9xMl61owK/ChtFgLXAsXI/aiUV+OK4ZcrYSWveXBd1OJfly00nmiRdHk7RcczDWt9zreYNm1aW36umhuzPWybory2XSav/r6bNhyugmR//EP9z7t2tAb6LAgWSdqvCsE7RD10n5Tr5cuXF2Itmyw2cfT7PFRrYYGGFnB0miXxZ1XYPNcdXiGO9dRlchVgssra3+9lTJbmjqToJMwg1NhwTTjoMki8USS/GTNmlJFNIZ7SZkVxLVQIh4dtJ9vNmjXLgUPS8pqQNtFp0XEiWMIzNJ7mZEgeWeU17/U5l0TUwIIPLuJFyAwHzAJZFg0ZMqRtjKNtqROZMRLAmOixoU7erKqutvMgqEtREq0WAmteMvt83uc63RdMs8AuRAaSpKgJXUm8B4QHKYZARUnzy5pUiuZhPl/WZGme927m6/Ld3O2DU38udy789b3mmRYh1HOaf4hrabPQi1uIstl46Jgb0sddI2MyKcuzOi06TgRLeJaBJ5bwUl6uO5HcJ2mne23/mX0XwbcImW5/U6ZMKcKu47N6vuA04LqQTUjA6NnnNVEd6iTGttLHSDH6LUKiVYCXi1FtrYUFm/sV7kYuhBZCAy3XTDpFSXiRFp0E85alrMlS3NGoS9FJeOrUqW2Y77fffnmr53yfuTt77LHHnHmU/YC0WVFcyy4n/G1eDCwMrhbiuPjq8SHXRceJYBmin9rw5FUABl18Or0WCGHnY7qn4n1RhPQCDj5FNRVZZUGLIO1JWqYGI6sM5u8YpKI50OXileQ777xj3tqo72JXoOvFIVdFSLQKrhvvWgsLpi8vgLn6IpsVFNBDGP4IL9Kik2Dexi9rstTaF9dOZJbdtIInbHAWiVuQ70JqRjbrZMWeVYayf5c2861j2eXT/G1++iycrkRd9fiQa0K3FyHBEn7dxNP0sPKxWWAuE1xIi5zCaXtl2wnrcePGtfL28eT4+uuv28odOtBd3v5BfBji3eiTZzHEvfLKK1tCb14+db3PJrjTT/IaJNrqpbX1jCUXMtdSl2ez7g3yGsI0upNB5XogCp4T8qxO5z49N6v8uX/X/JouLOhgG5zn4Eu2Dt4pgpy4j/lMWpRRJj1pixDuZ751z3pOFrhuLm5ZZTN/ZzcmWErqYwdiRvgTXoQKLkKCJfy6iaep9VywYIFztcwDn1zduXWGphE3B+9lkbwiQqj3MfIjSqe0J2nosyeyyi2/U2ZicOhNCTYUuBgiQAwUMgVSwdynzcDEbLe1a9c6QVVbYcGMzAdQBIhwJR2JTcAmXbhgoZXVhg0bWrEM8gQZ0fyaLiyYO3Rf62biAGhcuM6yyJY2RoOU1yLXbDRzB+tbbpNvyO+ywHVzcctbH+1aJu3oKoARzU+e1SmTexah8u+k9pfnBEv4dgtP8xWEb0RYolJqfIrUh3MCNK8JEyYIZH1S2RiApQ+Zi0ZVHkgskpRZCwmcX0Io8a1bt/pUpdbP2A5y8+0jYKf7h4+LudnuIcALolmweTD4GAAhYGiQ5HrZm8usdSWICffkiTYovEibLiygvtf18Q11qidz+LHDtBHCgdhJ+GoV4Kvd8+p6oI1g4jvQbfiV8duqVava+gDt12mBzyrDypUr+/CBFwHNbCQGV3licQiW8OsWnlqwLhohUcf8LxL7BSzARD5ZsWjExod8fT0YTC1GkfFr6w+239i8aXdsyl/HE2ZtZff9bf/990/bU9qV/u9K+tWD8HnmmWdc2bTWOHmeNAQVFhZMyV0K6KN+McOfCi9bABR9uiVl6I+EF2nThQUzPHMeYcmGjyl0ZE3ouJqBWxEVJmo03QYEAaojyQKXhUVdymybVHzKnGVUnGXFLQZXec71ECxpd5+yFcUa7Yfuc0X5aWv3LME6Tx5goctlm48I7yv3FPEOwLtA+JBWcfw4GkO0XswXixcvzgNJo++x2aCAdR6Nt1ScdrG9VgTHLVu2yG25065rFigAHwbho48+2oqyJTtO3SG5ZqLgg4GHPNdfTU2LY+FJUA5NHNYhUn6eSYtnhRcp5amCypwstaGQr2spNiXmWRb6FQMCHy5dYEY7F6G5c+e2tUEdT5ykftJm3VjcsvClv6I9ws0VIYE+r/uzXLObo/xo9RCw8447m0bPpjkQrQL55RHQBUvurxrPRYsWpRgRDjsEmcKHq9eJlEHjAjZ810S7SZua/+n78lybr6p8NRR58uqFe2RMYfeCnQLu34wVaS+d0nZ80Kog8PEsbs3EseF3xjHCt3YB1s9z7XLGi8Zf9yH4hCAnzYIZNtSsWH/fsTHoRBySNOroUX2ARzDQvv9isMTkmFd602UDyCqIDiH5hp4sRUUJf3DwJfM0PaRbJkUEEBkEnHNRlPSujDIX2S0VLUun56XNQrdXpzw7/ac1aNKXXNI85w2Yi6Dw18auCCuy8IBRHhIs4VclnpwpIG5sCNWhyNTogZsPcciVYEwKrgjTvCLAfkH+c7U/MctiGp6HOKPAzKOXvmN0SDRhaZ8qUrQWPtRVYcHM3BWovEYa7GwnTphobRAmHNFkuAgKgK3LOxCEBXOC993lgM3s2bNTwUDjhLDAIVwhSAy14I+vd113OLLAVbm4dcKXcug2cb1eunRpJ/bpf/QnEQZ0HhzIJlo8fs8rKMBYsOS5KvGUVyVl5IlrquCDwO5LK1asaDtqWXiSMlZCHGnM7lfzdWk733oN5OdYN2j/LO8hjXWoa9cIyIK/uV7L70VSJ81CkYxcn2WwoIIZOXJkgnuggI/KBqOlvBoFyVeeJx0IwkKoXY7g8+effyZMLpdccknrwzW/haBNmzYlOggNB1fVlWSBK2OhqWudpVy8G2WHO2bMmATLdT1mwMN1sREs4VMVnhIZMfSJpoKR1uj5xLQQPpJysicaBfAhdTnpU3hkpTqkNHNoXU9qzCr/QPqdY7bZCH///fcJGnZsuFavXp2+KmRNkg//c38R6ilhQQP1zz//JLyiKLLI64mvCB9drv6uy54stUEoav66khkzHUv+upK0WVWLW11xoFz4wTNWfIyVeV6wrEpYkKOYCfSTRZMmTSr02o5NjJ5LmJfqSrx2kLISqTVS7yDQs8JCiCaWQUM6UIQFbYVLYBfe1daRtGtt3tdR3aqHLHBRWCjeAoIlY65sPCVGCwagnQhjx6J9UJ9AWcfzTag/oZP1nGfzKOuEU/yv2QhEYaFA++mB4yosiCWra/ZVTJaTJ09OJ4U6+jKbkcjqfpKctFnZi5trX2ri/YKlj7CATQvP5yHJh1conQgjTcqS14MqixdHDst8EtKAMis/n9+1x4zPKZs+ecZn6oNAFBYKtIUMblIXYYHgNPIsC8jGjRtzl0ImMZ4va/FZtmxZWj7eNdeNZs6cmZavKZMW7YZ7bqRiCPj2fzP+B3yySPK4/fbbE86QwVUbo0544IrN//rDWOzELysf83cdvwCX0joR50zoAGhlHVJVpzrHsrQjEIWFdjycvsmCT5pXWDBdnHiW+BJ5SSYynitLWKAs2t2qThMXCy6vRwT7qArN23MGxn2+/V+/tqLvZLkGmx5B0s/6S0OMEdFSkFfR1xqhW1sfp+0b3rpomYjPwpzXrU/R8jf9+Sgs5GxBWwfVEwiTj3mPjbUJODyyDAm51+Sp8+Ta/D/EDodyE/1L8qrTxKWjDBZV/draJ/5WHwRC9n/GifRnSU3XYDOGgNyXJ/U12DTRZqxJfiEEEJO/z3es6LWra57gWT75dHrGNm8KTlWloebWTvWs03/Ulw/eOowf1jiNtaw9nGGBq7wPPrV1nSzSELbJRgNnu87KD1A18FkHZPkMEJ8Gyyrn9OnT085BhLBuEy5CI0aMSMvUjUmr2xj0Uv4h+z9u0RJ4Tcaq6UHjkx+8ssJY+7QVrm+coAhf3Ch9feJ98s56BvdLwaybAjpzWzc+nHAZcl7Nwrluv0ub501ZI11pQAoLriDkvZ+ocN1S6+Up49ixY1sTBUFDfCN/5cknzz0TJ/4/sBYnzUWKCPgggHExE6DrEb0+efk8I0dIU0Y8MrpJnMMgiwUbnDoIL93Eo5fyRnjOS/QLl/uFbxQWBIkc6aBBg5I6BxSiCsOGDWtNGBzU5GKMmaP6uW+58cYb00mrzsJV7grFG7uGAOfCsAAS2KuuhPukLNIYWXaDiPegTz7kIKpIEYGQCERhISeacmpiHVT8nYpMrAWJeInFdtU0b968dOL0UXVVXd6YX70R4B0rIafrTvqMlSVLllRa3K1btyY6ABMxFiJFBEIjEIWFnIhiFHLQQQc1QrXHLkN2OrNmzcpZw+K38V5ZDp+KgkJxPHudA2FvCe+O+20TaNy4ca1xR6jsKl+b6EPafNTLTcA2lrH7CERhIUcbrFmzJhk8eHCC8UxTCINCERiqMi4Uw9L46qEpvaTe5SRsM324SS63EgypKuNCffR7t+2U6t2bYumKIhCFhX4Q5DAlFsEm7pSxKscymANMqiCxfq4ir5jHwEZgzpw5LUGhyMmO3UKIcUBwqCqIWBO9aP1fBbYxj3YEorDQjkefbwzEOngX9ClY/CEiMIARQKMQNVQDuIFj1RqHQBQWcjQZ0nukiEBEoDoE4pirDuuYU0QgDwJRWMiDUrwnIhARiAhEBCICPYxAFBZ6uPFj1SMCEYGIQEQgIpAHgSgs5EEp3hMRiAhEBCICEYEeRiAKCz3c+LHqEYGIQEQgIhARyINAFBbyoBTviQhEBCICEYGIQA8j8D9nDPsdXaFHSAAAAABJRU5ErkJggg==;" parent="1" vertex="1">
          <mxGeometry x="600" y="1055" width="200" height="26.77" as="geometry" />
        </mxCell>
        <mxCell id="LVHQ-mxESrNUFajZh_sA-2" value="" style="shape=image;verticalLabelPosition=bottom;verticalAlign=top;imageAspect=0;aspect=fixed;image=data:image/svg+xml,PHN2ZyB4bWxucz0iaHR0cDovL3d3dy53My5vcmcvMjAwMC9zdmciIHZlcnNpb249IjEiIHZpZXdCb3g9IjAgMCA0OCA0OCIgZW5hYmxlLWJhY2tncm91bmQ9Im5ldyAwIDAgNDggNDgiPiYjeGE7ICAgIDxnIGZpbGw9IiMyMTk2RjMiPiYjeGE7ICAgICAgICA8cmVjdCB4PSI2IiB5PSIyMiIgd2lkdGg9IjQiIGhlaWdodD0iNCIvPiYjeGE7ICAgICAgICA8cmVjdCB4PSI2IiB5PSIxNCIgd2lkdGg9IjQiIGhlaWdodD0iNCIvPiYjeGE7ICAgICAgICA8cmVjdCB4PSI2IiB5PSIzMCIgd2lkdGg9IjQiIGhlaWdodD0iNCIvPiYjeGE7ICAgICAgICA8cmVjdCB4PSI2IiB5PSI2IiB3aWR0aD0iNCIgaGVpZ2h0PSI0Ii8+JiN4YTsgICAgICAgIDxyZWN0IHg9IjYiIHk9IjM4IiB3aWR0aD0iNCIgaGVpZ2h0PSI0Ii8+JiN4YTsgICAgPC9nPiYjeGE7ICAgIDxnIGZpbGw9IiMyMTk2RjMiPiYjeGE7ICAgICAgICA8cmVjdCB4PSIxNCIgeT0iMjIiIHdpZHRoPSIyOCIgaGVpZ2h0PSI0Ii8+JiN4YTsgICAgICAgIDxyZWN0IHg9IjE0IiB5PSIxNCIgd2lkdGg9IjI4IiBoZWlnaHQ9IjQiLz4mI3hhOyAgICAgICAgPHJlY3QgeD0iMTQiIHk9IjMwIiB3aWR0aD0iMjgiIGhlaWdodD0iNCIvPiYjeGE7ICAgICAgICA8cmVjdCB4PSIxNCIgeT0iNiIgd2lkdGg9IjI4IiBoZWlnaHQ9IjQiLz4mI3hhOyAgICAgICAgPHJlY3QgeD0iMTQiIHk9IjM4IiB3aWR0aD0iMjgiIGhlaWdodD0iNCIvPiYjeGE7ICAgIDwvZz4mI3hhOzwvc3ZnPg==" vertex="1" parent="1">
          <mxGeometry x="800" y="414" width="48" height="48" as="geometry" />
        </mxCell>
        <mxCell id="LVHQ-mxESrNUFajZh_sA-3" value="" style="shape=image;verticalLabelPosition=bottom;verticalAlign=top;imageAspect=0;aspect=fixed;image=data:image/svg+xml,PHN2ZyB4bWxucz0iaHR0cDovL3d3dy53My5vcmcvMjAwMC9zdmciIHZlcnNpb249IjEiIHZpZXdCb3g9IjAgMCA0OCA0OCIgZW5hYmxlLWJhY2tncm91bmQ9Im5ldyAwIDAgNDggNDgiPiYjeGE7ICAgIDxnIGZpbGw9IiMyMTk2RjMiPiYjeGE7ICAgICAgICA8cmVjdCB4PSI2IiB5PSIyMiIgd2lkdGg9IjQiIGhlaWdodD0iNCIvPiYjeGE7ICAgICAgICA8cmVjdCB4PSI2IiB5PSIxNCIgd2lkdGg9IjQiIGhlaWdodD0iNCIvPiYjeGE7ICAgICAgICA8cmVjdCB4PSI2IiB5PSIzMCIgd2lkdGg9IjQiIGhlaWdodD0iNCIvPiYjeGE7ICAgICAgICA8cmVjdCB4PSI2IiB5PSI2IiB3aWR0aD0iNCIgaGVpZ2h0PSI0Ii8+JiN4YTsgICAgICAgIDxyZWN0IHg9IjYiIHk9IjM4IiB3aWR0aD0iNCIgaGVpZ2h0PSI0Ii8+JiN4YTsgICAgPC9nPiYjeGE7ICAgIDxnIGZpbGw9IiMyMTk2RjMiPiYjeGE7ICAgICAgICA8cmVjdCB4PSIxNCIgeT0iMjIiIHdpZHRoPSIyOCIgaGVpZ2h0PSI0Ii8+JiN4YTsgICAgICAgIDxyZWN0IHg9IjE0IiB5PSIxNCIgd2lkdGg9IjI4IiBoZWlnaHQ9IjQiLz4mI3hhOyAgICAgICAgPHJlY3QgeD0iMTQiIHk9IjMwIiB3aWR0aD0iMjgiIGhlaWdodD0iNCIvPiYjeGE7ICAgICAgICA8cmVjdCB4PSIxNCIgeT0iNiIgd2lkdGg9IjI4IiBoZWlnaHQ9IjQiLz4mI3hhOyAgICAgICAgPHJlY3QgeD0iMTQiIHk9IjM4IiB3aWR0aD0iMjgiIGhlaWdodD0iNCIvPiYjeGE7ICAgIDwvZz4mI3hhOzwvc3ZnPg==" vertex="1" parent="1">
          <mxGeometry x="882" y="414" width="48" height="48" as="geometry" />
        </mxCell>
        <mxCell id="LVHQ-mxESrNUFajZh_sA-4" value="" style="shape=image;verticalLabelPosition=bottom;verticalAlign=top;imageAspect=0;aspect=fixed;image=data:image/svg+xml,PHN2ZyB4bWxucz0iaHR0cDovL3d3dy53My5vcmcvMjAwMC9zdmciIHZlcnNpb249IjEiIHZpZXdCb3g9IjAgMCA0OCA0OCIgZW5hYmxlLWJhY2tncm91bmQ9Im5ldyAwIDAgNDggNDgiPiYjeGE7ICAgIDxwYXRoIGZpbGw9IiM1NDZFN0EiIGQ9Ik00NCwzMEg0VjExYzAtMi4yLDEuOC00LDQtNGgzMmMyLjIsMCw0LDEuOCw0LDRWMzB6Ii8+JiN4YTsgICAgPHBhdGggZmlsbD0iIzY0QjVGNiIgZD0iTTQwLDI3SDhjLTAuNiwwLTEtMC40LTEtMVYxMWMwLTAuNiwwLjQtMSwxLTFoMzJjMC42LDAsMSwwLjQsMSwxdjE1QzQxLDI2LjYsNDAuNiwyNyw0MCwyN3oiLz4mI3hhOyAgICA8cGF0aCBmaWxsPSIjNzg5MDlDIiBkPSJNNDAsNDFIOGMtMi4yLDAtNC0xLjgtNC00di03aDQwdjdDNDQsMzkuMiw0Mi4yLDQxLDQwLDQxeiIvPiYjeGE7ICAgIDxnIGZpbGw9IiMzNzQ3NEYiPiYjeGE7ICAgICAgICA8cmVjdCB4PSIyNyIgeT0iMzQiIHdpZHRoPSIxMiIgaGVpZ2h0PSIyIi8+JiN4YTsgICAgICAgIDxyZWN0IHg9IjkiIHk9IjM0IiB3aWR0aD0iMTIiIGhlaWdodD0iMiIvPiYjeGE7ICAgICAgICA8cGF0aCBkPSJNMTgsMzVjMCwxLjEtMS4zLDItMywycy0zLTAuOS0zLTJIMTh6Ii8+JiN4YTsgICAgPC9nPiYjeGE7PC9zdmc+" vertex="1" parent="1">
          <mxGeometry x="712" y="330" width="48" height="48" as="geometry" />
        </mxCell>
        <mxCell id="LVHQ-mxESrNUFajZh_sA-5" value="" style="shape=image;verticalLabelPosition=bottom;verticalAlign=top;imageAspect=0;aspect=fixed;image=data:image/svg+xml,PHN2ZyB4bWxucz0iaHR0cDovL3d3dy53My5vcmcvMjAwMC9zdmciIHZlcnNpb249IjEiIHZpZXdCb3g9IjAgMCA0OCA0OCIgZW5hYmxlLWJhY2tncm91bmQ9Im5ldyAwIDAgNDggNDgiPiYjeGE7ICAgIDxwYXRoIGZpbGw9IiMzNzQ3NEYiIGQ9Ik00LDM5VjdjMC0yLjIsMS44LTQsNC00aDIyYzIuMiwwLDQsMS44LDQsNHYzMmMwLDIuMi0xLjgsNC00LDRIOEM1LjgsNDMsNCw0MS4yLDQsMzl6Ii8+JiN4YTsgICAgPHBhdGggZmlsbD0iI0JCREVGQiIgZD0iTTMwLDZIOEM3LjQsNiw3LDYuNCw3LDd2MjljMCwwLjYsMC40LDEsMSwxaDIyYzAuNiwwLDEtMC40LDEtMVY3QzMxLDYuNCwzMC42LDYsMzAsNnoiLz4mI3hhOyAgICA8cmVjdCB4PSIxNSIgeT0iMzkiIGZpbGw9IiM3ODkwOUMiIHdpZHRoPSI2IiBoZWlnaHQ9IjIiLz4mI3hhOyAgICA8cGF0aCBmaWxsPSIjRTM4OTM5IiBkPSJNMjQsNDFWMTdjMC0yLjIsMS44LTQsNC00aDEyYzIuMiwwLDQsMS44LDQsNHYyNGMwLDIuMi0xLjgsNC00LDRIMjhDMjUuOCw0NSwyNCw0My4yLDI0LDQxeiIvPiYjeGE7ICAgIDxwYXRoIGZpbGw9IiNGRkYzRTAiIGQ9Ik00MCwxNkgyOGMtMC42LDAtMSwwLjQtMSwxdjIyYzAsMC42LDAuNCwxLDEsMWgxMmMwLjYsMCwxLTAuNCwxLTFWMTdDNDEsMTYuNCw0MC42LDE2LDQwLDE2eiIvPiYjeGE7ICAgIDxjaXJjbGUgZmlsbD0iI0E2NjQyQSIgY3g9IjM0IiBjeT0iNDIuNSIgcj0iMS41Ii8+JiN4YTs8L3N2Zz4=" vertex="1" parent="1">
          <mxGeometry x="850" y="282" width="48" height="48" as="geometry" />
        </mxCell>
        <mxCell id="LVHQ-mxESrNUFajZh_sA-6" value="" style="shape=image;verticalLabelPosition=bottom;verticalAlign=top;imageAspect=0;aspect=fixed;image=data:image/svg+xml,PHN2ZyB4bWxucz0iaHR0cDovL3d3dy53My5vcmcvMjAwMC9zdmciIHZlcnNpb249IjEiIHZpZXdCb3g9IjAgMCA0OCA0OCIgZW5hYmxlLWJhY2tncm91bmQ9Im5ldyAwIDAgNDggNDgiPiYjeGE7ICAgIDxwYXRoIGZpbGw9IiNFMzg5MzkiIGQ9Ik04LDQxVjdjMC0yLjIsMS44LTQsNC00aDI0YzIuMiwwLDQsMS44LDQsNHYzNGMwLDIuMi0xLjgsNC00LDRIMTJDOS44LDQ1LDgsNDMuMiw4LDQxeiIvPiYjeGE7ICAgIDxwYXRoIGZpbGw9IiNGRkYzRTAiIGQ9Ik0zNiw2SDEyYy0wLjYsMC0xLDAuNC0xLDF2MzFjMCwwLjYsMC40LDEsMSwxaDI0YzAuNiwwLDEtMC40LDEtMVY3QzM3LDYuNCwzNi42LDYsMzYsNnoiLz4mI3hhOyAgICA8Y2lyY2xlIGZpbGw9IiNBNjY0MkEiIGN4PSIyNCIgY3k9IjQyIiByPSIxLjUiLz4mI3hhOzwvc3ZnPg==" vertex="1" parent="1">
          <mxGeometry x="980" y="330" width="48" height="48" as="geometry" />
        </mxCell>
        <mxCell id="LVHQ-mxESrNUFajZh_sA-7" value="" style="shape=image;verticalLabelPosition=bottom;verticalAlign=top;imageAspect=0;aspect=fixed;image=data:image/svg+xml,PHN2ZyB4bWxucz0iaHR0cDovL3d3dy53My5vcmcvMjAwMC9zdmciIHZlcnNpb249IjEiIHZpZXdCb3g9IjAgMCA0OCA0OCIgZW5hYmxlLWJhY2tncm91bmQ9Im5ldyAwIDAgNDggNDgiPiYjeGE7ICAgIDxwYXRoIGZpbGw9IiM1NDZFN0EiIGQ9Ik00LDI4VjhjMC0yLjIsMS44LTQsNC00aDI4YzIuMiwwLDQsMS44LDQsNHYyMGMwLDIuMi0xLjgsNC00LDRIOEM1LjgsMzIsNCwzMC4yLDQsMjh6Ii8+JiN4YTsgICAgPHBhdGggZmlsbD0iI0JCREVGQiIgZD0iTTM2LDdIOEM3LjQsNyw3LDcuNCw3LDh2MjBjMCwwLjYsMC40LDEsMSwxaDI4YzAuNiwwLDEtMC40LDEtMVY4QzM3LDcuNCwzNi42LDcsMzYsN3oiLz4mI3hhOyAgICA8cGF0aCBmaWxsPSIjMzc0NzRGIiBkPSJNMzgsMzNINmMtMi4yLDAtNC0xLjgtNC00djBoNDB2MEM0MiwzMS4yLDQwLjIsMzMsMzgsMzN6Ii8+JiN4YTsgICAgPHBhdGggZmlsbD0iI0UzODkzOSIgZD0iTTI0LDQwVjE2YzAtMi4yLDEuOC00LDQtNGgxMmMyLjIsMCw0LDEuOCw0LDR2MjRjMCwyLjItMS44LDQtNCw0SDI4QzI1LjgsNDQsMjQsNDIuMiwyNCw0MHoiLz4mI3hhOyAgICA8cGF0aCBmaWxsPSIjRkZGM0UwIiBkPSJNNDAsMTVIMjhjLTAuNiwwLTEsMC40LTEsMXYyMmMwLDAuNiwwLjQsMSwxLDFoMTJjMC42LDAsMS0wLjQsMS0xVjE2QzQxLDE1LjQsNDAuNiwxNSw0MCwxNXoiLz4mI3hhOyAgICA8Y2lyY2xlIGZpbGw9IiNBNjY0MkEiIGN4PSIzNCIgY3k9IjQxLjUiIHI9IjEuNSIvPiYjeGE7PC9zdmc+" vertex="1" parent="1">
          <mxGeometry x="695" y="462" width="48" height="48" as="geometry" />
        </mxCell>
        <mxCell id="LVHQ-mxESrNUFajZh_sA-8" value="" style="shape=image;verticalLabelPosition=bottom;verticalAlign=top;imageAspect=0;aspect=fixed;image=data:image/svg+xml,PHN2ZyB4bWxucz0iaHR0cDovL3d3dy53My5vcmcvMjAwMC9zdmciIHZlcnNpb249IjEiIHZpZXdCb3g9IjAgMCA0OCA0OCIgZW5hYmxlLWJhY2tncm91bmQ9Im5ldyAwIDAgNDggNDgiPiYjeGE7ICAgIDxwYXRoIGZpbGw9IiMzNzQ3NEYiIGQ9Ik0xMiw0MFY4YzAtMi4yLDEuOC00LDQtNGgxNmMyLjIsMCw0LDEuOCw0LDR2MzJjMCwyLjItMS44LDQtNCw0SDE2QzEzLjgsNDQsMTIsNDIuMiwxMiw0MHoiLz4mI3hhOyAgICA8cGF0aCBmaWxsPSIjQkJERUZCIiBkPSJNMzIsN0gxNmMtMC42LDAtMSwwLjQtMSwxdjI5YzAsMC42LDAuNCwxLDEsMWgxNmMwLjYsMCwxLTAuNCwxLTFWOEMzMyw3LjQsMzIuNiw3LDMyLDd6Ii8+JiN4YTsgICAgPHJlY3QgeD0iMjEiIHk9IjQwIiBmaWxsPSIjNzg5MDlDIiB3aWR0aD0iNiIgaGVpZ2h0PSIyIi8+JiN4YTs8L3N2Zz4=" vertex="1" parent="1">
          <mxGeometry x="1010" y="440" width="48" height="48" as="geometry" />
        </mxCell>
        <mxCell id="LVHQ-mxESrNUFajZh_sA-9" value="" style="shape=image;verticalLabelPosition=bottom;verticalAlign=top;imageAspect=0;aspect=fixed;image=data:image/svg+xml,PHN2ZyB4bWxucz0iaHR0cDovL3d3dy53My5vcmcvMjAwMC9zdmciIHZlcnNpb249IjEiIHZpZXdCb3g9IjAgMCA0OCA0OCIgZW5hYmxlLWJhY2tncm91bmQ9Im5ldyAwIDAgNDggNDgiPiYjeGE7ICAgIDxwYXRoIGZpbGw9IiM0NTVBNjQiIGQ9Ik00LDMxVjhjMC0yLjIsMS44LTQsNC00aDEyYzIuMiwwLDQsMS44LDQsNHYyM2MwLDIuMi0xLjgsNC00LDRIOEM1LjgsMzUsNCwzMy4yLDQsMzF6Ii8+JiN4YTsgICAgPHBhdGggZmlsbD0iI0JCREVGQiIgZD0iTTIwLDdIOEM3LjQsNyw3LDcuNCw3LDh2MjFjMCwwLjYsMC40LDEsMSwxaDEyYzAuNiwwLDEtMC40LDEtMVY4QzIxLDcuNCwyMC42LDcsMjAsN3oiLz4mI3hhOyAgICA8Y2lyY2xlIGZpbGw9IiMzNzQ3NEYiIGN4PSIxNCIgY3k9IjMyLjUiIHI9IjEuNSIvPiYjeGE7ICAgIDxwYXRoIGZpbGw9IiM1NDZFN0EiIGQ9Ik0xNCwzNlYxM2MwLTIuMiwxLjgtNCw0LTRoMTJjMi4yLDAsNCwxLjgsNCw0djIzYzAsMi4yLTEuOCw0LTQsNEgxOEMxNS44LDQwLDE0LDM4LjIsMTQsMzZ6Ii8+JiN4YTsgICAgPHBhdGggZmlsbD0iI0JCREVGQiIgZD0iTTMwLDEySDE4Yy0wLjYsMC0xLDAuNC0xLDF2MjFjMCwwLjYsMC40LDEsMSwxaDEyYzAuNiwwLDEtMC40LDEtMVYxM0MzMSwxMi40LDMwLjYsMTIsMzAsMTJ6Ii8+JiN4YTsgICAgPGNpcmNsZSBmaWxsPSIjMzc0NzRGIiBjeD0iMjQiIGN5PSIzNy41IiByPSIxLjUiLz4mI3hhOyAgICA8cGF0aCBmaWxsPSIjRTM4OTM5IiBkPSJNMjQsNDBWMThjMC0yLjIsMS44LTQsNC00aDEyYzIuMiwwLDQsMS44LDQsNHYyMmMwLDIuMi0xLjgsNC00LDRIMjhDMjUuOCw0NCwyNCw0Mi4yLDI0LDQweiIvPiYjeGE7ICAgIDxwYXRoIGZpbGw9IiNGRkYzRTAiIGQ9Ik00MCwxN0gyOGMtMC42LDAtMSwwLjQtMSwxdjIwYzAsMC42LDAuNCwxLDEsMWgxMmMwLjYsMCwxLTAuNCwxLTFWMThDNDEsMTcuNCw0MC42LDE3LDQwLDE3eiIvPiYjeGE7ICAgIDxjaXJjbGUgZmlsbD0iI0E2NjQyQSIgY3g9IjM0IiBjeT0iNDEuNSIgcj0iMS41Ii8+JiN4YTs8L3N2Zz4=" vertex="1" parent="1">
          <mxGeometry x="848" y="540" width="48" height="48" as="geometry" />
        </mxCell>
        <mxCell id="LVHQ-mxESrNUFajZh_sA-10" value="" style="endArrow=classic;startArrow=classic;html=1;strokeColor=#000099;" edge="1" parent="1">
          <mxGeometry width="50" height="50" relative="1" as="geometry">
            <mxPoint x="930" y="414" as="sourcePoint" />
            <mxPoint x="980" y="364" as="targetPoint" />
          </mxGeometry>
        </mxCell>
        <mxCell id="LVHQ-mxESrNUFajZh_sA-11" value="" style="endArrow=classic;startArrow=classic;html=1;strokeColor=#000099;exitX=1;exitY=0.5;exitDx=0;exitDy=0;" edge="1" parent="1" source="LVHQ-mxESrNUFajZh_sA-3" target="LVHQ-mxESrNUFajZh_sA-8">
          <mxGeometry width="50" height="50" relative="1" as="geometry">
            <mxPoint x="970" y="530" as="sourcePoint" />
            <mxPoint x="1020" y="480" as="targetPoint" />
          </mxGeometry>
        </mxCell>
        <mxCell id="LVHQ-mxESrNUFajZh_sA-13" value="" style="endArrow=classic;startArrow=classic;html=1;strokeColor=#000099;entryX=0.5;entryY=0;entryDx=0;entryDy=0;exitX=0.5;exitY=1;exitDx=0;exitDy=0;" edge="1" parent="1" source="LVHQ-mxESrNUFajZh_sA-22" target="LVHQ-mxESrNUFajZh_sA-9">
          <mxGeometry width="50" height="50" relative="1" as="geometry">
            <mxPoint x="880" y="470" as="sourcePoint" />
            <mxPoint x="930" y="420" as="targetPoint" />
          </mxGeometry>
        </mxCell>
        <mxCell id="LVHQ-mxESrNUFajZh_sA-14" value="" style="endArrow=classic;startArrow=classic;html=1;entryX=0.5;entryY=0;entryDx=0;entryDy=0;exitX=0.533;exitY=1.306;exitDx=0;exitDy=0;strokeColor=#000099;exitPerimeter=0;" edge="1" parent="1" source="LVHQ-mxESrNUFajZh_sA-34" target="LVHQ-mxESrNUFajZh_sA-3">
          <mxGeometry width="50" height="50" relative="1" as="geometry">
            <mxPoint x="880" y="470" as="sourcePoint" />
            <mxPoint x="930" y="420" as="targetPoint" />
          </mxGeometry>
        </mxCell>
        <mxCell id="LVHQ-mxESrNUFajZh_sA-15" value="" style="endArrow=classic;startArrow=classic;html=1;exitX=0.5;exitY=0;exitDx=0;exitDy=0;strokeColor=#009900;" edge="1" parent="1" source="LVHQ-mxESrNUFajZh_sA-2">
          <mxGeometry width="50" height="50" relative="1" as="geometry">
            <mxPoint x="880" y="470" as="sourcePoint" />
            <mxPoint x="870" y="350" as="targetPoint" />
          </mxGeometry>
        </mxCell>
        <mxCell id="LVHQ-mxESrNUFajZh_sA-17" value="" style="endArrow=classic;startArrow=classic;html=1;strokeColor=#009900;entryX=1;entryY=0.5;entryDx=0;entryDy=0;" edge="1" parent="1" target="LVHQ-mxESrNUFajZh_sA-7">
          <mxGeometry width="50" height="50" relative="1" as="geometry">
            <mxPoint x="800" y="440" as="sourcePoint" />
            <mxPoint x="930" y="420" as="targetPoint" />
          </mxGeometry>
        </mxCell>
        <mxCell id="LVHQ-mxESrNUFajZh_sA-18" value="" style="endArrow=classic;startArrow=classic;html=1;strokeColor=#009900;exitX=0.5;exitY=0;exitDx=0;exitDy=0;entryX=0.5;entryY=1;entryDx=0;entryDy=0;" edge="1" parent="1" source="LVHQ-mxESrNUFajZh_sA-19" target="LVHQ-mxESrNUFajZh_sA-2">
          <mxGeometry width="50" height="50" relative="1" as="geometry">
            <mxPoint x="880" y="470" as="sourcePoint" />
            <mxPoint x="930" y="420" as="targetPoint" />
          </mxGeometry>
        </mxCell>
        <mxCell id="LVHQ-mxESrNUFajZh_sA-19" value="Master Ⅰ" style="text;html=1;resizable=0;autosize=1;align=center;verticalAlign=middle;points=[];fillColor=none;strokeColor=none;rounded=0;" vertex="1" parent="1">
          <mxGeometry x="789" y="462" width="70" height="20" as="geometry" />
        </mxCell>
        <mxCell id="LVHQ-mxESrNUFajZh_sA-21" value="" style="endArrow=classic;startArrow=classic;html=1;strokeColor=#009900;exitX=0.5;exitY=0;exitDx=0;exitDy=0;entryX=0.5;entryY=1;entryDx=0;entryDy=0;" edge="1" parent="1" source="LVHQ-mxESrNUFajZh_sA-9" target="LVHQ-mxESrNUFajZh_sA-19">
          <mxGeometry width="50" height="50" relative="1" as="geometry">
            <mxPoint x="872" y="540" as="sourcePoint" />
            <mxPoint x="824" y="462" as="targetPoint" />
          </mxGeometry>
        </mxCell>
        <mxCell id="LVHQ-mxESrNUFajZh_sA-22" value="Master Ⅱ" style="text;html=1;resizable=0;autosize=1;align=center;verticalAlign=middle;points=[];fillColor=none;strokeColor=none;rounded=0;" vertex="1" parent="1">
          <mxGeometry x="871" y="462" width="70" height="20" as="geometry" />
        </mxCell>
        <mxCell id="LVHQ-mxESrNUFajZh_sA-23" value="" style="endArrow=classic;startArrow=classic;html=1;strokeColor=#000099;entryX=0.5;entryY=0;entryDx=0;entryDy=0;exitX=0.5;exitY=1;exitDx=0;exitDy=0;" edge="1" parent="1" source="LVHQ-mxESrNUFajZh_sA-3" target="LVHQ-mxESrNUFajZh_sA-22">
          <mxGeometry width="50" height="50" relative="1" as="geometry">
            <mxPoint x="906" y="462" as="sourcePoint" />
            <mxPoint x="872" y="540" as="targetPoint" />
          </mxGeometry>
        </mxCell>
        <mxCell id="LVHQ-mxESrNUFajZh_sA-25" value="" style="shape=image;verticalLabelPosition=bottom;labelBackgroundColor=#ffffff;verticalAlign=top;aspect=fixed;imageAspect=0;image=data:image/png,iVBORw0KGgoAAAANSUhEUgAAAMoAAABGCAYAAACNFwsLAAAIUUlEQVR4Ae1d30sVQRTuf5KiogTLJB8Ss+iKVJZaEFlQFBEVlGBIEvTzoYcQgygkX4TIEIV+Z/RQSEVBkEYPEQVWUlI48S2dy+zM7r1z79297t77Hbic3dkzszPfnG93Z/bM3iWKQgSIQF4EluS1oAERIAKKRKETEAEHBEgUB5BoQgRIFPoAEXBAgERxAIkmRIBEoQ8QAQcESBQHkGhCBEgU+gARcECARHEAiSZEgEShDxABBwRIFAeQaEIESBT6ABFwQIBEcQCJJkSARKEPEAEHBEgUB5BoQgRiJ8rc3Jx6/vy5unv3rrpx44a6cuVK9nf27FnV29vLXiACiUcgVqI8ffpUbdiwQdXU1IT+9u7dm3iQWMF0I/D+/Xv16dOnkhoRK1GuX78eShAhz6VLl0pqADMTgVwI4AkGvrZ79+5cZnmPxUoUsBiPXWNjY97j1r59+yzijI+P560kDYhAoQjcu3dPdXR0ZP0t0UQxGyfslrvJ6tWr1bdv30wz7hOBghH48OGDAjkGBwdVZ2dnliDia6kiyq5du3wNOHToUMGAMAMREATg/JlMRi1fvtznV0IOXaeGKH///rUaMzQ0JG2mJgIFI6ATQbYbGxvV8ePHLV9LDVGePHliVf7du3cFg8MMREAQgPMfOXLEG/9iHDw9PS2HLF9LDVEuXLjgq/y6deuyjeIGEYgaAbnDiE4NUbZt2+YjCt+fRO0aLE9HQAgiOhVEwdt5qbDoixcv6u3iNhGIFAHxM9GpIAqm7aTCopFGIQJxISB+JjoVREFMl1RYNO4yFCIQFwLiZ6JTQZS2tjYfUbZv354Xn/n5efXx40fvzf7nz5/z2tOACOgICEFEJ54oP3/+9JEEFc8V3/Xlyxdvum/9+vW+fCdPniw5sE0HktuVjYAQRHTiiXL//n2fw6Pik5OTgb30bPKZamlp8exXrFihNm3a5AWzSWPPnz8fmI+JRMBEQHxGdOKJcu7cOYsoZqOwjxdGK1eu9GwxppHHLQRNnjhxwkvfunVrUFamEQELASGI6MQTZefOnT6iIKLTFJBEGoRtyOzsrO9uIsfNvNy3EUDEdlJ+du3KkyL+IjrRRPn9+7daunRplgSotPn4NDAw4B3H3USPJMadRBopGovAKLkRwAVG8EqCxqrWxRCz7YkmyqNHj6xO09+f3Llzxzu+ZcsW9ePHDx+eR48etfJ2dXX5bLhjI4CLzYEDB7y7MZxjsX+YnFkMSRVRLl++bDm7LMmcmJjwju3YsUPNzMxYWN66dcvKOzE+YdmFJbx48cJzGKyBKaeg3qVevcpZ30o9V6qIsmfPHp+zb9682esXTPWiIadOnbLuJHrH3bx507Pbv3+/GhkZ0Q+Fbr9+/dr7YIUAVS6i3L59WyF+Tc4bWkEeKAsC0g+iS714xbYU+M+fP6q2tjbrOKhwf39/dq0A1tNHISDCmTNnFJYZNzc3+86Hc8ZBFAyUUS7WPbS3t6u6ujrrvFG0jWUUj4AQRHRiiYJ3JVJJUw8PD6tXr16pX79+FY/E/5wAQMpftWqVwqOcnhYXUeSc0E1NTdkpbEkvuWEsoCQEpB9EJ5YoV69ezTqwVNbU9fX1qq+vT+FxqVjB1f3Nmze+GbNyEAXnRYgNQm0g2NfbV2x7mC8aBPS+wHZiiXLw4EGf47S2tqrDhw+rtWvX+tKlQVGG3cdNlKCuJFGCUFm8NPEr0YkkysLCgmpoaPARAl/HEJmamvINfKUxGNxHISRKFCimuwzxKdGJJMrLly99JEFlgx6vMH6Qhoh+/PhxyT1EopQMYeoLEH8SnUiiXLt2zSKAPMvrPYCPS0hDREcx+K5mooSF/gi+5dZhAbC6H8SxbbYzkUQxxyeI9woT3anRuO7ubssUb/gRvuLaWL3MKIhnVSggIUljFExZm46yWPskSoCzIAnxXcuWLfN1FKKBw0R3anRmT0+PZXr69GmvPLyodBG9zGokigtGlW5jXhhcL7JhuET+whFjDLOSuNqGifmS0HRsLBnGR81QJu4sLkKiuKBU2TamDyaOKIgONiupRwWb3WPamoP50dFRr7yg8HyzLNknUQSJ6tWmXyWOKIjL0iuJyOBcYv5/CpYO64IxC8pD3JerkCiuSFWune6D2E4cUUzHzzU+QTchdF5vFJYOi0hQJB7Pvn79Ksl5NYmSF6KKMMAjvfnD96zxmVXdp2Qbj/UPHz608uQaGghQkY5Rvn//blUw37jCXFMPJ0fFJcIYjXzw4IHU10mTKE4wpd5I72chQzHaHBcHARMpUbDWRK+o6xp3VNSMNJZyilkhpwPoAkIQMIWmgdxSZ2hK/Ajo/axjX+i2i49EShRAg8hgNAAhK4V85A7/s4d4r2PHjnn5EVSJCONiRAfQBYRizmHmIVFMROLfB+ayELDYsyFiBOXkk8iJku+E5ThOopQD5eo6B4kSUX/zjhIRkAkthkQxOgaPgK7LjvWsJIqORuVtkyhan+ofE8c0N6YSXYVEcUUqnXYkitZveDmqz5i4xpahCBJFA7ICN1NPFMxq6T99IC9OjzR86wrLjmELpw4SsReNVZlhop8T5Zokwznxw+dgMZsHe0p6EagIoohju+owouBzrvKRcJSFr1eGieu5xA6koaQXgdQTBU6PiABXefv2begdRcpAmXgPtGbNGkmydBjZLEOlvPoVYh9UBtMWF4HUEyUu+PBJ10wmE1fxLDdlCJAoIR22ceNGb1wTcpjJVYYAiRLQ4RKoqUcyB5gxqYoQIFECOhszZPhRiIAgQKIIEv81pnExU8W7iQFMle+SKJoDIHwFJOE7Dw0UbnoIkCiGI5AkBiDcJVHoA0TAFYF/MzCeWUZMkawAAAAASUVORK5CYII=;" vertex="1" parent="1">
          <mxGeometry x="685.17" y="386.6" width="48.86" height="16.93" as="geometry" />
        </mxCell>
        <mxCell id="LVHQ-mxESrNUFajZh_sA-26" value="" style="shape=image;verticalLabelPosition=bottom;labelBackgroundColor=#ffffff;verticalAlign=top;aspect=fixed;imageAspect=0;image=data:image/png,iVBORw0KGgoAAAANSUhEUgAAAMEAAABHCAYAAAC+qyNZAAAIC0lEQVR4Ae1d68sNQRz2P0nCG97iA5HLB15JLkXeN5dEiSi5FaVIPiglXoS8rygit9yvhZRQriXJJ3eRRs/WnH4zO3vO7O6ctWf3mTrt7J6Z+f3mmefZc2Z2ZnaIYiACNUdgSM3rz+oTAUURkAS1R4AiqD0FCABFQA7UHgGKoPYUIAAUATlQewQogtpTgABQBORA7RHIJYKnT5+qBw8eND6XL19WJ06cUHv37lWLFi1Sb9++rT3ABKD8CGQWwZYtW9TQoUObfj5//lx+BOhhxyGAG2/IkFkEkydPbiqA7u7ukH6yLCKgPnz4oJYvXx7xLqQQMosAf3nw2bRpk+rp6YkJYunSpWw2IhAEge/fv6uBgQE1c+bMBs9KIQK7dvZfIwiEgQhkQeDr16/q4cOH6uTJk2rbtm1qwoQJDfJrnpVOBLdv3445+fz58yz1Z56aIgBSYzBl0qRJMS5p4stj6USwc+dOw3H0FxiIQBoEQGpJchl39T9LJ4LZs2cbFdixY0ea+jMtEYiG2fFLsHLlSrV582a1Z88ede7cuWiYHX+tpSgQL5UI/vz501YHyQ8iUHoRPHr0KCYC9OYZiEAoBEovgkOHDhkimDZtWqi6sxwiECFQehGsWLHCEMHatWvZdEQgKAKlF8GoUaMMERw+fDgoACyMCJRaBI8fPzYEgF47nw+QtKERKLUI9u3bZ4hg7NixUf1///4dTalYtWqVmjJliurq6lJz5sxRGzZsUOfPnw+NEcurOAKlFgHGdeX4Lc6vXr2q5s+fb1yXaRA/fvx4xZuN1QuJQGlF8PfvXzVs2DCD7FIUGzduVFeuXFFfvnxRT548iX4ZpBhQMQYi4INAaUXgmi8EkuMR961bt5x1k5XBVOt379450/EiEZAISN7oG2kpnhjjsbZ2SB4/fvwo/Tfi6DTLtNu3bze+50kcAdwoJGb/Mz5jxoy4gwVccYng/v37wSxnXk/Q29sba5w3b940dQx/jexGxDWGZAQuXLgQw8zGsKjz/7VQyiWCO3fuJIOW8ptMIsB879GjRxuNA0dbBYwa2Q2WZkgVHWqsay4yvHjxIlrQUaRN2xZ++svysX0r4twlgps3bwYznUkE169fj5H57t27LZ16//59LB86z60CiL9+/foor4/YWpXn8z3mP2HTgPHjx0d2ffIwTXsQcIng2rVrwYxlEsGuXbsMMo8bN87LIdfDtQMHDsTyol+BOx9WFtkL+tslgp8/f6pnz55FzzFgA8835K9WzEleKAwBlwh8bp6+DmYSwfTp0w2CYA64Tzh27JiRDyTr7+83ssphVklCHW+HCFwga3v6aDjJk0IRcLXPxYsXg/mQWgS4S2ti6OPg4KCXQ2vWrInlPXXqlJEXIli9erXCwhx0ChG0HRzbJYIlS5YoPNtA+S9fvow91zCc5EmhCLhEEHLmQWoRuEYrXr9+7QXKxIkTDUKD1Niwq1Votwhc9m3gXWl4rRgE7LYAH86cORPMeGoR2M8HRowY4eUMhk8lmXXc56GHTosjACki2MAXYZM23AjYbQEenD592p04w9XUIsD6T0nKefPmeZlFB1jmQxz7FfkEmY8i8EGsWmlcIsCgSaiQWgToBEtSbt261csXvXOYzIuOsk+QeeooAtS5LB+f9gqdxiUCDF+HCqlFYI/e+DiDPUnHjBljiGfkyJGq2RQLWcE6i8BFAIlH0XGfv6+y7ULEXRj43kB97KcWAZZPSuAx9t8qnD171siD/Gm2ZZH2AEgRwQa+CJtJNnDjKcNn3bp1SS629brdFuBDyBWMqUVgd4x9dpYAeJLIc+fOVT9+/PAGTuatowi8gapoQpcIDh48GKy2qUWAjVElKVvN/bl3756RHnnTTn6S9iiCYG3fMQW5RLB///5g/qcWwY0bNwxSt+oTTJ061UifhcQUQbD27siCXCLA0t5QIbUIYHjBggUNYvf19iX6gvUCksBHjhxJTNvsC1lGFhE1KzvpOxv4pHS83n4E7LYAH0LyIJMI7MUxcOjbt28NNLDqzH5ngT09opHYI0IReIBUgSTgkf5gkuayZcuiAQHZ/jKOGQh6wABTcnbv3p1JHJlEALzhrHQI6wtwzR5CXbhwYbT4Pk8bSTuwUUSw61eEzbrbkO2cJ54Wx8wigKFXr14pTDxzOQyVZv37Y1dClk8R2OhU51zf1fMe0yKSSwTaGFZfYUITpkZcunRJ4fzXr1/669xHiiA3hCygCQJBRNCk/CBfUQRBYGQhCQhQBAnAsE+QAEwFL1deBCBzlgcrFEEF2Z5QpUqLACvF5F+pT58+JcAQv0wRxDGp6pXSiwBLHSWRQU7fgA0AZN40E8AoAl+UOz9d6URgD49JEuv4rFmzGg9JkD5peq9Or49Ji3iQX9p1vS0RO27LNIgzVAOBUopAkxZHkA+vgMJO1yA/Xuw8fPhw4w6fJALsTaPfpLN48WKFNQyugPzSJsqHHdiDXdiHHzINReBCsjOvlU4E7YIRb0b/X3tptqtOLDcMArURQV9fX/SSkDCwsZQqIVAbEWAax9GjR6vUdqxLIARqIQK9VxLfhxCINRUrphYiQOfWd6vIirUvq+OBQOVFgPF+jOy0WgbqgRWTVBSBSotAP/DSe5pWtA1ZrZwIVFoEwIYCyMmQGmSvvAhq0IasYk4EKIKcADJ75yNAEXR+G7IGORGgCHICyOydjwBF0PltyBrkRIAiyAkgs3c+AhRB57cha5ATAYogJ4DM3vkI/AO9l6878JT+KgAAAABJRU5ErkJggg==;" vertex="1" parent="1">
          <mxGeometry x="728.45" y="405" width="44.37" height="16.32" as="geometry" />
        </mxCell>
        <mxCell id="LVHQ-mxESrNUFajZh_sA-27" value="" style="shape=image;verticalLabelPosition=bottom;labelBackgroundColor=#ffffff;verticalAlign=top;aspect=fixed;imageAspect=0;image=data:image/png,iVBORw0KGgoAAAANSUhEUgAAAPIAAABQCAYAAAAjvChBAAANL0lEQVR4Ae1dB6vUTBd+/5NdLKhXUMFy7b2i8r02xIZYsDfsBVGu2FCxF+xi7yJW1KvYG3ZR7IV5efJxwuRsymST7M1mz4FlssnM5Mwz58lMzpT8o0QEAUGg6BH4p+hLIAUQBAQBJUQWIxAEMoCAEDkDlShFEASEyGIDgkAGEBAiZ6ASpQiCgBBZbEAQyAACQuQMVKIUQRAQIosNCAIZQECInIFKlCIIAkJksQFBIAMICJEzUIlSBEFAiCw2IAhkAAEhcgYqUYogCAiRxQYEgQwgIETOQCVKEQQBIbLYgCCQAQRiI/LXr1/V5cuX1ZEjR9SWLVvUihUr7N+8efPU9OnTMwCXFEEQSCcCsRD5+/fvqmPHjqpatWqev0GDBqUTAdGqqBH4+fOnevDggXry5EnRlQON34ABA6zfmDFjIukfC5ErKys9CUzkXrhwYSRFJbEgQAg8fPhQzZw5M6fxKCsrU0OHDlV79uxR3759o+ipDRctWmTzBoSOIrEQGV1q/E6dOmV1p6EUEZjC48ePR9FT0goCFgLLli1TDRo0cNhX69atFX5kawhbtmypNmzYkFrUrl275tA3FUTmaIHUOqg4/vjxI48m/wWBUAig+6nb1aRJk9SjR4/sPHCMc3qcESNGqHfv3tlx0nIwfPhwh56pJPLy5csdSrZt2zYt+IkeRYoAJ/GxY8c8S4JrOpnT5p+pqKhw6AddU0nkfv36ORSdPHmyJ+hyQRAIQoAbPt6BgwTdap3M27dvD0pSkOunT5926EU6po7Iv379ylF07969BQFJbpI9BL58+aJatWpl2xTehU2lWbNmdrry8nL14cMH06SJxHv79m2Ogy61RD579qwNHin5+vXrRICRTLOPwKZNmxz2NHLkSONC8/fQrVu3GqdNIiJ6puBE//79HWXCudS1yLpLHQq2a9cuCUwkzxJBoEuXLg6jX716tXHJEZcaE4SjRo0yTht3xEOHDtm6uDmDU0fk7t272woDvNmzZ8eNieRXIgjcvn3bYUuwp3379hmXHnF1Ijdq1Mg4bZwRP336ZHep4QiG6HrhOFVExvsMV9DPuxgnWJJX9hCAg4rbE1ozU3Fr+c6fP2+aPLZ48+fPt8oBJ/Dfv3+tfHm5UkVkTPrgCmIamoggkA8CmJ/P7enevXvGWSEuT1/oGYZ4cJAOFy9etHWncxSmishz5syxlYaCPXv2tBX3O4Az7Pr16+rp06d+0eRaiSHAX9NgU2Ecp4hLRKGwb9++BUWRHFuYkaYL6UNhqojcoUMHB3BLly7VdXccv3//Xq1bt0517tzZkWbIkCFCaAdSpfuHjFwPf/z4YQwI4uppcdy+fXvj9FEjYgUg7tmnTx/1+/dvR3Zcr9QQGcTkyuldCb0Uly5eUpjthfh16tSxPNsoCKUfO3asHl2OSxABLHoge9DDsFDoaXHctGnTsFnkFf/SpUu2/m7v5Vyv1BBZd6+Tkm4IYL1y3bp1rUJiXuyLFy+saCD9tGnTLGIjPQbPRUoXAbeGAXYRVsgWKaxVq1bYLELH//Pnj6LZjYsXL3ZNT/pQmBoig4SkFEK3dxGQGNfq16+vtm3bZheQT3RHnDDeSTujEjuATwE4peEXN/R4wOv2RMdh70Pp9BCjK0kK3odxv169eimsl3YTXR8cp4bIfBkZJoboQoPzbdq0sRxbdO3WrVuuFSbebkLIO9RfR7hhFPo/3gfjlPv377vaRdh7uOFAvcCweZnE173UZ86c8UzC9UoFkV++fJkD+smTJ+1CHDhwwLresGFDazcH+4JSOcvOUEA4B0SCEUBPBgaQhl/cPaibN2/m2BRsI6xwwuD/nTt3wmZjFB+tb+/evS29eUPGM+B6pYLIu3fvzgH91atXlu7YbABK473YrZuBlSy8UMeOei9R44A8e/ZMYf5t3C0Cvw9mCWF4DcvpAPrUqVPV2rVrlf7A4mnkf/4IXLlyJccuYCdhhdsW/iPvJATvw8i/R48egTuUcL1SQeQJEyY4QO/UqZOFE7nfsZ+XnyAeVqrgncJ0uRkG+zG4Dy8kQEmSyHx8nFcCyF2Me0b51UlVX7t7967DpgjzsHpROj1E3nELutF0DzReQUJxKUwFkZs3b24XAophShrNyolrKAlEBaEwzoz3bAKAwqSIrD8ozp07p+AogUcdW7XgwUP3R5jmrWWCDCtt19HT0rGl47B6Ujo9RN5xCvw5aIVxD9i+iej64LjKifz48WNXwKHckiVLFJxZ2GUzqqCgVPh69epZ7yL6uSSIPHfuXOueXnl//vxZYSsZ0gshZqiJREcgqeEn1BHyjlMWLFhg2UC3bt2sB71J3rrN4LjKiYw1nlwp/h+rTsaPH68uXLhgUkbXOHCmwEmhLw5Pksi4D8rRokULtX//foUVLG5y9epVR/ndht3c0sk5fwTw8Od2hP9hBLOp3PKIo2EhPeAjoXucOHGCTgeGlIbCKify6NGj7YJAqWHDhlndaqxDJiX10Kt1Cyy5S4QkiYwHh673v//710WD/5/CnlB6XPRCRKIjgPkGOq449nqgut3NrVVHnnEJemRdu3a1dMRHGMIIL1eVE7lx48YOsPXJ4Tdu3FDcyFGAqEoTYEkSme/5BL29HFpwuukVgy9tiERHgGZH6dg+f/7cOGPsf62nxTHyjEv4w57fK+r/MDyJtK+1m2cRs7e4oBXmhYqjZU6SyPxpjn2SvYQv3wyzHY1XnnJeWZtScLvBZgOmwveORl5xbnSRGSKj5dGBrl27tusyM7d1oZjMEFWSJDJ0w/5j8JBj7ye/IQW+AL5Qa175FrF6XRT6eNeuXVGrMyf95s2bHfaFMmHkwFSOHj2akx55xiUgMhqkfH68fmDLlM/KlSutY4SmEqlF5uPHfjOydNKhEIMHD87REcTBGlTENRE9zzhaeJN7usXhOIRxerjlZ3ouaHybG0uS/916Yqbl8IoH5yjXOcwDw+1BEMXh6qVn2PNuLbmpzXvdKxKR+fxqvxd+nXSonClTpuTohOEqXAMxTETPs6qIjOV26HbrBvfmzRsT9SWOAQLkTCJ8w9Qz910gL1NBLzLu8Wa6d6qITMMzBDBCKOglfBKHW4XQPNXDhw97ZeM4nwYi8ymmQXNsHQWQP4EIrFq1yvGQDON/4I5W5BUk+gwt2DR6mWF2JQnKH9dTRWTu4EGh9TFeXiCd8DjmXSR8twfnMW5rOs6nE1n3lvN7J/kfX/+jssmnceJHmnuew2xQT7PyqH6Ql59gOKlmzZp2fVK6uD85kyoioxtNBUUYNJ9aJx3ic6cFvIk4j89lmoqeZ6EcTLpu6FUQBni3F0kGAWwZRTgjXL9+feCNeLfab9spysxtcwy6r18jRelNw1QRmW8c7vd+jAJyYPXFETt37rQrCg4vU9GJjOmUhRR9Rg+8xyLJIYC5zPxdOehuRECESGuyvp02vtDT0nG+XxMFafUferKcO3QPrE/A/AXEoTRB5aTreTm70AWhm1MYREB8VZ7iIsSCA0x91D2vOrlJQb9QJ3KYltwvT5Nr+u6MQmITxKLHAeZYMKPbkJunnJMRaUzfcUH26tWrO+6B+2G2Yr6CISRd5zDHsG9TyYvIfBsW026l3hXlBVqzZo2pznY8nchuXnA7YswH5KV2c9jFfCvJTkMAHwikVzCynyZNmlgtHFo5HNN5hIiLNGEEDVKNGjXsfLAkN8oohJ/N67q6HSdOZAADby2+pQMvLVpbU8HTEcNM48aNs8aL4UnMd26yTuSJEyeaqhApHt1TSBwJxkiJ8XVPqgcvAkT9Aii2GvKakhtGeXSR88kHS2WR1lTyapFNM086nl6Zca179tOZ7rdnt/f3ebH6SbrbfijGdw2tLXaiQUOAH47DtsDxaVO1OWWGyEl/aY9IjD25vQRbGWGttIlX1SsPOS8I5INAZoiM+dBhBO/5eD0wESLxjh07fKNjUwF09Q4ePOgbTy4KAnEjkBkiu83d9gIL70/0bgXHld+2pTNmzLDiYrYZDQnoIcbDMbkF78z0Ye0w7zZeOsp5QSAMApkh8sCBA43LTS0skdlrJdbGjRttwlNck9BkzNJYWYkoCBggUDRERoun/zgZQTCcQ6s4a9YsK65Xy8jJiA/JccEwBI9n8r+8vJxnJf8FgcQRKCoimxBJj+NFZEwa0D/ZiT23ueChoedleoyHiYggUGgEiobIIGWYT30grheRCWRcr6ysVNgckAuu5fvjecl/QSBpBIqGyEkBUVFRUdBv5iZVDsm3tBEoeSJjDbR0h0ubBFkofUkTmb5LhcUbIoJAMSNQ0kSGhxvjyGH2Si7myhbds4tAyRIZH1qHJ9p0dld2TUBKlgUESpLImEpZVlZmjTVnoRKlDIJASRIZ1Y5xYhFBICsIlCyRs1KBUg5BAAgIkcUOBIEMICBEzkAlShEEASGy2IAgkAEEhMgZqEQpgiAgRBYbEAQygIAQOQOVKEUQBITIYgOCQAYQECJnoBKlCIKAEFlsQBDIAAL/AdvpTP3zInCCAAAAAElFTkSuQmCC;" vertex="1" parent="1">
          <mxGeometry x="793.75" y="348" width="56.25" height="18.6" as="geometry" />
        </mxCell>
        <mxCell id="LVHQ-mxESrNUFajZh_sA-28" value="" style="shape=image;verticalLabelPosition=bottom;labelBackgroundColor=#ffffff;verticalAlign=top;aspect=fixed;imageAspect=0;image=data:image/png,iVBORw0KGgoAAAANSUhEUgAAAPgAAABTCAYAAACyCsomAAANyElEQVR4Ae1dh4vUThT+/U9iOwt6FlTsir2joqeevRfs2AuooFiwt7NiRTzs5RRUxIq9iw17OWR+fNE5X2YnyWSTyd1l34Mls8m09837NjNvyv4nWBgBRiC1CPyXWs1YMUaAERBMcDYCRiDFCDDBU9y4rBojwARnG2AEUowAEzzFjcuqMQJMcLYBRiDFCDDBU9y4rBojwARnG2AEUowAEzzFjcuqMQJMcLYBRiDFCDDBU9y4rBojwARnG2AEUowAEzzFjcuqMQJMcLYBRiDFCDDBU9y4rBojwARnG2AEUowAEzzFjcuqMQJMcLYBRiDFCDDBU9y4rBojwARnG2AEUowAEzzFjcuqMQKJEPzmzZvi8uXLZZ/i4mJRVFQkVq5cKfr37y8eP37MLcEIMAIWELBO8FmzZokqVar4fj5+/GhBNc4yFxGALd24cUO8fv260qv/9OnTyDpYJ3iLFi18yV2/fv3ISnAGuY3AxYsXxfDhw4Vqa61atRKTJ08Wx48fF6WlpYmDNGHCBNGhQwenp3r//n2j8p89e+bE79mzp8ObO3fuGKXzimSd4OiG4zN79mxRUFCQQfYhQ4Z41Y3vMwK+CDx48EBMnTo1w6a6du0qmjRp4rrfsmVLceDAAd/84n6I4SftvYLsw4YNc3505s6dK1asWCEWL14spk2bJkaNGuUMV2n8atWqOcPaKPWyTnC1clQBhEF+FkYgLAJv374V3bp1cxFo7dq1Avel4K2JFwu1uU2bNsnH1q8qwWk9gsL5+fni7NmzkeuYKMHPnz/vAhtKXrlyJbISnEFuIfDz508xePBgly35jVcPHTrkirt9+/ZEAMuW4OhtXL16NZY6JkrwJUuWuIDOy8sTaCwWRiAMAqrjFjM0QYKxuHxrYqz+5s2boCSRn2dD8BEjRoio425a8UQJjrGRBBnXwsJCWhcOMwKBCGDcXbNmzTI7wtjVRK5fv16WBraHsa9tCUNw/ABdunQp9iolRnB4MSm5EV61alXsCnGG6UZg6dKlLjsK48OBk4va4PPnz62CJQmOOi5fvlzMnDlTjBw50hleILx69Wpx8OBBZ1rPVkUSIzjGFBRchEsultjSi/NNIQKY227YsKHLjky65xIKEI3a4J49e+QjK1dKcCsFGGSaGMHhvaTgNm7cmMffBg3EUf4hsH//fpcNwZ78nGv/Uv4J7d2715Ue89Q2JacIjoUIlOBjRo+xiS3nnUIEMHdMbQjhME7ac+fOudI3atTIKko5RfBatWq5wE1yPtJqK3LmiSHQu3dvlw3VrVs3VNnozqs/ENeuXQuVR5jIOUNwgJgksGEageNWHgRq1KjhsiNMd4URHcHDOOnClIW4OUNweAspweX681+/fjkr2TDVgXXDtWvXFt27d3eWHx49ejQsnhw/xQhgRyK1IYQx7RpGdASfN29emCxCxc0ZgktFZQPh+8mTJ4Xa5ZLP5XXHjh2hAOXI6UUAyzalXcgr7CiM6Ag+adKkMFmEiivtnvYS8EOFKTMs1oFfCo6+jRs3OstSX7x4ESp/k8jWvei/f/8WVatWdTWOVBwNBSWxlBDb/LAYQZ3KoOCYKMRx0okAdoRJYstrHAS3udlJ2jlsGCvn1BV4Ug96XbRoUawNaJ3guvXnUAjjp1OnTmmVoSRHd/7JkyfaeHwzdxDATjBKBITjIDi2ZdoSSvA2bdo49cdiG2yKgT7gBqb+0IugumGG6evXr7FUyzrB0R2hlZdhvw35WIsr4+Fqc5wUC4oVJBO5h5hiV15h0/3PptDt3LnTZRPQKw6Ct27d2rQKoeNJgss2WLNmjfj27Zs2H2yAkfFw7dGjh3j48KE2bpib1gk+cOBAV8VR+UePHvnW8dOnTxlp3r1755sm1x/iB5MaSHmHMdyKUzZs2JChXxwElw7fOOsq86IENxlq4kVG2238+PEyq6yvVgn++fNngblKWmkTReFdp2kQRnfGVI4dOybgzLAt+KGCsxA6YYx49+5d8ePHD9vFeuYPJ1JF+XhWMssHdNgmbSMOgiMvWyIJbjoM0DkBo84mWSX46dOnM4iK43WCBJsAZCPK6/r164OSOaTG6RhIY/JDEpihRwQ0hFd3uHnz5mL37t0eKfl2tgjA0yxtQV7jIHidOnWyrVJgOtjx5s2bQ21NlWN1qWOXLl3E9+/fA8vyimCV4OrOH2wUMBHdwhh421X58OGDszF+3759GR5KWwSXbxLoMmfOHOeNCeMbO3asywDHjBnDp8WqDRbh+65du1z4ggBxEBx7IiqSwG4kueU1ii1bJXjbtm1dlcVWORNRHQ5QVJ2vlN0fCYJ6jQKKVx2xFxnloGzdUc9qvcMaoFe5fF84U6lqG4fFV9cFtulky6bdFixY4OIMdB43blw2WTlprBFc5/Qx7brCuaA2pkpYNC5+MBYuXCgw5obQNGr8rBEiCXFMEKY5/ATl0nrwDIAfWubPTpw44cIVGMdBcHSBK5JgKErtB+GOHTtmXUVrBAfp1Iqauv2bNWuWkXb/vv2BStLy4iY4HGgy/6FDhwqvTQpY0KCe6Ok3JRioFEdwEIDvRuIvr6bOKwkhHKIyrbz27dtXPq4QV/X8ONQTC8WwYCwbsUZwdf4bx+yYyKtXrzIaAUqaHA4hGw3XuAmOkzdo/hhzewnO1aJx0TVkiYaAzi7gkAojuv3kM2bMCJOFcVzYC450xqmuYQ5Q1A0jYEv37t0zLptGtEZwHElDjbxXr160XM8wpgVoOoSxAcVEaLq4Ca46efCW9hL1qF7bJ4d41SNt9xs0aOCyDVOnrcRBPXQE9mLjhFV1mIZyTKdtdUMRpIf/JxuxRnCMjynhYPQmop68ijxMpsiQNy0vboLTLjrK8dNHbeCtW7eaqB45DsqtKJ/IymgyUBdN4Y8BwojaLmjHCxcuhMnCKK7qXEY5WIduIroludCzwnXR4QChhMNKJBMZNGiQKx22kJoejkfLQ2PGLRh3Y14T/gW/cbVqSHEeg+ulk1fXjmKSZNgG/roTXd6/f+8FScZ9tV2AB7r+cYpfO5iUs23bNpf9o45RHIHW3uDYBkcNCmOSINGBAy+5qdDybBiYaT3onDgchknJlClTHM8yflzL+2ND5yNHjrhsCu1969Yt46JUgmO7ctyCTSLUDmXYdDZFPTsB6SdOnJh1Na0RXHWymSw1nT59ugsceEm9FufrNJZg4lpeBEdvA70OWZf58+frqsr3skAA5GnatGkZtsAYBymaijpsXLdunVFSDLGwQhL/JWbSm8RGEdn+uOIvlkxFrSPSR7FlawRXnVJBa2pLSkpcoECxsOMjCmoUUEwbQxePOtjatWsneJOMDqXs71F80d6mGzKwv6FevXouGzPZ8ab+RRKWtnpNkUqtZB1hg0FxZRpcdXUMOxVI80PYGsHPnDnjAhPLOf0EK4qiEjRqer/6mTxTZwBMhiUm+XKcfwioJ7tgN5jJ3xAVFxe77AtTmUGC2Q9qUzIcdEgErWMYG9CtHYm6K88awQFenz59ygAqGFjgiae6TW7Lli2ecf0eyAbANek3ON7UnTp1KtPXdMzlpw8/0yOgnoxi0tY480/aBw5vNCGOzqmHPEyOW6Y+KLnSUq/Nn7s6cpvo5ZcnnlkluHpwAyr85cuXsjphXE5JAfCwcSRbkQ2IaxzghKkH/Z9q02m9MPlz3H8IvHz5UnTu3LmMsFiT4NcVhi1kYxu6HWzIx4TgqC0tE85inHOgEx25dZurdGmD7lklOApXwcX+cNxTp9H69evn7K0OqrDfcwpokgSnK6SwHJLFPgLoMYEEtM3xZoenXZ7vB4Kq/0cWZtER8lGXHaM8LCc1Ebzg6OIc/ChhARgOEwWp4T/AbjaqA8I4WyAusU5wVBSrcFRnhVQK00jZdslVEGSeuCZFcPp3OEEn1aj15e/REVi2bFkGQagdyDCmLv3e8l41gSMOu7lwhiA+YcbUMk/1JSfrpF7x0sOCqjglEYLLCqPyAAhdWBsnoFDAkiC4dNxgTKcTbNTH3D4+LPYQgEMXa8qxpBkvDLQHnG94e+Mt73W4p70aZeaM4SgWe+FvguWwtH379mL06NHO9Nvhw4etnAaUKMEz1Y73TpIExy87ysvPz/c8AfP27dtOnCR+bOJFknNLCwJM8CxaEuTG2AzHM/nNc8tpM4wLWRiB8kCACf4XdTg+sJKOevl1DYI5V6xUQvcv6K9r5dhLd/qLLm++xwjEjQATXAiH2LR777W1r7S0VBQWFjpjKJDX74MxIZwmXuPzuBuS82MEdAgwwYUQ2FdMCe61tQ+kpfFMwkluNtE1MN/LbQQqLcHV3VI6suHEDxrPy5utpoWXUxV04dV4Jt9ND6tQy+PvjEAcCFRqglOCYSMBCI0tgFhQgF1H1atXd5HSi+CYvpMHPQ4YMEDk5eVlYCvH07RMkzCOVmZhBMoLgUpLcFuAYf1x0MmptsrmfBmBuBFggiuIFhQUOIflKbf5KyNQKRFggivNBqcYjs1hYQTSgAATnLSi3NXD/0dOQOFgpUaACU6aDw46HJnDwgikBQEm+N+WhJccnvgkTkBNi/GwHhUfASY42bNeVFRU8VuMa8gIhECACf4XLLzBWRiBtCHABE9bi7I+jABBgAlOwOAgI5A2BJjgaWtR1ocRIAgwwQkYHGQE0oYAEzxtLcr6MAIEASY4AYODjEDaEGCCp61FWR9GgCDwP4kyPTKHrO8DAAAAAElFTkSuQmCC;" vertex="1" parent="1">
          <mxGeometry x="780.12" y="366.6" width="59.76" height="20" as="geometry" />
        </mxCell>
        <mxCell id="LVHQ-mxESrNUFajZh_sA-29" value="" style="shape=image;verticalLabelPosition=bottom;labelBackgroundColor=#ffffff;verticalAlign=top;aspect=fixed;imageAspect=0;image=data:image/png,iVBORw0KGgoAAAANSUhEUgAAAO8AAABGCAYAAAAkY8OfAAAOqklEQVR4Ae2dCc8UxRaG/U9GkcUFRQGNUcAoAiJowuKGsgpqEBNxYxFQEnBBEdwlgkoCBBBRAVHEBRCUXSMgIooGVEzfPJN75lbXVPdUddd892vnnGRSPdO1nHq73q6qU6dqzklUFAFFoJIInFNJrVVpRUARSJS82ggUgYoioOSt6INTtRUBJa+2AUWgoggoeSv64FRtRUDJq21AEagoAkreij44VVsRUPJqG1AEKoqAkreiD07VVgSUvNoGFIGKIqDkreiDU7UVASWvtgFFoKIIRCPvTz/9lGzatCl57733ksWLFycLFiyofx588MHkpZdeqihEqrYi0DkRiEJeiHruuefmfoijogjERuDXX39NduzYkRw9ejR21i3J7+zZs8mhQ4dqOqN7GYlC3nHjxuUSF2J/8MEHZfTUtIpAHYEtW7Yk99xzT3L11Ven2t0111yTMMr78MMP63E7w8UPP/yQPPbYY8n111+fdOnSJaUzdRg7dmzCyDVUopD3008/TfisWLGiNlTu2bNnSkHIW0S50Mpo/H83Anv37q2R0x7lDRkyJOnVq1eqzd10003J+vXr/++AMF3s3bt3Sjdbf75fcMEFyfbt24P0jUJeu8QRI0aklB09erQdRb8rAkEIQFx6Lmn4l156abJ27drk999/r+fz5ZdfJsOHD6/HIe6cOXPq9zvyAr3sEenEiROTF154Ifnkk0+SP/74o9ahQdjbb7+9rnOIjtHJ+88//9QVEaBRWEURKIqATVwImie2DWbu3Ll50aPfY/5td2BvvPFGZjnPP/98reeFL08++WRmPPtGdPIyHxHSSrhz5067XP2uCHgjwJxQ2tKFF17oNQWbPHlyPc35559fMxB5F1gi4r59+5Ibb7yxXvZVV12VbN68OTNHhvxSN8K+fftmxrVvRCfvU089lVIGI4KKIlAUga1bt6ba0yOPPOKV1RdffJFKd++993qlKxvJHip/9NFHmVkyJzeJK9cHDx7MTGPeiE7eYcOGpRQaP368WZ5eKwJBCDzwwAOp9pRHBjtj5sVCCMJdu3bZUaJ+X7p0aaq8+++/Pzd/6mLqJ9e//PJLbjq5GZW8p0+fblBG13cFag1DEWD9Vho0YdeuXYOyuOOOO1LpcR5qlezevTu55JJLUuV99dVXucWxznvttdem0kybNi03jXkzKnlZyzXB5vrjjz82y9NrRcAbgddeey3VnkKnYA899FAq/Z133ulddmhEe7iMZdxH8Eh84oknagYulpV8h8zkHZW8M2fOTIEFeU1Tvk9lNI4iIAjgcGF2BlhwQ8S2OrOW+tdff4Vk4RUXJwxTT64xmLVaopLXtLJRgcGDB7daf83/X4zADTfckCJFKHlfffXVVHra5MaNG6MjZo8QKOfFF1+MXo6dYTTynjp1qgEonwVyembW8ZgflPX1tCun36uLAE4MkMD8hJJ35cqVqfTk9fTTT0cHheG4qSfXeBy2WqKRd8OGDQ0VYJdRlrD2+/DDDzekUQNXFmLt9TuN3yZEKHld1lzfpSZftBmG23ryHWObCPPY1atXJ0wrqQMW9Hnz5tU6LIlTJIxG3tmzZzdUAm8rl+BtIhXGQsdw2xwirVmzxpVMf2sjBBjeShuRMJS8rhdA7LkoHZToZ4ayy+nxxx933pe4N998c+FNO9HIO3To0JSSWUCLEQFPEtbFEN5eWN3Ex3PGjBlt1Ey1qi4E6KmkgUuY1aZc6fnNRd7Yfvbvvvtug57oi8hwGr1xGmEqwBTx7bffrtmDpF6EzJtDJQp5Xeu7rrkFQwUUxYxOJRCGNvbWrtCHFFrpf0t8Gmdn+cTGdPny5Q2kCG0XLvLGNqJimDJJKNe33HJL7XeWq1xy/PjxOrklzVtvveWKmvlbFPK65hb2nsrbRt9Wq4z95sMRW5SXkCUClXwEmFoIXp0hDN3Oll+7pNYT2fWKQV46ipjiWh4VvZut9X7//fcN+3u//fZbb/WikJddG6KwhFifRWSxHAOVLVdccUVDWvyjVfIR4IVJY+4Mn0mTJuUrW+AuO9GkLUkYg7wXXXRRAW2yk5gbIERPCTHiNpMJEyak6slGBZM7eemjkHfkyJEpBa677rp6mTLHxcLmEk5EkMoSXnbZZcmPP/7oilr7jUbLEhS9M3NkQh40PdHPP/+cma7sDerBaQiAfdddd9V0YJjDLiqV+Ag8++yzqXZB24hB3vPOOy+qsuhktl+5ZjeRj7iG9r42n9LkxdjUo0ePVAWmTp1am9PKxujnnnsutx5Y5Dh9AyLaw20z4fTp01PlCFAS9unTJ3n55ZfNJKWv9+/fn/Tv3z+3XF5Af/75Z+myNIP/IWA7+fOMY5CX1Y2YYrtFSlvMmuvaZbvI22y4LXmUJi97FUVhCVkcx5rM91hHkdDbkt+UKVNqef7222+1npb1NIZtUjYhgMYQcTxhDymNCYshwlzFNeeU5YEYZbd7HlhkzWfKdQzyXnnllVGhpcOx9eQ7pPQRF3lJj8tlMylN3meeeSalvHl+FYqJVbmZInn3OTaECuV5bNkE5oiUssIOD3rdLGOMTWDWq1XiINCqpSJzShdD0yyD1XfffeeV/Z49e1L8kRdB3ghUMi5N3rvvvttZuChByDCAOWPRQ+hk+M1a8IkTJ0T3VMhLAmOElMvwCGCKCuQnL972eS8g++HlvWCK6tKO6VwrGKE9r+tUF/wRYorYdKTdSejb1hmtSRoz5DDHZlKKvHhQXX755anCqcyoUaMaTOAoxpx0xfLmSplKM6dmN4hULG9IbAO5bNkyM6uga9appUxCelmXAL6pX79+/VzR9LdABOy9vDyDUPKuWrUq9QzJg84mprj8pynn77//9irmzJkzDTqS3mdjQynyfv755w0Fc6A0AunWrVuXsAcTZcxPiDeJ6yFm9YRYf81y6BWLypgxY1J55S2HYFk0y/U19RfVrR3SuRx/QslruuHK85k/f35U+NhQI3mbId5UPpJFXjqiZlKKvEuWLGlQ3C6QnULiJiaVw2jgu88XKy4GI0nLdZZl1x5qsaRTVBYtWlQvk7L5niX20T9ff/11VlT9PQABplvy3AlDycsqh5mea3rjmEL7tsvge95yp1l+1rBZXIfNuPZ1KfLaC8xZJxW49lWGnLDBkJV5L5+s4SsVsy13Icdo2sAAqsxnCfmeJTQq8wF2xNZGXlS2W6mpQ0deQ7JW1Nl2gOD5hwjr8jYO33zzTUgWXnEHDhzYUA7H4vhIlsEqr51LvoXJy7D44osvTimdZ6yxQXT1ZDJnxfxeROz5x/vvv18km+A0zHOlfqENLLiw/yZgqcw+/EB06OiwVeSV9iD1CTkWFZjszoV/VWA4Hltc3mBll4rMLYVZ+hYmr30kJwDnvS3kAUiI5dgWnMa5//rrr9u3vL7by0XHjh3zSlcmkt3bz5o1q0x2mtZAAD9faS8SGrebXto9oss915UJNgtOmjx58qTrdsNv7E0X/SR85ZVXGuK5frDbD+k5p9pHCpNXdgiJsoRZ4hrX228mWcvlf118QTPLw4hl6tLMq8tMW+b60UcfrZdLD5w3vC5TTrumtd1nmS74CIZTsz1wnXc4hOS5cOHCVDpfo6dsZ5UyfUePLvL6zssLk5c/chJFCRk6ZYlLQdvoZM4vs/LJ+90cYsVeDsgqlxeG+QdXeSOPrDz093wE3nnnnVQ7w5XWR2w7C+21mbgcQ2jbPkfGMpI0+cAKhM+qg32Ixa233tpMzfr9wuS1/ZnpgbLEfgvaeyoPHz5c822m8vxZVKiYxGVeVMY5w7fsI0eOpP74Km++75unxnMjYK5WsKYubqru2EnCXln7PGSfF+t9992XIqCQ0Yf46GL7Oef9PxHxceQwV1IoL2SjSyHyuo66zAPHPkyMw7PNdTBOlkdxDAyhgvWwe/futfSEZr6heYXENy2ZvDxUWofAtm3bUqRqtifXPnrG9yBz+98ZhLyDBg3yqhzLn/bKQxYv2AFn+xK4DrDIK7gQee3/WMGfudlSgdk7AgpzAsb28lbF57SIgUnWAn0BzgPD956548V3fuKbt8ZzI0CPZC6N4XPu6oHNlyrtzHd7HaWKS6yQVkKfNVfRGpuHvQpAG5dTMtAZg6w97SzScRUiL36XUjFCXyuebMo308r1Z599JvX3DuUtF/tQsTwFzPl7K9YM88pu93s4++N4I22GkGkSh7gNGDAgNQRldIcTUajY+4hDyC9l8U+BWUNwU3euWVps9rcokq8dFiIvmdCT8rbwcaA2C8U5g+UU0vInZG+++WbCnDdUhLgdOWQV4rKhuxXrhaEYtGt8nrmMuGwy8J0lQ1x3iwpTL5wsyh7uQE8OOW0d8TDEio5lu4wUJm+ZQsumFeLy3y5ZwrCEeLGE4Q4Pgd1K+KO6RI4rheQqrUcAkvHi59lgpCxLtlZpzL/+HThwoLa1NOZSYuXIK6dpyBzCBbjsRGLjfgyhkUBchmh5f78ovrT6Z+IxUNc8miFQKfLitQKJmhkQpJfM65kZvvv0kKzVdevWrTanana6AVMB9PPdy9ns4eh9RSAPgcqQV87H5eQOSOf6MP9mPsQHEmWR05yHMLTO2uDP+jRzKyzZrvL4Dcs7LxMpk3JVFIGOQKAS5LWt2xDE5+P6r1OXq2aWL7XMrX3Kkjgc3amiCHQEAp2evPSK5vqekMQndDls0FvaaVkbtMXsSe34ed99l83s8vS7IhCKQKcnr4tseeSRe3leOBBTvLKI79qHXKTXJa/QpbPQB6bxFQFBoBLkzZpvNvtdKukKWe4hPadguLxbmuWdd99Vnv6mCMRGoNOTN3aF7fxwdHcNm+14+l0R6GwItDV5ZbM3w2gVRaBqCLQ1eSEtx9HqumzVmq3qCwJtS14IC3G111UiVBWBtiUvzuva61a12areINCW5JX9uFkbpbVpKAJVQKAtycuDUeJWoXmqjnkItC1580DRe4pAFRBQ8lbhKamOioADASWvAxT9SRGoAgJK3io8JdVREXAg8B9cTGO/lOum+wAAAABJRU5ErkJggg==;" vertex="1" parent="1">
          <mxGeometry x="882" y="345.21" width="58" height="16.98" as="geometry" />
        </mxCell>
        <mxCell id="LVHQ-mxESrNUFajZh_sA-30" value="" style="shape=image;verticalLabelPosition=bottom;labelBackgroundColor=#ffffff;verticalAlign=top;aspect=fixed;imageAspect=0;image=data:image/png,iVBORw0KGgoAAAANSUhEUgAAAOgAAABKCAYAAACxfRidAAAN6klEQVR4Ae1dh6sUPRD//idR9FmwY+/YOyrWZ+8FO/YCKij2Xp4VK6LYy1NQEXvvig17Q/LxW5wjm8vuJXu7+/b2zcCRvd2UyS8zm2Qyyf4nmBgBRiCxCPyXWM6YMUaAERCsoCwEjECCEWAFTXDjMGuMACsoywAjkGAEWEET3DjMGiPACsoywAgkGAFW0AQ3DrPGCLCCsgwwAglGgBU0wY3DrDECrKAsA4xAghFgBU1w4zBrjAArKMsAI5BgBFhBE9w4zBojwArKMsAIJBgBVtAENw6zxghYK+jNmzfF5cuXM7/jx4+LkpISsXz5ctGnTx/x5MkTRpURYARCQsBKQWfMmCEqVKjg+/v06VNIrHE25R0ByNKNGzfEmzdvCh6KZ8+eBaqDlYI2bdrUVzlr1aoViAlOxAgQAhcvXhRDhw4Vqqw1b95cTJw4URw7dkz8+fOHoscWjhs3TrRt29YZKT548MCo3OfPnzvxu3Xr5ujNnTt3jNLJkawUFMNY/GbOnCn69++fpayDBg2S8+ZrRsAYgYcPH4rJkydnyVSnTp1EgwYNXPebNWsm9u/fb5x3GBExfZNHj1DWIUOGOC+N2bNni2XLlomFCxeKKVOmiBEjRjjTPTl+pUqVnGmhLS9WCqpmLjOAaygvEyNgi8C7d+9E586dXQqwevVqgftE6LXQMcgyt3HjRnoceagqqMxHruvatWuLs2fPBuIxsIKeP3/eBRaYvHLlSiAmOFH5ReDXr19i4MCBLlnym68dPHjQFXfbtm2xgBdUQdHbX716NTCPgRV00aJFLqCKiooEwGZiBGwQUA2PWCHIRZiLUq+Fuerbt29zJcn7eRAFHTZsmAgy75SZDaygmBsQSAiLi4vlfPmaEciJAOadVapUycgR5m4mdP369UwayB7mflGTjYLiBXLp0qVQWAqkoLCiycqJ6xUrVoTCEGdSfhBYvHixS45sbBgw0sgy+OLFi0iBIwUFj0uXLhXTp08Xw4cPd4bnuF65cqU4cOCAsywUJiOBFBRjahkcXJdeLA2TL84r5QhgbbNu3bouOTIZ3hIsUBRZBnfv3k2PIgllBY2kAI9MAykorGcyOPXr1+f5pwfAfFuPwL59+1wyBHnyMw6puezZs8eVHuuUUVJBKSgWkmUFHTVyVJTYcN4pRABrh7IM4drGyHju3DlX+nr16kWKUkEpaNWqVV3gxLkeFWkrcOaxIdCjRw+XDNWoUcOqbAyHVQW/du2aVR42kQtGQQFCnMDYgMhxCweBypUru+QIyyU2pFNQGyOTTVmIWzAKCmuVrKDkf/v792/HkwimcvhNVqtWTXTp0sVx3zpy5IgtHhw/xQhgR5QsQ7jGsp0N6RR0zpw5NllYxS0YBSVGCWD8P3nypFCHLPScwu3bt1sBwpHTiwDc3kguKIQc2ZBOQSdMmGCThVVcknu5l8aLBksucLaAXQaGqg0bNjhufS9fvrTK3yuylRX379+/omLFii5wiXEADSbhioVtQlhMVk3hcuW8GOL76UcAO1JIMSkMQ0Gj3KxBcg4ZhueS6gFF9ZDDBQsW5N2YVgqq878FQ5g/nDp1SsuMrKQYDj99+lQbj2+WHwSwE0UWZFyHoaDY1hUVyQrasmVLh384S8CpH/WBbmDpCL24XDescHz79i0wW1YKiu5cLpyu/TbUwheR4iGMcp4QGIUEJqQ9hDJ2ZXVtuv/RFMYdO3a4ZAL1CkNBW7RoYcqCdTxSUGqDVatWie/fv2vzgQM/xUPYtWtX8ejRI23cXDetFLRfv36uglH448ePfcv4/PlzVpr379/7pinvD/HCkxu4rK8xXQmT1q9fn1W/MBSUDJZh8kp5yQpqMlVDRyS329ixYykrq9BYQb98+SKwViUXasIorLtyGlxjOOBFHz9+dLbn7Ny50znrCMYAvx7aKx/b+3jRwNiFOmGOdPfuXfHz50/bbEKLj3on5Rdapf5lJE97SDbCUFDkFRWRgpoOo3VGrCCrGcYKevr06SxFw/EUuQhOzNQIFK5bt06bbN68eVlxKQ12CAQdJmgL+3cTQHoNJ5s0aSJ27drll5yfBUAAlk5qVwrDUNDq1asH4MYsCeR406ZNVlvbaK5KdezYsaP48eOHWYH/YhkrqLrzAI7OJqRzbIC1VyW4aqEieIbe8/Dhw2L+/PmiXbt2mcZEnC1btqhJA/+nNznqMmvWLKfHgvCMHj06UyZ4GjVqFJ9WGBjl7IRoXxJaCsNQUPiEJ4kgN1Q/Ck1GnXIdjBW0VatWrsKw1caE1AkzGFXXq2i8fvTo0awsX79+LQYMGOAqG0s5+RL2IoIXCIbuqFCVb1sBype/NKdXT0WgdrCps24IGaWRyIY3iqsbEY4ZM4YeG4VGCqozWpgO/TA5prcHhfJbBHvocN/PkQHrTvLBURjK5Gu4wDEbMJP7EfWwxDdboP3QMn924sSJLJmwfQHqFBRDyCQRpnIkOxRiRGhDRgqKno0KoNB0PtioUaOstPv27svwCO8L5Nm4cWNnSJt5oFyoyoLdEEEJBiCqx+DBg4WXk7X6YkCaOAxWQetVKOlguyD8KTQ1vlAdYdCjtBT26tWLHici1I0U4OgDhx9TMlJQdf0Tx1SYEIanBJ4cypu71Ym015qbeswFjv0MStRrE0+Yc3oRzpWheAjx5mbKDwGdXEAObEi3n3TatGk2WRjHhbzgSFCcKmhzAJiul4cM3b9/37hsIwXFkQ6ykHbv3t2oAJiV5XS4hgO9TPLQFc9hQNARjmCU80LPHJRUIwV48CL1qMeod+578ZG2+3Xq1HG1p6nRkXBQDw2AbERxwp86ckM58ME1Id1QHulh/zAlIwWFQUhWDgitCakn/yEPdYlFVQC/fGUe8lmUloe4yNOvPmoDhWlF9qsryk3Kz4/PoM9Upxcc7GxDarugHS9cuGCThVFc1TiKcuCHa0I6l0bUM/QhLibwsnLAE8SEVOsrtqCphzthToc57tatW3P66co8BPXMIL4x78S6Fsr2m1eqgpDvMYpUvl/oNTSS6x/nNTAIm3QnKnz48MG4GLVdgAeGzmGSXzuYlAOZVtvJ1pBl1IOSIYcKw5g8F+kqh3XNoKSup8bVk8lrovkMq23rPWnSJGcJCC/Hsv7Z8m4SH+vcJE8U3rp1yySpE0dVUGx3DJvg5E68yaGpNV/dO408xo8fb8WmkYKqRiI/Vz0qferUqa7KwUrn5VxMafxC2VECyyxx9GTo7dHrU+PMnTvXj0V+ZoEAhL9hw4YZbIExDgIzJXXatWbNGqOkeLHj+yn4loo6mtNlAEd3an+E+ESFKak8Ir3taMRIQVWjSi6fwtLSUlelwFg+8wP0nlBKAmrt2rWmGOUVT54ft27dWrCTf15wZiWW8UXbmk5b4N9ds2bNjDwgrZf1Xy5U/cQEZMpriY3SEY9QrFxxKQ1CHY+2S0nIx0hBz5w54wID7nB+BI8OUiaEtm8NNW/5S2p9+/ZVH0fyX7VAmwzrI2EkxZmqJyvA8GfyGQd8NFqWLyyF5SJY3+U0dJ1rk7fMo40M6HwHgjjXGCkoKt+zZ89MBfv3816DJLc9AmDz5s25sPN9Lm9NQgPCAhs1oads3759pr6mc46o+Upj/urJBCYvc5x5RfKFw8dMBF9nlEIeJsd1yjYYKF4u0imnSb10+RorqLrxGgV+/fo1kyfmpbJQo/J79+7NPA9yIe+gwbpZXCR/p1JdFoqLh/JSzqtXr0SHDh0yCoc1ab+hJOSOlBOhqeDrdtCYKijaQi4Txk7sc9aRTjl1m0N0aXX3jBUUiVVwsD8U99RlmN69ezt7K3UFmt67d++e4/4HYNB7x0WyhwrcyZiiRwAjFgixrAToWWHppfOtoGDq91hsnEaQj+oUg/JMN16gg5KdK/BSgQMPfMihlJg/YzeNXAdcY29xPmSloCgIXhDqZJuYwjJEvkNaqgw1BixucZH8OYFcJ0XExVN5KmfJkiVZAk6yJYdY+vLrZb0wgyEJu0lwhhZ+NnNKylPtpGS+5Gt0WmFMx6wVlBhF4agghoBhn0BAPTLWkXSENVb8wiQyPGBOoyNstI2iXF1Z5fkeDJLwqYVLKF74aA/YHvDCRi/rdThdnJhhOgfbCA4RoGldmzZtxMiRI53lm0OHDoV2GkdgBY0KEBrqwMvHi+gDrl7Pbe/jzYq3Hz5V7nUC2+3bt504pnMeWx44PiOgQyBRCkrDh5KSEh2vmXt4a9nufsgkVi6gnJib4HgTv3VOWnbBvIiJEYgLgcQoKHpM9GImfr6IB9O3F2HiDk8m2cqsi4s1N3iKYPiU69N39PLQnb6gy5vvMQJhIJAIBcVcFkoHJcj1wzgfcXEuqY5UF0OvrUH4SnhxcbEzh8hVJuZEmBd7zU91fPA9RiAMBMpcQWF4KSoqcpQOimf68/LbVL/a7LU1CEpnWhbFi9NZPozG5TwKH4EyV1BaTiElMA3hxKAjNT3mqyphCKzGM/mvbjZX8+X/jEDYCJS5gpoohi6O195BLP/QQWXw20XvrBLNJ3X5+t3D0ZxMjECcCJS5gkZZWfhfoodmYgQKFYFUKyh2wcCvlokRKFQEUq2gMOrg2AkmRqBQEUitgtKuAv4eaaGKJvMNBFKroDijxvTzFCwKjEBSEUilgsJKiyMx4ji3KKkNy3ylA4HUKSgtoeTy501H83Et0o5A6hQUDQYlZWIE0oBAKhU0DQ3DdWAEgAArKMsBI5BgBFhBE9w4zBojwArKMsAIJBiB/wGov6lKdqXhWAAAAABJRU5ErkJggg==;" vertex="1" parent="1">
          <mxGeometry x="892.3" y="362.78" width="57.7" height="18.41" as="geometry" />
        </mxCell>
        <mxCell id="LVHQ-mxESrNUFajZh_sA-31" value="WorkerⅠ" style="text;html=1;resizable=0;autosize=1;align=center;verticalAlign=middle;points=[];fillColor=none;strokeColor=none;rounded=0;" vertex="1" parent="1">
          <mxGeometry x="702.8199999999999" y="366.6" width="70" height="20" as="geometry" />
        </mxCell>
        <mxCell id="LVHQ-mxESrNUFajZh_sA-33" value="" style="endArrow=classic;startArrow=classic;html=1;strokeColor=#009900;exitX=0;exitY=0;exitDx=0;exitDy=0;entryX=0.5;entryY=1;entryDx=0;entryDy=0;" edge="1" parent="1" source="LVHQ-mxESrNUFajZh_sA-2" target="LVHQ-mxESrNUFajZh_sA-31">
          <mxGeometry width="50" height="50" relative="1" as="geometry">
            <mxPoint x="800" y="414" as="sourcePoint" />
            <mxPoint x="736" y="388" as="targetPoint" />
          </mxGeometry>
        </mxCell>
        <mxCell id="LVHQ-mxESrNUFajZh_sA-34" value="WorkerⅡ" style="text;html=1;resizable=0;autosize=1;align=center;verticalAlign=middle;points=[];fillColor=none;strokeColor=none;rounded=0;" vertex="1" parent="1">
          <mxGeometry x="835" y="325.21" width="70" height="20" as="geometry" />
        </mxCell>
        <mxCell id="LVHQ-mxESrNUFajZh_sA-35" value="WorkerⅢ" style="text;html=1;resizable=0;autosize=1;align=center;verticalAlign=middle;points=[];fillColor=none;strokeColor=none;rounded=0;" vertex="1" parent="1">
          <mxGeometry x="969" y="378" width="70" height="20" as="geometry" />
        </mxCell>
        <mxCell id="LVHQ-mxESrNUFajZh_sA-36" value="WorkerⅣ" style="text;html=1;resizable=0;autosize=1;align=center;verticalAlign=middle;points=[];fillColor=none;strokeColor=none;rounded=0;" vertex="1" parent="1">
          <mxGeometry x="999" y="488" width="70" height="20" as="geometry" />
        </mxCell>
        <mxCell id="LVHQ-mxESrNUFajZh_sA-37" value="WorkerⅤ" style="text;html=1;resizable=0;autosize=1;align=center;verticalAlign=middle;points=[];fillColor=none;strokeColor=none;rounded=0;" vertex="1" parent="1">
          <mxGeometry x="835" y="588" width="70" height="20" as="geometry" />
        </mxCell>
        <mxCell id="LVHQ-mxESrNUFajZh_sA-38" value="WorkerⅥ" style="text;html=1;resizable=0;autosize=1;align=center;verticalAlign=middle;points=[];fillColor=none;strokeColor=none;rounded=0;" vertex="1" parent="1">
          <mxGeometry x="680" y="508" width="70" height="20" as="geometry" />
        </mxCell>
      </root>
    </mxGraphModel>
  </diagram>
</mxfile>
